<?xml version="1.0" standalone="no"?>
<!DOCTYPE svg PUBLIC "-//W3C//DTD SVG 1.1//EN" "http://www.w3.org/Graphics/SVG/1.1/DTD/svg11.dtd" >
<svg>
<metadata>
Created by FontForge 20090914 at Wed Dec  4 11:21:04 2019
 By www-data
Generated by Fontographer 4.1J
</metadata>
<defs>
<font id="Cookies" horiz-adv-x="301" >
  <font-face 
    font-family="Cookies"
    font-weight="400"
    font-stretch="normal"
    units-per-em="1000"
    panose-1="0 0 4 0 0 0 0 0 0 0"
    ascent="800"
    descent="-200"
    x-height="620"
    cap-height="717.999"
    bbox="-2.99707 -116.999 974.999 800"
    underline-thickness="20"
    underline-position="-123"
    unicode-range="U+0020-U+F002"
  />
<missing-glyph horiz-adv-x="500" 
d="M63 0v800h375v-800h-375zM125 63h250v675h-250v-675z" />
    <glyph glyph-name=".notdef" horiz-adv-x="500" 
d="M63 0v800h375v-800h-375zM125 63h250v675h-250v-675z" />
    <glyph glyph-name="space" unicode=" " 
 />
    <glyph glyph-name="exclam" unicode="!" horiz-adv-x="286" 
d="M27 681c14.667 32 46.668 48 96.001 48c21.333 0 40.666 -4 57.999 -12c22 -10.667 34 -25.334 36 -44.001c4 -7.33301 6 -22.666 6 -45.999c0 -40.667 -5.66699 -100.667 -17 -180c-12.667 -88 -25.5 -145.167 -38.5 -171.5s-29.5 -39.5 -49.5 -39.5
c-19.333 0 -35.5 14.667 -48.5 44s-25.167 85 -36.5 167c-10 72.667 -15 130.667 -15 174c0 32 3 52 9 60zM22.001 100c4 58.667 38.667 87.668 104 87.001c24.667 -0.666992 43 -6.33398 55 -17.001s21 -28 27 -52c2 -8.66699 3 -17 3 -25c0 -28.667 -9.5 -51 -28.5 -67
s-43.167 -24 -72.5 -24c-26 0 -47.667 9.83301 -65 29.5s-25 42.5 -23 68.5z" />
    <glyph glyph-name="quotedbl" unicode="&#x22;" horiz-adv-x="575" 
d="M90 748c16 6 32.999 9.00098 50.999 9.00098c32.667 0 60.167 -10.833 82.5 -32.5s33.5 -48.5 33.5 -80.5c0.666992 -50 -21.666 -102.667 -66.999 -158c-40 -48.667 -71 -73 -93 -73c-6 0 -11.167 3.5 -15.5 10.5s-6.5 13.833 -6.5 20.5c0 9.33301 4 23.166 12 41.499
s12 30.166 12 35.499c0 2 -0.333008 4 -1 6c-48 21.333 -72 58.333 -72 111c0 22.667 5.66699 44.834 17 66.501s27 36.167 47 43.5zM393.999 757.001c32 0 59.3311 -10.8311 81.998 -32.498s34.334 -48.5 35.001 -80.5c0.666992 -50 -21.666 -102.667 -66.999 -158
c-40 -48.667 -71.333 -73 -94 -73c-2.66699 0 -4.66699 0.666992 -6 2c-10 7.33301 -15 17 -15 29c0 9.33301 4 23.166 12 41.499s12 30.166 12 35.499c0 2 -0.666992 4 -2 6c-48 21.333 -72 58.333 -72 111c0 24 6 46.333 18 67c20 34.667 52.333 52 97 52z" />
    <glyph glyph-name="numbersign" unicode="#" horiz-adv-x="601" 
d="M4 481c1.33301 39.333 28.6689 59.001 82.002 59.001c12 0 26.333 -0.666992 43 -2c-4 27.333 -6 46.333 -6 57c0 42.667 20.667 66 62 70c42.667 4.66699 64 -19.666 64 -72.999c0 -7.33301 -0.666992 -15.666 -2 -24.999c-2.66699 -18.667 5.66602 -28 24.999 -28
c16 0 25 8 27 24c-2 16 -3 29.667 -3 41c0 42.667 18 63.334 54 62.001c42 -1.33301 63 -24 63 -68c0 -4 -1.33301 -24 -4 -60c12.667 0.666992 23.667 1 33 1c56.667 0 85 -19.333 85 -58c0 -37.333 -20.667 -56 -62 -56c-12.667 0 -26.667 2 -42 6c-18 0 -27 -9 -27 -27
c0 -16.667 8 -26.334 24 -29.001c17.333 2 31.666 3 42.999 3c48 0 72 -17.333 72 -52c0 -40.667 -24.333 -61 -73 -61c-14.667 0 -31.334 2 -50.001 6c3.33301 -22.667 5 -41 5 -55c0 -48.667 -22 -72.334 -66 -71.001c-37.333 1.33301 -56 25.666 -56 72.999
c0 9.33301 1 19 3 29c-2.66699 16 -12.667 24 -30 24c-14.667 0 -23.667 -9.33301 -27 -28c1.33301 -8.66699 2 -17 2 -25c0 -46.667 -17 -70 -51 -70c-46.667 -0.666992 -70 31.666 -70 96.999c0 8 0.333008 16.667 1 26c-15.333 -2.66699 -29 -4 -41 -4
c-46.667 0 -71.667 18 -75 54c2.66699 42.667 27.667 64 75 64c11.333 0 25.333 -1 42 -3c12.667 1.33301 19 10.333 19 27c0 16 -6.33301 24.667 -19 26c-17.333 -6 -34 -9 -50 -9c-47.333 0 -70.666 18.333 -69.999 55zM238.003 402.001
c1.33301 -14 9.00098 -21.333 23.001 -22c14.667 -1.33301 22 6 22 22c0 15.333 -7.33301 23 -22 23c-16.667 0 -24.334 -7.66699 -23.001 -23z" />
    <glyph glyph-name="dollar" unicode="$" horiz-adv-x="592" 
d="M506 574c-25.333 28.667 -48.667 49.333 -70 62c-28.667 16.667 -62.667 25.334 -102 26.001c1.33301 2.66699 2 9 2 19c0 39.333 -19.333 59 -58 59s-61 -12.333 -67 -37l-6 -52c-50.667 -12 -94 -34.667 -130 -68c-40.667 -38 -61 -81 -61 -129
c0 -40 16.333 -74.333 49 -103c29.333 -26 65 -42.333 107 -49c19.333 0 30.333 -4 33 -12c-0.666992 -4 -1 -17.667 -1 -41c2 -12.667 -2.33301 -19 -13 -19c-8.66699 0 -29.334 7.33301 -62.001 22c-34.667 15.333 -58 24 -70 26c-23.333 -8 -38.666 -24.333 -45.999 -49
c-4 -13.333 -6 -37 -6 -71c24 -31.333 53.667 -53 89 -65c27.333 -9.33301 64.666 -14.333 111.999 -15c0.666992 -26.667 2.66699 -43.334 6 -50.001c8.66699 -18 31.334 -27 68.001 -27c36 0 58 10 66 30c1.33301 3.33301 3 21.666 5 54.999
c52.667 6.66699 95.334 21 128.001 43c42 27.333 62 64.666 60 111.999c-2 46 -16.333 81 -43 105c-22 20 -57.333 35.667 -106 47c-16.667 4 -26.667 7 -30 9c-8 4.66699 -12 13.334 -12 26.001s0.666992 24.334 2 35.001v29c1.33301 6.66699 4.33301 10 9 10
c7.33301 0 23.666 -7 48.999 -21c6 -3.33301 12.667 -5 20 -5c18.667 0 37.667 8 57 24s29 33.333 29 52c0 8.66699 -2.66699 16 -8 22zM178.999 458.999c0 5.33301 2 12.001 6 20.001s8.66699 12 14 12c2 0 3 -0.333008 3 -1c0 -15.333 -1 -38 -3 -68
c-13.333 1.33301 -20 13.666 -20 36.999zM364.999 241c-0.666992 13.333 -0.666016 20.3311 0.000976562 20.998c0.666992 5.33301 4.66699 8 12 8c10.667 -1.33301 16 -9.66602 16 -24.999c0 -12.667 -5.33301 -19 -16 -19c-6.66699 0 -10.334 0.333008 -11.001 1
s-1 5.33398 -1 14.001z" />
    <glyph glyph-name="percent" unicode="%" horiz-adv-x="591" 
d="M184 26c-12 -12.667 -26.668 -19.002 -44.001 -19.002c-21.333 0 -42.166 8.5 -62.499 25.5s-30.5 35.833 -30.5 56.5c0 6.66699 1.33301 13 4 19c28.667 64 79.667 163.333 153 298c69.333 128.667 119.333 228.334 150 299.001c6 14.667 19.667 22 41 22
c24 0 46 -8.16699 66 -24.5s30 -36.166 30 -59.499c0 -5.33301 -0.666992 -11 -2 -17zM328.999 303.998c20 16 47.333 24 82 24c34 0 62 -8 84 -24c26 -35.333 39 -80.666 39 -135.999c0 -56 -11.333 -100.667 -34 -134c-14 -20.667 -41.667 -31 -83 -31
c-44 0 -75 10 -93 30c-24.667 27.333 -37 74.666 -37 141.999c0 54.667 14 97.667 42 129zM379.999 172.998c0 -10 2.66699 -19.667 8 -29s12.666 -14 21.999 -14c20.667 0 31 14.333 31 43c0 10.667 -2.66699 20.667 -8 30s-13 14 -23 14
c-9.33301 0 -16.666 -4.83301 -21.999 -14.5s-8 -19.5 -8 -29.5zM48.999 700.998c20 16 47.333 24 82 24c34 0 62 -8 84 -24c26 -35.333 39 -80.666 39 -135.999c0 -56 -11.333 -100.667 -34 -134c-14 -20.667 -41.667 -31 -83 -31c-44 0 -75 10 -93 30
c-24.667 27.333 -37 74.666 -37 141.999c0 54.667 14 97.667 42 129zM99.999 569.998c0 -10 2.66699 -19.667 8 -29s12.666 -14 21.999 -14c20.667 0 31 14.333 31 43c0 10.667 -2.66699 20.667 -8 30s-13 14 -23 14c-9.33301 0 -16.666 -4.83301 -21.999 -14.5
s-8 -19.5 -8 -29.5z" />
    <glyph glyph-name="ampersand" unicode="&#x26;" horiz-adv-x="593" 
d="M206 499c5.33301 2.66699 12.332 9.33203 20.999 19.999c6.66699 14.667 10 31.334 10 50.001c-6 4.66699 -13.333 7 -22 7c-3.33301 0 -6.66602 -0.333008 -9.99902 -1c-8.66699 -8 -13 -16.333 -13 -25c0 -14 4.66699 -31 14 -51zM254.999 179.998l-37.999 33.999
c-9.33301 8.66699 -21.333 23.334 -36 44.001c-12.667 -12.667 -19.334 -23 -20.001 -31c-1.33301 -15.333 3 -28 13 -38c14.667 -14.667 28.667 -22 42 -22c8.66699 0 21.667 4.33301 39 13zM392 66.9971c-50.667 -44 -109.997 -65.998 -177.997 -65.998
c-54 0 -103.667 21.333 -149 64s-68 91 -68 145c0 61.333 29.667 120.666 89 177.999c-30 55.333 -45 111 -45 167c0 45.333 17.167 85.666 51.5 120.999s73.833 53 118.5 53c53.333 0 96.666 -12.667 129.999 -38c37.333 -28 56 -67.667 56 -119
c0 -48 -7.33301 -87.667 -22 -119s-40.334 -62 -77.001 -92c16 -27.333 37 -50 63 -68c8 27.333 12 48.666 12 63.999c0 22 7 40 21 54s32 21 54 21s40 -7 54 -21s21 -32 21 -54c0 -52 -15 -109.333 -45 -172l45 -43c13.333 -12 20 -26.333 20 -43
c0 -19.333 -8.16699 -39 -24.5 -59s-33.833 -30 -52.5 -30c-9.33301 0 -16.833 3.33301 -22.5 10s-22.834 22.334 -51.501 47.001z" />
    <glyph glyph-name="quotesingle" unicode="'" horiz-adv-x="383" 
d="M202 757c32 0 59.332 -10.8311 81.999 -32.498s34.334 -48.5 35.001 -80.5c0.666992 -50 -21.666 -102.667 -66.999 -158c-40 -48.667 -71.333 -73 -94 -73c-2.66699 0 -4.66699 0.666992 -6 2c-10.667 7.33301 -16 17 -16 29c0 9.33301 4 23.166 12 41.499
s12 30.166 12 35.499c0 2 -0.333008 4 -1 6c-48 21.333 -72 58.333 -72 111c0 24 6 46.333 18 67c19.333 34.667 51.666 52 96.999 52z" />
    <glyph glyph-name="parenleft" unicode="(" horiz-adv-x="532" 
d="M154 643c-68 -64 -102.665 -156.335 -103.998 -277.002c-2 -133.333 28.333 -229.666 91 -288.999c30.667 -29.333 81 -53.333 151 -72c17.333 -4.66699 35.333 -7 54 -7c33.333 0 63.666 6.66699 90.999 20c33.333 17.333 50 41 50 71
c0 13.333 -3.66699 26.666 -11 39.999c-12.667 22.667 -39 42.334 -79 59.001c-44.667 18.667 -74.667 35.334 -90 50.001c-30.667 30 -46.334 74 -47.001 132c-0.666992 61.333 15.333 109.333 48 144c18.667 19.333 49 37.333 91 54c36 14 57 28 63 42
c9.33301 16 14 31 14 45c0 26 -14 46.333 -42 61c-22 11.333 -47.333 17 -76 17c-18.667 0 -35 -2 -49 -6c-64 -18.667 -115.667 -46.667 -155 -84z" />
    <glyph glyph-name="parenright" unicode=")" horiz-adv-x="541" 
d="M370 643c68 -64 102.665 -156.335 103.998 -277.002c2 -133.333 -28.333 -229.666 -91 -288.999c-30.667 -29.333 -81 -53.333 -151 -72c-17.333 -4.66699 -35.333 -7 -54 -7c-33.333 0 -63.666 6.66699 -90.999 20c-33.333 17.333 -50 41 -50 71
c0 13.333 3.66699 26.666 11 39.999c12.667 22.667 39 42.334 79 59.001c44.667 18.667 74.667 35.334 90 50.001c30.667 30 46.334 74 47.001 132c0.666992 61.333 -15.333 109.333 -48 144c-18.667 19.333 -49 37.333 -91 54c-36 14 -57 28 -63 42
c-9.33301 16 -14 31 -14 45c0 26 14 46.333 42 61c22 11.333 47.333 17 76 17c18.667 0 35 -2 49 -6c64 -18.667 115.667 -46.667 155 -84z" />
    <glyph glyph-name="asterisk" unicode="*" horiz-adv-x="588" 
d="M140 729c12.667 6.66699 23.665 9.99707 32.998 9.99707c22.667 0 44.334 -15.333 65.001 -46l37 -70c19.333 42.667 30 65.667 32 69c18.667 30 39.334 45 62.001 45c10.667 0 21 -2.66699 31 -8c22.667 -12 34 -31.333 34 -58c0 -37.333 -16 -72 -48 -104
c15.333 9.33301 35.666 14 60.999 14c52 0 78.667 -19 80 -57c0.666992 -23.333 -9.66602 -41.666 -30.999 -54.999c-18.667 -11.333 -40.334 -17 -65.001 -17c-16.667 0 -31 3 -43 9c36.667 -27.333 55 -58.666 55 -93.999c0 -21.333 -9.33301 -37 -28 -47
c-11.333 -4.66699 -22.333 -7 -33 -7c-23.333 0 -44.666 12.333 -63.999 37c-9.33301 12 -22.333 34.333 -39 67c-22 -72.667 -53.667 -109 -95 -109c-8 0 -17 2.33301 -27 7c-20 9.33301 -30 27.333 -30 54c0 35.333 11 62.333 33 81c-13.333 -5.33301 -28.333 -8 -45 -8
c-24.667 0 -45.667 6.16699 -63 18.5s-26 30.5 -26 54.5c0 40.667 25.667 61 77 61c22 0 42.333 -3 61 -9c-15.333 8 -28.333 23.333 -39 46s-16 43.334 -16 62.001c0 25.333 10.333 43.333 31 54z" />
    <glyph glyph-name="plus" unicode="+" horiz-adv-x="570" 
d="M481 324c-6 -0.666992 -28.668 -0.665039 -68.001 0.00195312c-30 0.666992 -51.333 -2 -64 -8c-1.33301 -4 -2 -9.33301 -2 -16c0 -8.66699 1.16699 -22 3.5 -40s3.5 -31.667 3.5 -41c0 -30 -6.33301 -51.667 -19 -65s-34.334 -20 -65.001 -20
c-36.667 0 -57.667 12.333 -63 37c-6.66699 14.667 -10 32.667 -10 54c0 7.33301 0.5 18.5 1.5 33.5s1.5 26.167 1.5 33.5c0 10 -0.666992 18.667 -2 26c-3.33301 2.66699 -8.33301 4 -15 4c-8 0 -20.333 -1.16699 -37 -3.5s-29 -3.5 -37 -3.5c-20.667 0 -39 3.66699 -55 11
c-20 15.333 -30 38.666 -30 69.999c0 46 27 69 81 69c8 0 20 -0.666992 36 -2s28 -2 36 -2c6.66699 0 12 0.666992 16 2c1.33301 6.66699 0.333008 20.334 -3 41.001c-7.33301 45.333 -8 81.666 -2 108.999c5.33301 25.333 32 38 80 38s75.667 -13 83 -39
c4.66699 -10.667 7 -24 7 -40c0 -14 -1.66699 -31 -5 -51c-4.66699 -28.667 -7 -44.334 -7 -47.001c-0.666992 -6 -0.333984 -10.667 0.999023 -14c4.66699 -3.33301 11.334 -5 20.001 -5s21.834 1.66699 39.501 5s30.834 5 39.501 5c47.333 0 71 -26.667 71 -80
c0 -38 -12 -58.333 -36 -61z" />
    <glyph glyph-name="comma" unicode="," horiz-adv-x="378" 
d="M151 218c16 6 32.999 9.00098 50.999 9.00098c32.667 0 60.167 -10.833 82.5 -32.5s33.5 -48.5 33.5 -80.5c0.666992 -50 -21.666 -102.667 -66.999 -158c-40 -48.667 -71 -73 -93 -73c-6 0 -11.167 3.5 -15.5 10.5s-6.5 13.833 -6.5 20.5c0 9.33301 4 23.166 12 41.499
s12 30.166 12 35.499c0 2 -0.333008 4 -1 6c-48 21.333 -72 58.333 -72 111c0 22.667 5.66699 44.834 17 66.501s27 36.167 47 43.5z" />
    <glyph glyph-name="hyphen" unicode="-" horiz-adv-x="582" 
d="M63 428c40 7.33301 101.333 10.999 184 10.999c98.667 0 172.667 -3.66699 222 -11c26.667 -4 40 -25.667 40 -65c0 -31.333 -10.333 -55.666 -31 -72.999c-64.667 -6.66699 -149 -10 -253 -10c-72.667 0 -128.667 2.33301 -168 7c-18.667 9.33301 -28 31.333 -28 66
c0 39.333 11.333 64.333 34 75z" />
    <glyph glyph-name="hyphen" unicode="&#x2010;" horiz-adv-x="582" 
d="M63 428c40 7.33301 101.333 10.999 184 10.999c98.667 0 172.667 -3.66699 222 -11c26.667 -4 40 -25.667 40 -65c0 -31.333 -10.333 -55.666 -31 -72.999c-64.667 -6.66699 -149 -10 -253 -10c-72.667 0 -128.667 2.33301 -168 7c-18.667 9.33301 -28 31.333 -28 66
c0 39.333 11.333 64.333 34 75z" />
    <glyph glyph-name="period" unicode="." horiz-adv-x="394" 
d="M161 221c15.333 6 31.667 9.00098 49 9.00098c46 0 82.333 -24.333 109 -73c7.33301 -13.333 11 -29.333 11 -48c0 -39.333 -19 -71 -57 -95c-18 -11.333 -37.333 -17 -58 -17c-34 0 -62.5 11.667 -85.5 35s-34.5 52 -34.5 86c0 51.333 22 85.666 66 102.999z" />
    <glyph glyph-name="slash" unicode="/" horiz-adv-x="551" 
d="M347 710c12 13.333 30.667 20.0029 56 20.0029c28 0 52.667 -7.66699 74 -23c24.667 -17.333 36 -39.333 34 -66c-17.333 -66.667 -65 -173.334 -143 -320.001c-72 -136.667 -131 -236 -177 -298c-21.333 -14 -44.666 -21 -69.999 -21c-26 0 -48 7.33301 -66 22
c-20 15.333 -30 35.666 -30 60.999c0 9.33301 1.66699 19.666 5 30.999c18.667 66 71 176.667 157 332c81.333 146.667 134.666 234 159.999 262z" />
    <glyph glyph-name="zero" unicode="0" horiz-adv-x="610" 
d="M140 668c41.333 35.333 96.668 52.9971 166.001 52.9971s126.333 -17.667 171 -53c52 -78 78 -179 78 -303c0 -123.333 -23.333 -222.666 -70 -297.999c-28.667 -46 -84.334 -69 -167.001 -69c-34 0 -68 5 -102 15c-40 12.667 -68.667 30 -86 52
c-24 30.667 -43 81.334 -57 152.001c-12 58.667 -18 113.334 -18 164.001c0 122 28.333 217.667 85 287zM243.002 376.997c0 -22 4.66699 -42.333 14 -61c12 -23.333 28 -35 48 -35s36 11.667 48 35c9.33301 18.667 14 39 14 61c0 22.667 -4.66699 43.334 -14 62.001
c-12 23.333 -28 35 -48 35s-36 -11.667 -48 -35c-9.33301 -18.667 -14 -39.334 -14 -62.001z" />
    <glyph glyph-name="one" unicode="1" horiz-adv-x="610" 
d="M130 602c-2.66699 4 -4 8.66895 -4 14.002c0 18 11.333 37 34 57c18 16 37.333 28 58 36c35.333 10 73 15 113 15c57.333 0 96 -13 116 -39c24 -31.333 36 -116.666 36 -255.999c0 -163.333 -8 -289 -24 -377c-6.66699 -37.333 -47 -56 -121 -56
c-67.333 0 -105.333 13.667 -114 41c-3.33301 17.333 -5 40.666 -5 69.999c0 41.333 3.5 103.166 10.5 185.499s10.5 144.166 10.5 185.499c0 43.333 -4 71 -12 83c-5.33301 17.333 -14 26 -26 26c-4.66699 0 -11.667 -1.33301 -21 -4s-16.333 -4 -21 -4
c-12.667 0 -22.667 7.66699 -30 23z" />
    <glyph glyph-name="two" unicode="2" horiz-adv-x="610" 
d="M80 586c21.333 44 52.5029 77.998 93.5029 101.998s86.167 36 135.5 36c52.667 0 100 -13 142 -39c46 -28.667 74.333 -67.334 85 -116.001c7.33301 -34 11 -66.667 11 -98c0 -98.667 -44.667 -173 -134 -223c-32.667 -18 -49.334 -29 -50.001 -33
c32.667 8 62.667 12 90 12c24.667 0 44 -3.66699 58 -11c28 -9.33301 42 -39.333 42 -90c0 -52 -11.333 -83.667 -34 -95c-4 -10 -41.333 -17.667 -112 -23c-44.667 -3.33301 -86.334 -5 -125.001 -5c-119.333 0 -188.333 10.333 -207 31c-12.667 30 -19 58.667 -19 86
c0 53.333 24.667 104.333 74 153c21.333 21.333 66.666 56.333 135.999 105c49.333 34.667 74 62.334 74 83.001c0 5.33301 -1 10.333 -3 15c-12 28 -20.333 44 -25 48c-8.66699 8 -28 12 -58 12c-23.333 0 -43 -15.167 -59 -45.5s-35 -46.166 -57 -47.499
c-22.667 -1.33301 -41.667 3.83398 -57 15.501s-23 28.5 -23 50.5c0 21.333 7.33301 47 22 77z" />
    <glyph glyph-name="three" unicode="3" horiz-adv-x="610" 
d="M480 57c-33.333 -38.667 -102.001 -58.001 -206.001 -58.001c-85.333 0 -145 13.333 -179 40c-18.667 14.667 -28 37.334 -28 68.001c0 32.667 8 60 24 82c10 13.333 24.667 20 44 20c14.667 0 37.334 -4.33301 68.001 -13s53.334 -13 68.001 -13c34 0 51 22 51 66
c0 33.333 -14.667 50 -44 50c-10 0 -25.833 -2 -47.5 -6s-37.834 -6 -48.501 -6c-43.333 0 -67.666 26.333 -72.999 79c5.33301 55.333 35.666 83 90.999 83h25c21.333 -0.666992 29.333 -1 24 -1c42 0 61.667 20.333 59 61c-10 38 -29.667 57 -59 57
c-14.667 0 -38 -6.16699 -70 -18.5s-55.333 -18.5 -70 -18.5c-6.66699 0 -12.667 1 -18 3c-18.667 19.333 -28 41.333 -28 66c0 48.667 27.333 83.334 82 104.001c38 14.667 85.667 22 143 22c96.667 0 159.667 -20.667 189 -62c31.333 -44 47 -91 47 -141
c0 -60 -21.333 -104 -64 -132c58 -36.667 87 -89.334 87 -158.001c0 -64.667 -22.333 -122.667 -67 -174z" />
    <glyph glyph-name="four" unicode="4" horiz-adv-x="610" 
d="M400 718c-7.33301 0.666992 -14.999 0.999023 -22.999 0.999023c-88 0 -167.333 -55.333 -238 -166c-63.333 -99.333 -95 -195.666 -95 -288.999c0 -14.667 1 -27.667 3 -39c34.667 -44.667 73 -67 115 -67c12.667 0 30.5 3.66699 53.5 11s39.167 11 48.5 11
c11.333 0 17 -6.33301 17 -19c0 -9.33301 -2.5 -23.666 -7.5 -42.999s-7.5 -34 -7.5 -44c0 -16 2.66699 -31.333 8 -46c4 -10 19 -18 45 -24c19.333 -4.66699 37.333 -7 54 -7c36.667 0 61.667 8 75 24c5.33301 15.333 8 34.666 8 57.999
c0 17.333 -1.66699 37.666 -5 60.999l-4 29c10.667 9.33301 24 14 40 14c3.33301 0 8.66602 -0.333008 15.999 -1s12.666 -1 15.999 -1c9.33301 0 17 2.66699 23 8c16 14.667 24 40.667 24 78c0 45.333 -8.66699 75 -26 89c-8.66699 8.66699 -19.334 13 -32.001 13
c-5.33301 0 -12.666 -1 -21.999 -3s-16.333 -3 -21 -3c-7.33301 0 -11.666 3.66699 -12.999 11c5.33301 62.667 8 116.334 8 161.001c0 123.333 -20 184.333 -60 183zM247.001 388.999c1.33301 9.33301 6.00098 21 14.001 35c9.33301 16.667 17.666 25 24.999 25
c5.33301 0 8.33301 -5 9 -15c-0.666992 10.667 -1 0.666992 -1 -30c0 -19.333 -5.33301 -29 -16 -29c-18.667 0 -25.667 -0.333008 -21 -1c-8 0.666992 -11.333 5.66699 -10 15z" />
    <glyph glyph-name="five" unicode="5" horiz-adv-x="610" 
d="M103 663c9.33301 42.667 70.3311 64.002 182.998 64.002c154 0 231 -39.667 231 -119c0 -18.667 -4.33301 -36.334 -13 -53.001c-15.333 -19.333 -42.666 -29.666 -81.999 -30.999c-7.33301 0 -41.666 2.66699 -102.999 8c-38 3.33301 -61.333 0.666016 -70 -8.00098
c-19.333 0 -29 -17 -29 -51c0 -22.667 6.66699 -37.667 20 -45c8.66699 -4.66699 25.667 -6 51 -4c36.667 2.66699 64 3.33398 82 2.00098c36 -2.66699 69 -11.334 99 -26.001c48 -32 72 -89 72 -171c0 -40 -6.66699 -77.667 -20 -113c-16 -42 -37.833 -71.833 -65.5 -89.5
s-81.5 -26.5 -161.5 -26.5c-104 0 -167.333 10.667 -190 32c-17.333 16 -26 42 -26 78c0 34 6.66699 64 20 90c8.66699 10.667 22.334 16 41.001 16c16.667 0 41 -4.66699 73 -14s56 -14 72 -14c25.333 0 38.666 13 39.999 39c-2.66699 34.667 -30.667 52 -84 52h-31
c-4.66699 0 -10.667 -0.333008 -18 -1h-13c-42 0 -68 9 -78 27c-24.667 44.667 -37 101.667 -37 171s12.333 131.666 37 186.999z" />
    <glyph glyph-name="six" unicode="6" horiz-adv-x="610" 
d="M99 625c16 36.667 47.667 63.998 95 81.998c38 15.333 80.333 23 127 23c130.667 0 196 -43 196 -129c0 -36 -9.66699 -66 -29 -90c-9.33301 -1.33301 -18 -2 -26 -2c-16.667 0 -41 10.333 -73 31c-14 4.66699 -29.333 7 -46 7c-38 0 -69.667 -9.66699 -95 -29
c-20.667 -33.333 -31 -60.333 -31 -81c0 -14 3.66699 -27 11 -39c2.66699 -1.33301 6 -2 10 -2c6 0 24.167 5.16699 54.5 15.5s55.166 15.5 74.499 15.5c36.667 0 76.334 -9.33301 119.001 -28c44.667 -38.667 67 -96 67 -172c0 -33.333 -5 -66.666 -15 -99.999
c-12.667 -41.333 -30 -69.666 -52 -84.999c-42.667 -29.333 -100.667 -44 -174 -44c-108.667 0 -180 32.333 -214 97c-27.333 73.333 -41 168.333 -41 285c0 113.333 14 195 42 245zM297 232.998c0 -32.667 16.667 -47.3311 50 -43.998c14 1.33301 23.333 5.66602 28 12.999
c3.33301 5.33301 5 15.666 5 30.999c0 18 -2.16699 28.5 -6.5 31.5s-15.833 3.83301 -34.5 2.5c-29.333 -2.66699 -44 -13 -44 -31c0 -2 0.333008 -3.66699 1 -5c0.666992 -0.666992 1 0 1 2z" />
    <glyph glyph-name="seven" unicode="7" horiz-adv-x="610" 
d="M87 675c31.333 32.667 98.002 49 200.002 49c40.667 0 82 -3.33301 124 -10c60 -10 96.333 -25 109 -45c23.333 -13.333 35 -46.333 35 -99c0 -68 -18 -160.667 -54 -278c-31.333 -102 -64.333 -189 -99 -261c-10.667 -22.667 -38.667 -34 -84 -34
c-18 0 -39.333 2.66699 -64 8c-30.667 6.66699 -48.667 15.334 -54 26.001c-2.66699 11.333 -4 23 -4 35c0 42.667 14.333 95.334 43 158.001c12 26.667 38 77 78 151c28.667 53.333 43 88.666 43 105.999c0 9.33301 -3.33301 16.666 -10 21.999
c-20.667 16 -46.334 24 -77.001 24c-32 0 -58 -9 -78 -27c-7.33301 -5.33301 -11.333 -16.833 -12 -34.5s-4.33398 -29.5 -11.001 -35.5c-17.333 -15.333 -35 -23 -53 -23c-9.33301 0 -19 2.66699 -29 8c-23.333 12.667 -35 59 -35 139c0 70 10.667 110.333 32 121z" />
    <glyph glyph-name="eight" unicode="8" horiz-adv-x="610" 
d="M118 670c13.333 19.333 41.999 33.667 85.999 43c31.333 7.33301 64.333 11 99 11c95.333 0 155.333 -19.333 180 -58c14 -14.667 25.333 -38.667 34 -72c7.33301 -28 11 -54.333 11 -79c0 -57.333 -18 -101 -54 -131c26 -16 46.667 -41.667 62 -77
c14 -31.333 21 -64 21 -98c0 -54 -15.333 -101 -46 -141c-32.667 -43.333 -96 -65 -190 -65c-38 0 -77 4.66699 -117 14c-49.333 10.667 -84.666 26 -105.999 46c-30.667 44 -46 92.667 -46 146c0 32.667 6.33301 65.334 19 98.001c14 36.667 32.667 63.667 56 81
c-35.333 31.333 -53 75 -53 131c0 59.333 14.667 109.666 44 150.999zM257.999 222.001c0 -25.333 14.999 -37.999 44.999 -37.999c16.667 0 28.334 2.16699 35.001 6.5s10 14.166 10 29.499c0 2.66699 -1 6.66699 -3 12c-6.66699 16.667 -20 25 -40 25
c-31.333 0 -47 -11.667 -47 -35zM257.998 522.002c0 -25.333 15 -38 45 -38s45 12 45 36c0 14.667 -3.16699 24.5 -9.5 29.5s-17.5 7.5 -33.5 7.5c-31.333 0 -47 -11.667 -47 -35z" />
    <glyph glyph-name="nine" unicode="9" horiz-adv-x="610" 
d="M174 22c40 -13.333 77.332 -19.999 111.999 -19.999c93.333 0 161.666 45 204.999 135c33.333 68 50 154 50 258c0 44 -3.66699 89 -11 135c-9.33301 60 -22.666 102 -39.999 126s-45.666 42.333 -84.999 55c-34 11.333 -68.333 17 -103 17c-80 0 -136 -22 -168 -66
c-36.667 -50.667 -55 -107.334 -55 -170.001c0 -64 19.333 -115.667 58 -155c38.667 -24.667 75.667 -37 111 -37c14 0 32.5 3.66699 55.5 11s37.5 11 43.5 11s11 -2 15 -6c6 -8.66699 9 -18.334 9 -29.001c0 -26.667 -12.5 -49.5 -37.5 -68.5s-51.167 -28.5 -78.5 -28.5
c-31.333 0 -60.666 12 -87.999 36c-10.667 4 -20.667 6 -30 6c-17.333 0 -32.333 -6.5 -45 -19.5s-20.334 -28.167 -23.001 -45.5c8 -34.667 13.667 -54.667 17 -60c12.667 -21.333 42 -49.666 88 -84.999zM361.999 522.001c0 -33.333 -11 -51.667 -33 -55
c-16 -2.66699 -26.667 -4 -32 -4c-24 0 -38.667 12.667 -44 38c-1.33301 6.66699 -2 13 -2 19c0 23.333 18.667 39 56 47c13.333 2.66699 25.833 -0.833008 37.5 -10.5s17.5 -21.167 17.5 -34.5z" />
    <glyph glyph-name="colon" unicode=":" horiz-adv-x="378" 
d="M151 631c16.667 6.66699 34.333 10.001 53 10.001c47.333 0 82.333 -24.667 105 -74c7.33301 -16 11 -32 11 -48c0 -39.333 -19 -71 -57 -95c-18 -11.333 -37.333 -17 -58 -17c-34 0 -62.5 11.667 -85.5 35s-34.5 52 -34.5 86c0 51.333 22 85.666 66 102.999z
M150.999 221.001c16.667 6.66699 34.333 10.001 53 10.001c47.333 0 82.333 -24.667 105 -74c7.33301 -16 11 -32 11 -48c0 -39.333 -19 -71 -57 -95c-18 -11.333 -37.333 -17 -58 -17c-34 0 -62.5 11.667 -85.5 35s-34.5 52 -34.5 86c0 51.333 22 85.666 66 102.999z" />
    <glyph glyph-name="semicolon" unicode=";" horiz-adv-x="378" 
d="M202 227c32.667 0 60.168 -10.8311 82.501 -32.498s33.5 -48.5 33.5 -80.5c0.666992 -51.333 -21.333 -104 -66 -158c-40 -48.667 -71.333 -73 -94 -73c-2.66699 0 -4.66699 0.666992 -6 2c-10.667 7.33301 -16 17 -16 29c0 9.33301 4 23.166 12 41.499
s12 30.166 12 35.499c0 2 -0.333008 4 -1 6c-48 21.333 -72 58.333 -72 111c0 24 6 46.333 18 67c19.333 34.667 51.666 52 96.999 52zM151.001 631.002c16.667 6.66699 34.333 10.001 53 10.001c47.333 0 82.333 -24.667 105 -74c7.33301 -16 11 -32 11 -48
c0 -39.333 -19 -71 -57 -95c-18 -11.333 -37.333 -17 -58 -17c-34 0 -62.5 11.667 -85.5 35s-34.5 52 -34.5 86c0 51.333 22 85.666 66 102.999z" />
    <glyph glyph-name="less" unicode="&#x3c;" horiz-adv-x="544" 
d="M305 716c-49.333 -38.667 -100.333 -90.0039 -153 -154.004c-68.667 -83.333 -102.667 -148.666 -102 -195.999c0.666992 -57.333 43 -130 127 -218c81.333 -84.667 151.666 -134 210.999 -148c30 0 56.333 9.83301 79 29.5s34 44.167 34 73.5
c0 18.667 -6.66699 37.334 -20 56.001c-18 25.333 -58.333 62.333 -121 111c-49.333 38.667 -74 70.667 -74 96c0 22 32.667 65 98 129c70 68.667 107.667 111.334 113 128.001c0 34.667 -10.667 61.834 -32 81.501s-49.666 29.5 -84.999 29.5c-26 0 -51 -6 -75 -18z" />
    <glyph glyph-name="equal" unicode="=" horiz-adv-x="578" 
d="M63 538c40 7.33301 101.333 10.999 184 10.999c98.667 0 172.667 -3.66699 222 -11c26.667 -4 40 -25.667 40 -65c0 -31.333 -10.333 -55.666 -31 -72.999c-64.667 -6.66699 -149 -10 -253 -10c-72.667 0 -128.667 2.33301 -168 7c-18.667 9.33301 -28 31.333 -28 66
c0 39.333 11.333 64.333 34 75zM63 327.999c40 7.33301 101.333 10.999 184 10.999c98.667 0 172.667 -3.66699 222 -11c26.667 -4 40 -25.667 40 -65c0 -31.333 -10.333 -55.666 -31 -72.999c-64.667 -6.66699 -149 -10 -253 -10c-72.667 0 -128.667 2.33301 -168 7
c-18.667 9.33301 -28 31.333 -28 66c0 39.333 11.333 64.333 34 75z" />
    <glyph glyph-name="greater" unicode="&#x3e;" horiz-adv-x="548" 
d="M235 716c49.333 -38.667 100.333 -90.0039 153 -154.004c68.667 -83.333 102.667 -148.666 102 -195.999c-0.666992 -57.333 -43 -130 -127 -218c-81.333 -84.667 -151.666 -134 -210.999 -148c-30 0 -56.333 9.83301 -79 29.5s-34 44.167 -34 73.5
c0 18.667 6.66699 37.334 20 56.001c18 25.333 58.333 62.333 121 111c49.333 38.667 74 70.667 74 96c0 22 -32.667 65 -98 129c-70 68.667 -107.667 111.334 -113 128.001c0 34.667 10.667 61.834 32 81.501s49.666 29.5 84.999 29.5c26 0 51 -6 75 -18z" />
    <glyph glyph-name="question" unicode="?" horiz-adv-x="562" 
d="M42 584c16.667 48.667 46.666 85.667 89.999 111c40 23.333 87 35 141 35c48.667 0 94.334 -10 137.001 -30c52 -24 81.667 -57.333 89 -100c7.33301 -21.333 11 -44.666 11 -69.999c0 -41.333 -9 -78.666 -27 -111.999c-19.333 -36.667 -46.666 -63.334 -81.999 -80.001
c-12 -6 -23 -14 -33 -24l-44 -45c-11.333 -24.667 -28.333 -37 -51 -37c-27.333 0 -46.666 13 -57.999 39c-2 5.33301 -4 9.66602 -6 12.999c-5.33301 16.667 -8 32.667 -8 48c0 23.333 9 43 27 59c5.33301 5.33301 24.666 18 57.999 38c37.333 22.667 56 45.667 56 69
c0 13.333 -5.33301 28.333 -16 45c-18 28.667 -43.333 43 -76 43c-48.667 0 -92.334 -24 -131.001 -72c-54 0 -81 16.667 -81 50c0 5.33301 1.33301 12 4 20zM172.999 101c3.33301 58 37.668 86.666 103.001 85.999c44.667 -0.666992 72 -23.667 82 -69
c2 -9.33301 3 -17.666 3 -24.999c0 -28.667 -9.5 -51 -28.5 -67s-43.167 -24 -72.5 -24c-28.667 0 -51.334 11.333 -68.001 34c-14 19.333 -20.333 41 -19 65z" />
    <glyph glyph-name="at" unicode="@" horiz-adv-x="602" 
d="M387 297c18 1.33301 26.998 33.999 26.998 97.999c0 24.667 -2 51.334 -6 80.001c-6 36.667 -13.333 60 -22 70c-11.333 12.667 -45.666 21 -102.999 25c-43.333 2.66699 -76 -1.66602 -98 -12.999c-26.667 -14.667 -42.667 -42 -48 -82
c-0.666992 -4 -2.66699 -44.667 -6 -122c-3.33301 -75.333 7.33398 -128 32.001 -158c32.667 -39.333 97.667 -57 195 -53c13.333 0.666992 34 3.83398 62 9.50098s49 8.5 63 8.5c16 0 28.333 -10 37 -30c6 -14.667 9 -31.334 9 -50.001c0 -34.667 -6.66699 -54 -20 -58
c-54 -15.333 -104.333 -24 -151 -26c-154 -5.33301 -256.667 29.334 -308 104.001c-33.333 48.667 -48.666 133 -45.999 253c2.66699 126 18.667 215 48 267c42 74.667 119 110 231 106c98 -3.33301 165 -30.666 201 -81.999
c29.333 -42.667 44.666 -116.334 45.999 -221.001c2 -144.667 -20.333 -225.334 -67 -242.001c-19.333 -6.66699 -52.333 -10.667 -99 -12c-84.667 -2 -139.667 7 -165 27c-28.667 22 -44 73.667 -46 155c-2 75.333 3 124.666 15 147.999c14 27.333 46 41.333 96 42
c62 0.666992 99.667 -12.333 113 -39c7.33301 -14 11 -58.333 11 -133c0 -44 -0.333008 -68 -1 -72zM255.998 354.999c0 -30 -0.333008 -41.3311 -1 -33.998c1.33301 -15.333 7 -23.333 17 -24c2.66699 -0.666992 6.66699 -1.33398 12 -2.00098c4 0 5.33301 20 4 60
c0 11.333 -0.333008 28.666 -1 51.999c0 8 -5 12 -15 12c-10.667 0 -16 -4 -16 -12v-52z" />
    <glyph glyph-name="A" unicode="A" horiz-adv-x="592" 
d="M111 670c18.667 39.333 70.335 59 155.002 59c32 0 61.667 -4.33301 89 -13c36.667 -10.667 60.334 -27 71.001 -49c23.333 -46 47.666 -141.667 72.999 -287c24.667 -137.333 37 -237.666 37 -300.999c0 -28.667 -3 -45 -9 -49
c-4.66699 -8.66699 -18.334 -16 -41.001 -22c-18.667 -4.66699 -34.667 -7 -48 -7c-32 0 -59 9.66699 -81 29c-20.667 33.333 -33.334 66 -38.001 98c-2.66699 23.333 -7 58 -13 104c-4.66699 19.333 -15.667 29 -33 29c-7.33301 0 -15.333 -2.5 -24 -7.5
s-12.667 -11.167 -12 -18.5c-2 -28 -5.66699 -69.667 -11 -125c-4 -40.667 -13.667 -67.334 -29 -80.001c-22 -18.667 -49.667 -28 -83 -28c-44 0 -76 13 -96 39c-6.66699 6 -10 28.667 -10 68c0 76 9.33301 169 28 279c22 128.667 47 222.667 75 282zM201.001 466
c0 -16 6 -29.167 18 -39.5s26 -15.5 42 -15.5s30.167 5.16699 42.5 15.5s18.5 23.5 18.5 39.5s-6.16699 29.167 -18.5 39.5s-26.5 15.5 -42.5 15.5s-30 -5.16699 -42 -15.5s-18 -23.5 -18 -39.5z" />
    <glyph glyph-name="B" unicode="B" horiz-adv-x="579" 
d="M33 642c-13.333 -33.333 -20.002 -111.333 -20.002 -234c0 -179.333 15.333 -294.333 46 -345c16.667 -27.333 48.334 -45.666 95.001 -54.999c27.333 -5.33301 71.666 -8 132.999 -8c20 0 50.667 6 92 18c44.667 12 72.667 23.667 84 35c38 36 57 81 57 135
c0 47.333 -17 91 -51 131c-37.333 34.667 -75 59.667 -113 75c34 15.333 62 36.333 84 63c24.667 30 37.334 62 38.001 96c0.666992 22 -5 49.333 -17 82c-16.667 45.333 -38 71.666 -64 78.999c-47.333 13.333 -96.666 20 -147.999 20c-45.333 0 -87 -5.66699 -125 -17
c-54.667 -16 -85 -41 -91 -75zM195.998 546c0 14 5.33398 25.833 16.001 35.5s23 14.5 37 14.5s26.5 -4.83301 37.5 -14.5s16.5 -21.5 16.5 -35.5c0 -14.667 -5.33301 -26.834 -16 -36.501s-23.334 -14.5 -38.001 -14.5s-27.167 4.83301 -37.5 14.5
s-15.5 21.834 -15.5 36.501zM205.999 212c0 15.333 4.66504 30.168 13.998 44.501s21.333 21.5 36 21.5s30.334 -7.33301 47.001 -22s25 -29.334 25 -44.001c0 -14 -6.5 -24.833 -19.5 -32.5s-26.833 -11.5 -41.5 -11.5c-15.333 0 -28.666 3.33301 -39.999 10
c-14 8.66699 -21 20 -21 34z" />
    <glyph glyph-name="C" unicode="C" horiz-adv-x="571" 
d="M374 729c-50 -3.33301 -80 -6.00195 -90 -8.00195c-38.667 -7.33301 -77 -24.666 -115 -51.999c-64 -45.333 -115 -108 -153 -188c-8 -23.333 -12 -55.333 -12 -96c0 -44.667 4.66699 -91 14 -139c12 -58.667 28.667 -101 50 -127c24 -29.333 46 -49.666 66 -60.999
c4.66699 -2.66699 36.334 -15.334 95.001 -38.001c42.667 -10.667 75.334 -16 98.001 -16c30 0 60 6.33301 90 19c44 18.667 73.167 37.667 87.5 57s23.166 49.333 26.499 90c1.33301 20 -3.83398 37.5 -15.501 52.5s-27.5 22.5 -47.5 22.5c-12 0 -24 -3 -36 -9
c-34.667 -22 -66.667 -33 -96 -33c-26.667 0 -54.334 9.33301 -83.001 28c-25.333 35.333 -38 78.333 -38 129c0 54 10.333 96.333 31 127c14 20.667 46.333 38 97 52c41.333 11.333 67.333 20 78 26c24.667 14.667 37 36.667 37 66c0 25.333 -7.66699 46.833 -23 64.5
s-35.666 28.834 -60.999 33.501z" />
    <glyph glyph-name="D" unicode="D" horiz-adv-x="595" 
d="M30 461c0 -242 11.998 -380.001 35.998 -414.001c30.667 -31.333 84.334 -47 161.001 -47c42.667 0 84.334 5.66699 125.001 17c51.333 14.667 87 35.334 107 62.001c48.667 64.667 73 145.667 73 243c0 72.667 -12.667 144.667 -38 216c-22.667 64 -46 104.667 -70 122
c-58.667 42 -130.667 63 -216 63c-32 0 -63.333 -4 -94 -12c-42 -10.667 -66.5 -26.5 -73.5 -47.5s-10.5 -88.5 -10.5 -202.5zM223.998 359.999c0 8 -0.666992 20 -2 36s-2 28 -2 36c0 20.667 9.33301 31 28 31c63.333 0 95 -33.333 95 -100c0 -24 -5 -44 -15 -60
c-12 -18.667 -29.333 -28 -52 -28c-24 0 -39.333 8.66699 -46 26c-4 10 -6 29.667 -6 59z" />
    <glyph glyph-name="E" unicode="E" horiz-adv-x="565" 
d="M71 670c26 35.333 88.335 53.001 187.002 53.001c72.667 0 137.667 -12 195 -36c21.333 -27.333 32 -53.333 32 -78c0 -20 -7.66699 -36 -23 -48c-4.66699 -3.33301 -11.334 -5 -20.001 -5c-10 0 -26.833 2.16699 -50.5 6.5s-41.5 6.5 -53.5 6.5
c-25.333 0 -47.333 -5.66699 -66 -17c-21.333 -13.333 -32 -32 -32 -56c0 -21.333 7.33301 -36 22 -44c13.333 -10 43.666 -16.333 90.999 -19c52 -3.33301 83.333 -6.66602 94 -9.99902c16.667 -10.667 25 -29.667 25 -57c0 -20.667 -7.33301 -35.334 -22 -44.001
c-10.667 -2 -24.667 -3 -42 -3h-26c-24 0.666992 -33 1 -27 1c-50 0 -82 -11 -96 -33c3.33301 -78.667 80 -116.334 230 -113.001c25.333 -7.33301 38 -30 38 -68c0 -37.333 -16.333 -63.666 -49 -78.999c-36 -16.667 -94.333 -25 -175 -25
c-131.333 0 -213.333 29.333 -246 88c-25.333 45.333 -38 137.666 -38 276.999c0 154.667 17.333 255.667 52 303z" />
    <glyph glyph-name="F" unicode="F" horiz-adv-x="564" 
d="M56 641c34.667 56 111.335 83.9971 230.002 83.9971c77.333 0 146.333 -12.667 207 -38c22 -27.333 33 -57.666 33 -90.999c0 -24.667 -8 -43 -24 -55c-4.66699 -3.33301 -11.334 -5 -20.001 -5c-12 0 -30.333 2.16699 -55 6.5s-43.334 6.5 -56.001 6.5
c-26.667 0 -49 -5.33301 -67 -16c-22.667 -13.333 -34 -32.333 -34 -57c0 -21.333 7.33301 -36 22 -44c13.333 -10 43.666 -16.333 90.999 -19c52.667 -3.33301 84 -6.66602 94 -9.99902c12 -7.33301 18 -23 18 -47c0 -28.667 -9.66699 -48.667 -29 -60
c-10 -2 -23.667 -3 -41 -3h-27c-24 0.666992 -33 1 -27 1c-49.333 0 -81.333 -11 -96 -33c-0.666992 -7.33301 -1 -14.666 -1 -21.999c0 -18 4.66699 -44.5 14 -79.5s14 -61.5 14 -79.5c0 -10 -1.33301 -20 -4 -30c-8 -30 -41 -45 -99 -45c-55.333 0 -94 20.333 -116 61
c-9.33301 16.667 -22.666 62.667 -39.999 138c-19.333 85.333 -29 164.333 -29 237c0 88 14 154.667 42 200z" />
    <glyph glyph-name="G" unicode="G" horiz-adv-x="587" 
d="M320 729c-144 0 -240.669 -83.0039 -290.002 -249.004c-8 -57.333 -12 -108.666 -12 -153.999c0 -77.333 11.667 -138.666 35 -183.999c38 -44 71 -75 99 -93c50 -32.667 110.667 -49 182 -49c59.333 12 107 41 143 87s54 99.667 54 161c0 26.667 -4 52.667 -12 78
l-42 65c-16 18.667 -37.667 29.667 -65 33c-32 0 -49 -0.333008 -51 -1c-9.33301 -2.66699 -20 -14 -32 -34c-2 -28.667 13.333 -57 46 -85c4 -8 6 -16.667 6 -26c0 -16 -5.33301 -30.333 -16 -43s-23.667 -19 -39 -19c-28 0 -53.333 21.667 -76 65
c-7.33301 14 -11 37 -11 69c0 22.667 2 51.667 6 87c8.66699 38.667 22.334 67.334 41.001 86.001s47.334 30.334 86.001 35.001c57.333 6.66699 86 32 86 76c0 63.333 -46 95 -138 95z" />
    <glyph glyph-name="H" unicode="H" horiz-adv-x="596" 
d="M47 687c18 21.333 48.3281 32 90.9951 32c48.667 0 77.334 -25 86.001 -75c6 -35.333 6.66699 -87.333 2 -156c4.66699 -22 20.334 -33 47.001 -33c28.667 0 47.334 12 56.001 36c1.33301 61.333 2 94 2 98c2 38 6.66699 70 14 96c6.66699 23.333 32.334 35 77.001 35
c38 0 63.333 -9.66699 76 -29c17.333 -65.333 26 -186.666 26 -363.999c0 -92.667 -2.33301 -184 -7 -274c-5.33301 -14.667 -18 -26.334 -38 -35.001c-16.667 -6.66699 -34.334 -10 -53.001 -10c-42.667 0 -68.667 14 -78 42c-7.33301 40.667 -12.666 100 -15.999 178
c-1.33301 25.333 -16.333 38 -45 38c-31.333 0 -47 -13.333 -47 -40c0.666992 -80 -0.666016 -127.667 -3.99902 -143c-12 -51.333 -44 -77 -96 -77c-19.333 0 -38.333 3.33301 -57 10c-24 8.66699 -37 21 -39 37c-12.667 87.333 -19 198.333 -19 333
c0 146.667 7.33301 247 22 301z" />
    <glyph glyph-name="I" unicode="I" horiz-adv-x="302" 
d="M28 685c12 22 41.333 32.999 88 32.999c50.667 0 83 -12.333 97 -37c10.667 -19.333 16 -131.666 16 -336.999c0 -181.333 -4.33301 -286 -13 -314c-9.33301 -22 -41.666 -33 -96.999 -33c-50.667 0 -80.334 10 -89.001 30c-14.667 33.333 -22 152 -22 356
c0 183.333 6.66699 284 20 302z" />
    <glyph glyph-name="J" unicode="J" horiz-adv-x="591" 
d="M263 629c-4.66699 9.33301 -7 18.3311 -7 26.998c0 22 13.667 39.333 41 52c21.333 9.33301 44.666 14 69.999 14c66 0 104.333 -23.333 115 -70c26 -61.333 39 -156.333 39 -285c0 -132.667 -12.667 -223 -38 -271c-49.333 -62.667 -116.333 -94 -201 -94
c-48.667 0 -94 10.333 -136 31c-48 24 -80.667 56.333 -98 97c-16 37.333 -24 67.333 -24 90c0 20.667 6 40.334 18 59.001c12 25.333 35.333 38 70 38c50.667 0 79.334 -27 86.001 -81c9.33301 -16.667 24.333 -25 45 -25c26 0 49 12.667 69 38c17.333 22 26 58 26 108
c0 84.667 -25 175.334 -75 272.001z" />
    <glyph glyph-name="K" unicode="K" horiz-adv-x="587" 
d="M27 696c3.33301 22.667 30.6641 34 81.9971 34c64.667 0 98.334 -17.333 101.001 -52c2 -11.333 3 -25.333 3 -42v-26c-0.666992 -23.333 -1 -32 -1 -26c0 -37.333 8.66699 -60.666 26 -69.999c23.333 -4.66699 43 9.66602 59 42.999l43 96c20 36 43.667 54 71 54
s53.666 -10.167 78.999 -30.5s38 -43.833 38 -70.5c0 -7.33301 -1.33301 -15.333 -4 -24c-11.333 -38 -35.666 -77.667 -72.999 -119c-34 -38 -69.667 -68 -107 -90c37.333 -18 74.666 -50.667 111.999 -98c44.667 -57.333 70.334 -114.666 77.001 -171.999
c2.66699 -26.667 -8.66602 -48.667 -33.999 -66c-22 -14.667 -47 -22 -75 -22c-26 0 -47.333 6.33301 -64 19c-11.333 14.667 -23.666 39 -36.999 73c-16 41.333 -27.333 67 -34 77c-14.667 23.333 -31.667 35 -51 35c-5.33301 0 -11 -0.666992 -17 -2
c-15.333 -9.33301 -23 -27 -23 -53c0 -24.667 7.66699 -61 23 -109c-8 -34.667 -37.667 -52 -89 -52c-28.667 0 -53 6.66699 -73 20c-22 15.333 -33.667 36.666 -35 63.999c-8 184 -12 301 -12 351c0 107.333 5 193.333 15 258z" />
    <glyph glyph-name="L" unicode="L" horiz-adv-x="559" 
d="M22 669c11.333 33.333 45.665 49.9971 102.998 49.9971c56 0 90.667 -14.667 104 -44c5.33301 -19.333 8 -43.333 8 -72c0 -32.667 -5.66699 -81 -17 -145s-17 -112 -17 -144c0 -14.667 1.66699 -26 5 -34c10.667 -46 50.334 -69 119.001 -69
c17.333 0 44.333 2.33301 81 7c31.333 4 56 6.66699 74 8c34.667 2.66699 52 -25.666 52 -84.999c0 -19.333 -3 -39.666 -9 -60.999c-7.33301 -27.333 -17.666 -43.333 -30.999 -48c-53.333 -17.333 -114.333 -26 -183 -26c-121.333 0 -209.333 23.333 -264 70
c-29.333 32.667 -44 119.667 -44 261c0 92.667 6.33301 203.334 19 332.001z" />
    <glyph glyph-name="M" unicode="M" horiz-adv-x="604" 
d="M33 44c-18.667 46 -28.001 158.999 -28.001 338.999c0 138.667 7.33301 232.334 22 281.001c1.33301 20.667 12.333 36.667 33 48c16.667 8.66699 36.334 13 59.001 13c24 0 45 -5.33301 63 -16c21.333 -12 32.333 -29.333 33 -52c12 -29.333 18.333 -44.333 19 -45
c9.33301 -16 22 -24.667 38 -26c18 1.33301 31.667 11 41 29l18 47c0.666992 18 11.667 32.333 33 43c17.333 8.66699 36 13 56 13c52 0 82.333 -20 91 -60c16.667 -76.667 25 -184.334 25 -323.001c0 -126.667 -8.33301 -220.667 -25 -282
c-4 -15.333 -15.667 -27.666 -35 -36.999c-16 -7.33301 -33 -11 -51 -11c-38 0 -65 14 -81 42c-3.33301 10 -5 24.667 -5 44c0 20.667 2.16699 52 6.5 94s6.5 73.333 6.5 94c0 32.667 -5.66699 49.667 -17 51c-4 0 -8.33301 -7 -13 -21
c-5.33301 -17.333 -10.333 -29.666 -15 -36.999c-8.66699 -13.333 -21.334 -20 -38.001 -20c-18 0 -31.5 13 -40.5 39s-15.833 39 -20.5 39c-15.333 -4 -23 -24.333 -23 -61c0 -22 3.33301 -55.167 10 -99.5s10 -77.5 10 -99.5c0 -10.667 -1 -18.334 -3 -23.001
c-15.333 -27.333 -44.666 -41 -87.999 -41c-44 0 -71 12.667 -81 38z" />
    <glyph glyph-name="N" unicode="N" horiz-adv-x="606" 
d="M17 677c-8 -55.333 -11.998 -125.666 -11.998 -210.999c0 -102.667 6.66699 -239.334 20 -410.001c3.33301 -17.333 17.333 -30.333 42 -39c18.667 -7.33301 38.667 -11 60 -11c52.667 0 84.667 15.667 96 47c5.33301 5.33301 8 14 8 26c0 18.667 -6.33301 47.5 -19 86.5
s-19 67.5 -19 85.5c0 14.667 5 22.667 15 24c19.333 -1.33301 40.666 -25.333 63.999 -72l63 -130c5.33301 -20 19.666 -35.667 42.999 -47c20 -10 41.667 -15 65 -15c42.667 0 66.667 12.667 72 38c11.333 52.667 17 166.667 17 342
c0 153.333 -5.66699 249.666 -17 288.999c-12 21.333 -43.667 32 -95 32c-44.667 0 -70.667 -9 -78 -27c-5.33301 -6 -8 -16.667 -8 -32c0 -24.667 6.33301 -61 19 -109s19 -84.333 19 -109c0 -21.333 -6 -33 -18 -35c-20.667 -3.33301 -39 17.334 -55 62.001
c-4.66699 12 -16.667 57 -36 135c-13.333 52 -26.333 84.333 -39 97c-22 21.333 -57 32 -105 32c-63.333 0 -97.333 -16.333 -102 -49z" />
    <glyph glyph-name="O" unicode="O" horiz-adv-x="587" 
d="M187 726c-45.333 -20 -82.333 -65.001 -111 -135.001c-14.667 -36 -32 -97.333 -52 -184c-4 -38 -6 -72 -6 -102c0 -56 7.5 -104.167 22.5 -144.5s40.833 -81.166 77.5 -122.499c41.333 -22.667 87 -34 137 -34c46.667 0 101 10.333 163 31
c45.333 38.667 75 81.667 89 129c12 41.333 17.333 109 16 203c-16 118 -46 204.667 -90 260c-54 66 -136 99 -246 99zM201 343.999c0.666992 18 6 41.667 16 71c12 36 24 54.667 36 56c25.333 2 49 -4.66699 71 -20s33 -35.333 33 -60c0 -36 -4.66699 -62.667 -14 -80
c-12 -23.333 -34.333 -35 -67 -35c-52.667 0 -77.667 22.667 -75 68z" />
    <glyph glyph-name="P" unicode="P" horiz-adv-x="578" 
d="M240 728c74 0 139 -15 195 -45c65.333 -22 97 -88 95 -198c-2 -130 -61.667 -195 -179 -195c-34.667 0 -74 6 -118 18c-6 -2.66699 -9 -8.66699 -9 -18c0 -14 9.16699 -45.5 27.5 -94.5s27.5 -85.5 27.5 -109.5c0 -27.333 -9.66699 -46 -29 -56
c-24 -15.333 -52 -23 -84 -23c-52 0 -89 13.333 -111 40c-12 20 -21.667 75 -29 165c-6 68.667 -9 127 -9 175c0 118 9.33301 197.667 28 239c30 68 95 102 195 102zM230 504c0 -14 6.33203 -25.667 18.999 -35c10.667 -8.66699 23.334 -14 38.001 -16
c40.667 -5.33301 64.667 14.667 72 60c0 26 -28 39 -84 39c-30 0 -45 -16 -45 -48z" />
    <glyph glyph-name="Q" unicode="Q" horiz-adv-x="593" 
d="M171 713c26 9.33301 51.668 13.998 77.001 13.998c55.333 0 111.666 -27.667 168.999 -83c60 -58 90 -150.667 90 -278c0 -58 -6.33301 -109.333 -19 -154c14 -16 30.333 -51 49 -105c0 -48.667 -23.333 -79.667 -70 -93c-33.333 1.33301 -56.333 16.333 -69 45
c-24.667 -41.333 -79.667 -62 -165 -62c-90.667 0 -151.5 24.833 -182.5 74.5s-46.5 111.834 -46.5 186.501c0 34.667 2 69.334 6 104.001c23.333 204 77 321 161 351zM203.001 446.998c0 -32 0.666016 -49.666 1.99902 -52.999c4 -10.667 18.333 -15.334 43 -14.001
c14.667 0.666992 36.334 -2 65.001 -8c3.33301 0 5.33301 3.66699 6 11l3 46c2 30.667 -5 50.667 -21 60c-9.33301 5.33301 -25 8 -47 8s-35 -1.66699 -39 -5c-8 -6 -12 -21 -12 -45zM217 191.999c0 -2 -0.5 -5.16699 -1.5 -9.5s-1.5 -7.5 -1.5 -9.5c0 -6 9.33301 -9 28 -9
c16.667 0 26 0.333008 28 1c6 2 9 9 9 21v21c-2.66699 5.33301 -13 8 -31 8s-28.333 -1.66699 -31 -5v-18z" />
    <glyph glyph-name="R" unicode="R" horiz-adv-x="586" 
d="M23 623c7.33301 32 31.668 57.666 73.001 76.999c36.667 17.333 80.334 26 131.001 26c74 0 138.333 -17.333 193 -52c60.667 -38.667 92.667 -91.667 96 -159c0.666992 -11.333 2 -28.666 4 -51.999c0.666992 -7.33301 -1.33301 -19.666 -6 -36.999l-4 -16
c-6.66699 -26.667 -20.667 -47.334 -42 -62.001c-7.33301 -4.66699 -21.333 -10.667 -42 -18c-12.667 -4.66699 -19 -12 -19 -22c0 -3.33301 0.333008 -7.33301 1 -12c5.33301 -13.333 18.666 -33 39.999 -59c24 -28.667 39.333 -49.667 46 -63
c16 -30.667 24.333 -66 25 -106c0.666992 -22.667 -10.666 -40 -33.999 -52c-18 -9.33301 -39.333 -14 -64 -14c-26.667 0 -48.334 5 -65.001 15c-13.333 10 -23.666 32.333 -30.999 67c-8.66699 42 -16.334 69 -23.001 81c-14 26 -36 38.667 -66 38
c-18 1.33301 -27 -7 -27 -25c0 -12.667 3.5 -31.5 10.5 -56.5s10.5 -43.833 10.5 -56.5s-3 -22.667 -9 -30c-20.667 -26 -51.667 -39 -93 -39c-18.667 0 -37.334 3 -56.001 9c-24 7.33301 -39.333 17.333 -46 30c-18 60.667 -27 160.334 -27 299.001
c0 123.333 8 219.666 24 288.999zM191.002 489.999c0 -17.333 4.66797 -32.167 14.001 -44.5s22.666 -18.5 39.999 -18.5c50.667 0 74.667 21 72 63c-2 32 -25.333 48 -70 48c-37.333 0 -56 -16 -56 -48z" />
    <glyph glyph-name="S" unicode="S" horiz-adv-x="586" 
d="M508 614c-30.667 42 -56.002 69.6641 -76.002 82.9971c-32 21.333 -76 32 -132 32c-74 0 -138.667 -25.667 -194 -77c-56.667 -53.333 -85 -116.666 -85 -189.999c0 -46 13.167 -85.667 39.5 -119s61.833 -54 106.5 -62c34 -6 56.667 -11.667 68 -17
c18 -8 27 -19.667 27 -35c0 -4 -0.666992 -8.66699 -2 -14c-12.667 -12.667 -26.667 -19 -42 -19s-40.166 9.83301 -74.499 29.5s-58.166 29.5 -71.499 29.5c-33.333 0 -55.333 -22.333 -66 -67c-4 -17.333 -6 -45.333 -6 -84c24 -38 63.667 -66.667 119 -86
c44.667 -15.333 94 -23 148 -23c51.333 0 99.333 7.33301 144 22c78 35.333 117 98.333 117 189c0 52 -10.5 92.333 -31.5 121s-56.5 50.334 -106.5 65.001c-86 26 -130 55 -132 87c-2.66699 35.333 16.333 53 57 53c26.667 0 57.667 -10.667 93 -32
c6.66699 -4 13.667 -6 21 -6c20.667 0 40.167 10.333 58.5 31s27.5 41.334 27.5 62.001c0 10 -2.33301 19 -7 27z" />
    <glyph glyph-name="T" unicode="T" horiz-adv-x="586" 
d="M34 712c55.333 10 131.998 15.001 229.998 15.001c90 0 170.333 -5 241 -15c23.333 -10.667 35 -43.667 35 -99c0 -50 -9.66699 -80 -29 -90c-12.667 -16 -29 -24 -49 -24c-10 0 -24.667 3 -44 9s-33.333 9 -42 9c-10 0 -17.333 -3.66699 -22 -11
c-2.66699 -4 -4 -13 -4 -27c0 -42.667 5.5 -106.667 16.5 -192s16.5 -149.333 16.5 -192c0 -36 -4 -57 -12 -63c-26 -20 -63 -30 -111 -30c-46 0 -75 13 -87 39c-7.33301 7.33301 -11 27 -11 59c0 42 6.5 104.833 19.5 188.5s19.5 146.5 19.5 188.5
c0 13.333 -1.33301 21 -4 23c-4.66699 10 -13 15 -25 15c-9.33301 0 -24.666 -2.83301 -45.999 -8.5s-37.666 -8.5 -48.999 -8.5c-16 0 -30.333 3.33301 -43 10c-22 11.333 -33 45 -33 101c0 55.333 11 89.666 33 102.999z" />
    <glyph glyph-name="U" unicode="U" horiz-adv-x="605" 
d="M251 656c-4 -43.333 -9.66406 -91.001 -16.9971 -143.001c-8.66699 -60.667 -13 -106 -13 -136c0 -61.333 18 -92.666 54 -93.999s54 32 54 100c0 33.333 -4.33301 79.666 -13 138.999c-10 68.667 -15.667 112.334 -17 131.001c-2 24.667 8.33301 43.667 31 57
c18.667 10.667 41 16 67 16c28.667 0 54 -6.66699 76 -20c24.667 -14.667 40 -35.334 46 -62.001c10.667 -49.333 16 -106.666 16 -171.999c0 -68.667 -7.66699 -144.334 -23 -227.001c-20 -111.333 -47.667 -177.333 -83 -198c-16.667 -30.667 -69.334 -46 -158.001 -46
c-94.667 0 -148.334 16.333 -161.001 49c-40.667 34.667 -70.334 95.667 -89.001 183c-14 64 -21 133.667 -21 209c0 66 6.66699 131.333 20 196c6.66699 30.667 21.667 53.334 45 68.001s50.333 22 81 22c23.333 0 45.333 -4.33301 66 -13
c26.667 -11.333 40 -27.333 40 -48c0 -2 -0.333008 -5.66699 -1 -11z" />
    <glyph glyph-name="V" unicode="V" horiz-adv-x="595" 
d="M227 654c6.66699 -95.333 11.668 -160.667 15.001 -196c12 -105.333 26 -159 42 -161c13.333 -1.33301 20.333 41 21 127c0.666992 120 3.66699 198.667 9 236c-4 23.333 8 40.666 36 51.999c20 8.66699 43.333 13 70 13c27.333 0 52.333 -4.33301 75 -13
c32 -12 47 -29.667 45 -53c-10 -133.333 -23.667 -253.666 -41 -360.999c-25.333 -154 -53.666 -241.667 -84.999 -263c-28 -23.333 -68 -35 -120 -35c-56.667 0 -98.334 9.66699 -125.001 29c-40.667 30 -80 117 -118 261c-36.667 140 -53.667 258.333 -51 355
c0.666992 24.667 17 44.667 49 60c26 12 53 18 81 18c61.333 0 93.666 -23 96.999 -69z" />
    <glyph glyph-name="W" unicode="W" horiz-adv-x="600" 
d="M0 681c0 -56 7.00098 -157.998 21.001 -305.998c16 -166 31.333 -275 46 -327c4 -14.667 15.667 -25.667 35 -33c15.333 -6.66699 31.666 -10 48.999 -10c26 0 46.667 6 62 18c18 13.333 26 32.666 24 57.999l8 71c4 20 13 31.333 27 34c20.667 -4 33 -39 37 -105
c-0.666992 -23.333 8.33301 -42 27 -56c16 -12.667 36 -19 60 -19c39.333 0 64.333 16 75 48c46 224 69 432 69 624c0 18.667 -13.667 32.334 -41 41.001c-18.667 6 -39.667 9 -63 9c-20.667 0 -39.667 -2.66699 -57 -8c-25.333 -7.33301 -37 -19 -35 -35l9 -76
c3.33301 -30.667 5 -58.334 5 -83.001c0 -41.333 -7.66699 -62.666 -23 -63.999c-4 0 -8.33301 7 -13 21c-5.33301 17.333 -10.333 29.666 -15 36.999c-8.66699 13.333 -21.334 20 -38.001 20c-18 0 -31.5 -13 -40.5 -39s-15.833 -39 -20.5 -39
c-17.333 4.66699 -26 22.667 -26 54c0 15.333 4 45.666 12 90.999c6.66699 38 9.33398 64 8.00098 78c0 30 -32.333 45 -97 45c-23.333 0 -44.333 -3 -63 -9c-28 -8.66699 -42 -22 -42 -40z" />
    <glyph glyph-name="X" unicode="X" horiz-adv-x="585" 
d="M20 625c-0.666992 26.667 11.666 50.6641 36.999 71.9971c24 19.333 49.667 29 77 29c20 0 38.667 -5 56 -15c12.667 -9.33301 29.334 -43.666 50.001 -102.999c18.667 -53.333 34 -80 46 -80c8.66699 0 19.334 25.333 32.001 76c14 58.667 27.333 95 40 109
c18.667 13.333 40 20 64 20c28 0 52.833 -8.5 74.5 -25.5s32.167 -39.167 31.5 -66.5c-0.666992 -42 -11 -83 -31 -123c-10.667 -21.333 -30 -52.333 -58 -93c-22 -32 -34 -54.667 -36 -68c2 -16 21.333 -50 58 -102c34.667 -49.333 55.667 -92 63 -128
c6.66699 -13.333 10 -29 10 -47c0 -25.333 -8.33301 -44.833 -25 -58.5s-38 -20.5 -64 -20.5c-14.667 0 -30.667 2.33301 -48 7c-18.667 -2 -34 13 -46 45l-30 92c-12 34 -25.667 51.333 -41 52c-12.667 0 -26.667 -17.333 -42 -52l-42 -95c-18 -33.333 -39 -50 -63 -50
c-33.333 -0.666992 -61.833 10 -85.5 32s-35.5 49.667 -35.5 83c0 36 15.333 76 46 120l59 72c18.667 22.667 27.667 40.334 27 53.001c-1.33301 14.667 -12.333 37.667 -33 69c-33.333 50 -53 80.667 -59 92c-20.667 38.667 -31.334 73.334 -32.001 104.001z" />
    <glyph glyph-name="Y" unicode="Y" horiz-adv-x="573" 
d="M21 670c0 16.667 14.6641 30.665 43.9971 41.998c23.333 9.33301 45 14 65 14c29.333 0 46.333 -8.66699 51 -26c8.66699 -11.333 16.667 -31 24 -59c8.66699 -32 15.334 -52.667 20.001 -62c10 -20 24.667 -29.667 44 -29c40 2 67.333 51 82 147
c4.66699 18.667 26 28 64 28c24 0 47 -4.66699 69 -14c27.333 -12 41 -28.667 41 -50c-10.667 -109.333 -21.667 -181 -33 -215c-22 -66 -62.667 -106 -122 -120c-3.33301 -7.33301 -5 -18.666 -5 -33.999c0 -22.667 3.16699 -56.667 9.5 -102s9.5 -79.333 9.5 -102
c0 -16.667 -1 -29.334 -3 -38.001c-6.66699 -30.667 -41 -46 -103 -46c-22 0 -45.333 3.33301 -70 10c-33.333 8.66699 -50.666 20.667 -51.999 36c-1.33301 22 1.33398 60.667 8.00098 116c7.33301 59.333 11 98 11 116c0 19.333 -2.33301 33.333 -7 42
c-62 22.667 -103.667 68.334 -125 137.001c-14.667 46.667 -22 116.334 -22 209.001z" />
    <glyph glyph-name="Z" unicode="Z" horiz-adv-x="597" 
d="M28 690c-16.667 -14.667 -25 -43.333 -25 -86c0 -57.333 10.333 -91.333 31 -102c5.33301 -8.66699 15.333 -13 30 -13c17.333 0 44.333 5.5 81 16.5s64.334 16.5 83.001 16.5c26 0 43.333 -9.33301 52 -28c4 -4 6 -8.66699 6 -14c0 -13.333 -27.667 -39 -83 -77
l-106 -69c-46.667 -32.667 -74 -64 -82 -94c-8 -18 -12 -43.667 -12 -77c0 -74 14.667 -117.667 44 -131c31.333 -24.667 95 -37 191 -37c38.667 0 80 2.66699 124 8c57.333 6.66699 96.333 16.334 117 29.001c38.667 14 58 45 58 93c0 20.667 -4 41 -12 61
c-10 23.333 -23.333 38.333 -40 45c-6.66699 4 -16.334 6 -29.001 6c-18 0 -44.5 -4.33301 -79.5 -13s-61.5 -13 -79.5 -13c-16 0 -25.333 4.66699 -28 14c-1.33301 20 34 49.667 106 89c77.333 42 121.666 76 132.999 102c14.667 23.333 22 66.666 22 129.999
c0 60.667 -13 104.667 -39 132c-48 34 -130 51 -246 51c-103.333 0 -175.666 -13 -216.999 -39z" />
    <glyph glyph-name="bracketleft" unicode="[" horiz-adv-x="548" 
d="M303 729l-13.0029 0.00292969c-8 0.666992 -14.333 1 -19 1h-32c-62 0 -106 -18.667 -132 -56c-36.667 -52.667 -55.667 -155.334 -57 -308.001c-0.666992 -94 7 -166.667 23 -218c26 -80 75 -127 147 -141c24 -4.66699 80 -7 168 -7c57.333 0 89 1.66699 95 5
c14 6 21 29.333 21 70c0 7.33301 -0.666992 32.666 -2 75.999c-0.666992 22.667 -13.667 34 -39 34c-9.33301 0 -23.166 -1.16699 -41.499 -3.5s-32.166 -3.5 -41.499 -3.5c-78 0 -114 62 -108 186c-3.33301 57.333 1.66699 99.666 15 126.999c18 36.667 52.667 55 104 55
c-4.66699 0 3.33301 -0.333008 24 -1h22c40 0 60 16.667 60 50c-0.666992 66 -3 103.667 -7 113c-6.66699 15.333 -28 23 -64 23c-13.333 0 -33.666 -0.333008 -60.999 -1s-48 -1 -62 -1z" />
    <glyph glyph-name="backslash" unicode="\" horiz-adv-x="547" 
d="M187 710c-12 13.333 -30.667 20.002 -56 20.002c-27.333 0 -52 -7.66699 -74 -23c-24.667 -17.333 -36 -39.333 -34 -66c17.333 -66.667 65 -173.334 143 -320.001c72 -136.667 131 -236 177 -298c21.333 -14 44.666 -21 69.999 -21c26 0 48.5 7.5 67.5 22.5
s28.5 35.167 28.5 60.5c0 9.33301 -1.66699 19.666 -5 30.999c-18.667 66 -71 176.667 -157 332c-81.333 146.667 -134.666 234 -159.999 262z" />
    <glyph glyph-name="bracketright" unicode="]" horiz-adv-x="560" 
d="M237 729l13.0029 0.00292969c8 0.666992 14.333 1 19 1h32c62 0 106 -18.667 132 -56c36.667 -52.667 55.667 -155.334 57 -308.001c0.666992 -94 -7 -166.667 -23 -218c-26 -80 -75 -127 -147 -141c-24 -4.66699 -80 -7 -168 -7c-57.333 0 -89 1.66699 -95 5
c-14 6 -21 29.333 -21 70c0 7.33301 0.666992 32.666 2 75.999c0.666992 22.667 13.667 34 39 34c9.33301 0 23.166 -1.16699 41.499 -3.5s32.166 -3.5 41.499 -3.5c78 0 114 62 108 186c3.33301 57.333 -1.66699 99.666 -15 126.999c-18 36.667 -52.667 55 -104 55
c4.66699 0 -3.33301 -0.333008 -24 -1h-22c-40 0 -60 16.667 -60 50c0.666992 66 3 103.667 7 113c6.66699 15.333 28 23 64 23c13.333 0 33.666 -0.333008 60.999 -1s48 -1 62 -1z" />
    <glyph glyph-name="asciicircum" unicode="^" horiz-adv-x="573" 
d="M396 669c-48.667 43.333 -88 65.667 -118 67c-38 -2.66699 -82.667 -33 -134 -91c-49.333 -55.333 -77.666 -103 -84.999 -143c0 -20.667 5.66699 -39 17 -55s27 -24 47 -24c11.333 0 21.666 3 30.999 9c14 12.667 36 43 66 91c23.333 37.333 42.666 56 57.999 56
c12 0 34.333 -21.333 67 -64c35.333 -46 58.5 -71.5 69.5 -76.5s22.167 -7.5 33.5 -7.5c18.667 0 32.834 7 42.501 21s14.5 30.667 14.5 50c0 46 -36.333 101.667 -109 167z" />
    <glyph glyph-name="underscore" unicode="_" horiz-adv-x="591" 
d="M73 158c40 7.33301 101.333 10.999 184 10.999c98.667 0 172.667 -3.66699 222 -11c26.667 -4 40 -25.667 40 -65c0 -31.333 -10.333 -55.666 -31 -72.999c-64.667 -6.66699 -149 -10 -253 -10c-72.667 0 -128.667 2.33301 -168 7c-18.667 9.33301 -28 31.333 -28 66
c0 39.333 11.333 64.333 34 75z" />
    <glyph glyph-name="grave" unicode="`" horiz-adv-x="464" 
d="M164 659c0 -36.667 17.667 -71.999 53 -105.999c31.333 -30.667 64.666 -46 99.999 -46c21.333 0 38.833 6.66699 52.5 20s20.5 30.666 20.5 51.999c0 30 -13.667 60.667 -41 92c-39.333 36.667 -78.666 55 -117.999 55c-19.333 0 -35.333 -6.33301 -48 -19
s-19 -28.667 -19 -48z" />
    <glyph glyph-name="a" unicode="a" horiz-adv-x="593" 
d="M53 602c40.667 40 108.332 60.002 202.999 60.002c94 0 160 -22.667 198 -68c27.333 -16 46.666 -67 57.999 -153c7.33301 -54 11 -112.333 11 -175c0 -104 -8.66699 -175.667 -26 -215c-6 -32 -31.333 -48 -76 -48c-35.333 0 -55.333 10.333 -60 31
c-32 -14 -67.333 -21 -106 -21c-82 0 -146.667 21.333 -194 64c-33.333 43.333 -50 93.666 -50 150.999c0 48 14.333 85.333 43 112c38.667 36 83 54 133 54c31.333 0 75.333 -10.333 132 -31c25.333 0 38 14.333 38 43c0 18.667 -6 36.167 -18 52.5s-26.667 27.5 -44 33.5
c-22 7.33301 -44 11 -66 11c-21.333 0 -46.666 -6.66699 -75.999 -20s-48.333 -20 -57 -20c-13.333 0 -27.666 5 -42.999 15c-16.667 23.333 -25 45.666 -25 66.999c0 22 8.33301 41 25 57zM170.998 210.002c0 -16 4.66602 -27 13.999 -33c5.33301 -3.33301 17 -6 35 -8
c19.333 -2 36.333 -0.333008 51 5c18.667 6.66699 28 19 28 37c0 29.333 -23.667 47.333 -71 54c-17.333 2.66699 -31.166 -1.33301 -41.499 -12s-15.5 -25 -15.5 -43z" />
    <glyph glyph-name="b" unicode="b" horiz-adv-x="572" 
d="M47 690c-6.66699 -14 -13.001 -54.3311 -19.001 -120.998s-9 -140.667 -9 -222c0 -136.667 10.667 -228.667 32 -276c11.333 -25.333 41.666 -44 90.999 -56c34.667 -8.66699 71.667 -13 111 -13c44.667 0 86.667 5.33301 126 16c42.667 11.333 71.667 26.333 87 45
c42 50 63 107.333 63 172s-22 116.667 -66 156c-38.667 22 -75.667 33 -111 33c-19.333 0 -43.166 -5.66699 -71.499 -17s-44.5 -17 -48.5 -17c-6 0 -10.667 2.33301 -14 7c-11.333 17.333 -17 42.666 -17 75.999c0 23.333 4.83301 57.666 14.5 102.999
s14.5 79.333 14.5 102c0 6 -0.666992 10.667 -2 14c-6.66699 24.667 -36.667 37 -90 37c-51.333 0 -81.666 -13 -90.999 -39zM213.999 214.002c0 35.333 13.334 55.002 40.001 59.002c17.333 2.66699 30 4 38 4c28 0 45.333 -13.333 52 -40c2 -8 3 -14.667 3 -20
c0 -25.333 -22.333 -42 -67 -50c-14.667 -2.66699 -29.334 0.666016 -44.001 9.99902s-22 21.666 -22 36.999z" />
    <glyph glyph-name="c" unicode="c" horiz-adv-x="574" 
d="M374 623c-48.667 -3.33301 -78.668 -6.00195 -90.001 -8.00195c-44 -8 -82.333 -24.667 -115 -50c-62 -39.333 -113 -99 -153 -179c-6 -22 -9 -46.333 -9 -73c0 -82 20.333 -146.667 61 -194c23.333 -26.667 45.333 -45.667 66 -57c6 -3.33301 37.667 -15.666 95 -36.999
c42.667 -10 75.334 -15 98.001 -15c30.667 0 60.667 6 90 18c43.333 18 72.333 36.167 87 54.5s23.667 46.833 27 85.5c2 20 -3 36.833 -15 50.5s-28 20.5 -48 20.5c-12 0 -24 -2.66699 -36 -8c-34.667 -21.333 -66.667 -32 -96 -32c-26.667 0 -54.334 9 -83.001 27
c-25.333 34.667 -38 65.334 -38 92.001c0 45.333 28.333 82.666 85 111.999c18.667 9.33301 65.667 26 141 50c11.333 11.333 17 27.666 17 48.999c0 24.667 -7.66699 45.334 -23 62.001s-35.666 27.334 -60.999 32.001z" />
    <glyph glyph-name="d" unicode="d" horiz-adv-x="593" 
d="M493 690c6.66699 -14 13.001 -54.3311 19.001 -120.998s9 -140.667 9 -222c0 -136.667 -10.667 -228.667 -32 -276c-11.333 -25.333 -41.666 -44 -90.999 -56c-34.667 -8.66699 -71.667 -13 -111 -13c-44.667 0 -86.667 5.33301 -126 16
c-42.667 11.333 -71.667 26.333 -87 45c-42 50 -63 107.333 -63 172s22 116.667 66 156c38.667 22 75.667 33 111 33c19.333 0 43.166 -5.66699 71.499 -17s44.5 -17 48.5 -17c6 0 10.667 2.33301 14 7c11.333 17.333 17 42.666 17 75.999
c0 23.333 -4.83301 57.666 -14.5 102.999s-14.5 79.333 -14.5 102c0 6 0.666992 10.667 2 14c6.66699 24.667 36.667 37 90 37c51.333 0 81.666 -13 90.999 -39zM326.001 214.002c0 35.333 -13.334 55.002 -40.001 59.002c-17.333 2.66699 -30 4 -38 4
c-28 0 -45.333 -13.333 -52 -40c-2 -8 -3 -14.667 -3 -20c0 -25.333 22.333 -42 67 -50c14.667 -2.66699 29.334 0.666016 44.001 9.99902s22 21.666 22 36.999z" />
    <glyph glyph-name="e" unicode="e" horiz-adv-x="586" 
d="M292 623c-24 -0.666992 -55.0029 -3.00195 -93.0029 -7.00195c-94.667 -21.333 -155.667 -98 -183 -230c-6 -28.667 -9 -53 -9 -73c0 -82 20.333 -146.667 61 -194c23.333 -26.667 45.333 -45.667 66 -57c6 -3.33301 37.667 -15.666 95 -36.999
c42.667 -10 75.334 -15 98.001 -15c30.667 0 60.667 6 90 18c43.333 18 72.333 36.167 87 54.5s23.667 46.833 27 85.5c2 20 -3 36.833 -15 50.5s-28 20.5 -48 20.5c-12 0 -24 -2.66699 -36 -8c-27.333 -17.333 -55.333 -26 -84 -26c-11.333 0 -43 7 -95 21
c-11.333 3.33301 -21.166 9.83301 -29.499 19.5s-12.5 20.167 -12.5 31.5c0 12.667 5.66699 22.334 17 29.001c2 1.33301 5.33301 2 10 2c12.667 0 32.834 -2.83301 60.501 -8.5s48.5 -8.5 62.5 -8.5c78.667 0 125.667 45.333 141 136c0 132.667 -56 199 -168 199
c-1.33301 0 -15.333 -1 -42 -3zM239.997 467.998c0 12 5.33301 21.5 16 28.5s22.334 10.5 35.001 10.5c12 0 23.333 -3.5 34 -10.5s16 -16.5 16 -28.5s-5.33301 -21.5 -16 -28.5s-22 -10.5 -34 -10.5c-12.667 0 -24.334 3.5 -35.001 10.5s-16 16.5 -16 28.5z" />
    <glyph glyph-name="f" unicode="f" horiz-adv-x="584" 
d="M40 510c5.33301 2 11.666 3.00098 18.999 3.00098c8.66699 0 23 -2.16699 43 -6.5s35 -6.5 45 -6.5c14.667 0 28 3.33301 40 10c8 4.66699 10.333 18.667 7 42c-5.33301 37.333 -7.66602 61.666 -6.99902 72.999c3.33301 70.667 49.666 106 138.999 106
c34.667 0 67.667 -7 99 -21c16 -16.667 24.333 -25.667 25 -27c6 -8.66699 9 -18 9 -28c0 -10.667 -3.66699 -27 -11 -49c-20 -10.667 -36.333 -16 -49 -16c-3.33301 0 -8.16602 0.666992 -14.499 2s-11.166 2 -14.499 2c-22.667 0 -34 -12.667 -34 -38
c0 -17.333 5 -31.666 15 -42.999c6 -11.333 30.333 -13.666 73 -6.99902c46.667 6.66699 76 5 88 -5c14.667 -8.66699 22 -30.334 22 -65.001c0 -15.333 -2 -31.666 -6 -48.999c-4.66699 -24 -11.667 -38 -21 -42c-14.667 -6.66699 -42.667 -7.66699 -84 -3
c-36.667 4.66699 -57.334 2.33398 -62.001 -6.99902c-6 -6 -9 -22 -9 -48c0 -24.667 2.5 -61.5 7.5 -110.5s7.5 -85.833 7.5 -110.5c0 -16 -1 -28.667 -3 -38c-8.66699 -18 -37.334 -27 -86.001 -27c-59.333 0 -90.666 12.333 -93.999 37c-5.33301 16.667 -8 39 -8 67
c0 21.333 2.16699 53.166 6.5 95.499s6.5 74.166 6.5 95.499c0 36.667 -12.667 55 -38 55c-10 0 -24.5 -2 -43.5 -6s-33.5 -6 -43.5 -6c-9.33301 0 -17.333 1.66699 -24 5c-24.667 6.66699 -37 34.667 -37 84s12.333 76.666 37 81.999z" />
    <glyph glyph-name="g" unicode="g" horiz-adv-x="599" 
d="M119 -82c49.333 -16.667 94.6641 -25.001 135.997 -25.001c96.667 0 169.667 44.667 219 134c40.667 74 61 165.667 61 275c0 45.333 -4 90 -12 134c-10 59.333 -25.667 100.666 -47 123.999s-55 41.333 -101 54c-37.333 10 -76 15 -116 15
c-88 0 -149.667 -21.333 -185 -64c-42 -51.333 -63 -108.666 -63 -171.999c0 -64.667 22 -116.667 66 -156c38.667 -22 76.334 -33 113.001 -33c21.333 0 48 5.83301 80 17.5s50.333 17.5 55 17.5c6.66699 0 11.667 -2.33301 15 -7c7.33301 -10 11 -21.333 11 -34
c0 -31.333 -16 -58 -48 -80c-29.333 -19.333 -60.333 -29 -93 -29c-35.333 0 -68.333 11.667 -99 35c-11.333 4.66699 -22.333 7 -33 7c-18 0 -34.667 -6.66699 -50 -20s-24.666 -28.666 -27.999 -45.999c8.66699 -33.333 15.334 -53.333 20.001 -60
c14.667 -22.667 47.667 -51.667 99 -87zM335.998 423.999c0 -35.333 -13.334 -55.002 -40.001 -59.002c-17.333 -2.66699 -30 -4 -38 -4c-28 0 -45.333 13.333 -52 40c-2 8 -3 14.667 -3 20c0 25.333 22.333 42 67 50c14.667 2.66699 29.334 -0.666016 44.001 -9.99902
s22 -21.666 22 -36.999z" />
    <glyph glyph-name="h" unicode="h" horiz-adv-x="566" 
d="M34 685c4.66699 29.333 29.666 44.002 74.999 44.002c14 0 31.333 -2.33301 52 -7c26.667 -6 40 -13.667 40 -23c6.66699 -8 10 -23.333 10 -46s-3.5 -56.834 -10.5 -102.501s-10.5 -79.834 -10.5 -102.501c0 -31.333 5.66699 -47 17 -47
c6.66699 0 24.5 4.16699 53.5 12.5s52.5 12.5 70.5 12.5c30.667 0 64.334 -4.33301 101.001 -13c60.667 -22.667 91 -99.334 91 -230.001c0 -82.667 -7 -136.334 -21 -161.001c-6.66699 -15.333 -29 -23 -67 -23c-34 0 -56.833 5.66699 -68.5 17s-17.5 33.333 -17.5 66
c0 10.667 0.833008 26.834 2.5 48.501s2.5 37.834 2.5 48.501c0 49.333 -17.333 74 -52 74c-17.333 0 -40 -5.66699 -68 -17c-14 -3.33301 -21 -21 -21 -53c0 -12 1 -29.5 3 -52.5s3 -40.5 3 -52.5c0 -22 -2.66699 -37.667 -8 -47c-4.66699 -21.333 -31 -32 -79 -32
c-50.667 0 -79 10.667 -85 32c-15.333 206.667 -23 363.667 -23 471c0 78.667 3.33301 139.667 10 183z" />
    <glyph glyph-name="i" unicode="i" horiz-adv-x="298" 
d="M28 425c12 22 41.333 32.999 88 32.999c50.667 0 83 -12.333 97 -37c10.667 -19.333 16 -85.666 16 -198.999c0 -100 -4.33301 -164 -13 -192c-9.33301 -22 -41.666 -33 -96.999 -33c-50.667 0 -80.334 10 -89.001 30c-14.667 33.333 -22 106 -22 218
c0 102 6.66699 162 20 180zM6 622.999c4.66699 72.667 47.332 108.333 127.999 107c30.667 -0.666992 53.334 -7.5 68.001 -20.5s25.667 -34.5 33 -64.5c2.66699 -10.667 4 -21 4 -31c0 -35.333 -11.833 -63 -35.5 -83s-53.5 -30 -89.5 -30c-32 0 -58.5 12.333 -79.5 37
s-30.5 53 -28.5 85z" />
    <glyph glyph-name="j" unicode="j" horiz-adv-x="589" 
d="M333 388c0 20.667 10.999 37.3311 32.999 49.998c18 10.667 38 16 60 16c46 0 73 -20.333 81 -61c16.667 -85.333 25 -163.666 25 -234.999c0 -94 -18.667 -161.667 -56 -203c-38.667 -43.333 -104 -65 -196 -65c-59.333 0 -112 13.333 -158 40
c-50 28.667 -85.333 69.334 -106 122.001c-7.33301 18.667 -11 37 -11 55c0 34.667 18 59 54 73c18.667 5.33301 33.334 8 44.001 8c17.333 0 35.333 -8.66699 54 -26c5.33301 -4.66699 19 -20 41 -46c12 -14 30.333 -21 55 -21c33.333 0 59.333 9.33301 78 28
c17.333 26.667 26 59.667 26 99c0 19.333 -4 47.333 -12 84s-12 64 -12 82zM255.999 622.997c4.66699 72.667 47.332 108.334 127.999 107.001c30.667 -0.666992 53.334 -7.5 68.001 -20.5s25.667 -34.5 33 -64.5c2.66699 -10.667 4 -21.334 4 -32.001
c0 -35.333 -11.833 -62.833 -35.5 -82.5s-53.5 -29.5 -89.5 -29.5c-32 0 -58.5 12.333 -79.5 37s-30.5 53 -28.5 85z" />
    <glyph glyph-name="k" unicode="k" horiz-adv-x="589" 
d="M27 696c3.33301 22.667 30.666 34.001 81.999 34.001c64.667 0 98.334 -17.333 101.001 -52c2 -11.333 3 -28.333 3 -51v-40c0 -5.33301 -0.333008 -13.333 -1 -24v-17c0 -65.333 8.66699 -102.666 26 -111.999c23.333 -4.66699 43 9.66602 59 42.999l43 96
c20 36 43.667 54 71 54s53.666 -10.167 78.999 -30.5s38 -43.833 38 -70.5c0 -7.33301 -1.33301 -15.333 -4 -24c-19.333 -65.333 -69.333 -121.666 -150 -168.999c44 -20.667 80.167 -51.834 108.5 -93.501s45.166 -87.167 50.499 -136.5
c2.66699 -26.667 -8.66602 -48.667 -33.999 -66c-22 -14.667 -47 -22 -75 -22c-26 0 -47.333 6.33301 -64 19c-11.333 14.667 -23.666 39 -36.999 73c-16 41.333 -27.333 67 -34 77c-14.667 23.333 -31.667 35 -51 35c-5.33301 0 -11 -0.666992 -17 -2
c-15.333 -9.33301 -23 -27 -23 -53c0 -24.667 7.66699 -61 23 -109c-8 -34.667 -37.667 -52 -89 -52c-28.667 0 -53 6.66699 -73 20c-22 15.333 -33.667 36.666 -35 63.999c-8 184 -12 301 -12 351c0 107.333 5 193.333 15 258z" />
    <glyph glyph-name="l" unicode="l" horiz-adv-x="407" 
d="M31 669c12 33.333 46.667 50.001 104 50.001c55.333 0 89.666 -14.667 102.999 -44c6 -19.333 9 -43.333 9 -72c0 -32.667 -5.66699 -81 -17 -145s-17 -112 -17 -144c0 -14.667 1.33301 -26 4 -34c-0.666992 -10 -1 -18 -1 -24c0 -46.667 29.333 -68.334 88 -65.001
c40 -1.33301 60 -27.333 60 -78c0 -40 -13.667 -67 -41 -81c-39.333 -20 -79 -30 -119 -30c-61.333 0 -110.666 24.667 -147.999 74c-28.667 38 -43 126 -43 264c0 92 6 201.667 18 329z" />
    <glyph glyph-name="m" unicode="m" horiz-adv-x="603" 
d="M509 27c-10.667 -19.333 -31.9961 -29.002 -63.9961 -29.002c-28 0 -44.667 10.667 -50 32c-8.66699 10 -13 40.667 -13 92v71c0 45.333 -4.33301 67.333 -13 66c-11.333 0.666992 -17 -27.666 -17 -84.999v-15c0.666992 -10 1 -17.667 1 -23v-38
c0 -38 -2.33301 -62.667 -7 -74c-3.33301 -8.66699 -15.333 -15.334 -36 -20.001c-16 -4 -30.667 -6 -44 -6c-35.333 0 -56.333 9.66699 -63 29c-2.66699 8 -4 22 -4 42c0 11.333 0.333008 28.5 1 51.5s1 40.167 1 51.5c0 53.333 -6.66699 80.333 -20 81
c-10.667 0.666992 -16 -34.666 -16 -105.999c0 -35.333 1.33301 -75.333 4 -120c-10.667 -18.667 -32.334 -28 -65.001 -28c-12.667 0 -26.334 2 -41.001 6c-20 5.33301 -30.667 12.666 -32 21.999c-14 94.667 -21 206.334 -21 335.001c0 118.667 7 192.667 21 222
c9.33301 28 35.666 42 78.999 42c40 0 61.667 -10 65 -30l9 -55c-2.66699 23.333 7 43.333 29 60c19.333 14.667 41.333 22 66 22c45.333 0 75.666 -23.667 90.999 -71c10 46 34.333 69 73 69c30.667 0 54 -16 70 -48c12 -49.333 18 -131.666 18 -246.999
c0 -149.333 -7.33301 -249 -22 -299z" />
    <glyph glyph-name="n" unicode="n" horiz-adv-x="603" 
d="M214 40c0.666992 -26 -28.6689 -39 -88.002 -39c-60 0 -92 12 -96 36c-14.667 86.667 -22 191 -22 313c0 124 7.66699 202 23 234c9.33301 28.667 33 43 71 43c16.667 0 31.667 -3.33301 45 -10c16.667 -8 25.667 -19.333 27 -34c0 -8.66699 0.666992 -14 2 -16
c2 -4 7 -6.33301 15 -7c14 -1.33301 26.333 3 37 13c12.667 12.667 26.334 22 41.001 28c25.333 10.667 51 16 77 16c48.667 0 90.834 -16.167 126.501 -48.5s53.167 -72.5 52.5 -120.5c5.33301 -46.667 8 -100.334 8 -161.001c0 -119.333 -8 -206 -24 -260
c-10 -18.667 -39.333 -28 -88 -28c-44 0 -68.667 11 -74 33c-6 6.66699 -9 28.334 -9 65.001c0 15.333 0.5 38.5 1.5 69.5s1.5 54.167 1.5 69.5c0 106 -16.333 156.333 -49 151l-52 -10c-16.667 -3.33301 -26.667 -17.333 -30 -42c-1.33301 -6.66699 -2 -25.667 -2 -57
c0 11.333 2 -68 6 -238z" />
    <glyph glyph-name="o" unicode="o" horiz-adv-x="586" 
d="M184 624c-46 -17.333 -83 -55.667 -111 -115c-14 -30 -31.333 -83 -52 -159c-4 -32.667 -6 -61.667 -6 -87c0 -50.667 7.5 -92.667 22.5 -126s40.833 -68.333 77.5 -105c42 -19.333 88 -29 138 -29c46 0 100 9 162 27c46.667 34 76.667 71 90 111
c11.333 34 16.333 92 15 174c-16.667 107.333 -49.667 185 -99 233c-52.667 50.667 -131.667 76 -237 76zM185 291.999c0.666992 16 6.00098 36.666 16.001 61.999c12 30.667 24 46.334 36 47.001c23.333 1.33301 45.666 -3.66699 66.999 -15
c24.667 -13.333 37 -31.333 37 -54c0 -66 -27 -99 -81 -99c-52 0 -77 19.667 -75 59z" />
    <glyph glyph-name="p" unicode="p" horiz-adv-x="575" 
d="M49 -72c-6.66699 14 -13.001 55.001 -19.001 123.001s-9 143.333 -9 226c0 139.333 10.667 232.666 32 279.999c11.333 25.333 41.666 44 90.999 56c34.667 8.66699 71.667 13 111 13c44.667 0 86.667 -5.33301 126 -16c42.667 -11.333 71.667 -26.333 87 -45
c42 -50 63 -107.333 63 -172s-22 -116.667 -66 -156c-38.667 -22 -75.667 -33 -111 -33c-19.333 0 -43.166 5.66699 -71.499 17s-44.5 17 -48.5 17c-6 0 -10.667 -2.33301 -14 -7c-11.333 -17.333 -17 -43 -17 -77c0 -24 4.83301 -59.833 14.5 -107.5
s14.5 -83.167 14.5 -106.5c0 -6 -0.666992 -10.667 -2 -14c-6.66699 -24.667 -36.667 -37 -90 -37c-51.333 0 -81.666 13 -90.999 39zM215.999 414.001c0 -35.333 13.334 -55.002 40.001 -59.002c17.333 -2.66699 30 -4 38 -4c28 0 45.333 13.333 52 40c2 8 3 14.667 3 20
c0 25.333 -22.333 42 -67 50c-14.667 2.66699 -29.334 -0.666016 -44.001 -9.99902s-22 -21.666 -22 -36.999z" />
    <glyph glyph-name="q" unicode="q" horiz-adv-x="586" 
d="M493 -72c6.66699 14 13.001 55.001 19.001 123.001s9 143.333 9 226c0 139.333 -10.667 232.666 -32 279.999c-11.333 25.333 -41.666 44 -90.999 56c-34.667 8.66699 -71.667 13 -111 13c-44.667 0 -86.667 -5.33301 -126 -16c-42.667 -11.333 -71.667 -26.333 -87 -45
c-42 -50 -63 -107.333 -63 -172s22 -116.667 66 -156c38.667 -22 75.667 -33 111 -33c19.333 0 43.166 5.66699 71.499 17s44.5 17 48.5 17c6 0 10.667 -2.33301 14 -7c11.333 -17.333 17 -43 17 -77c0 -24 -4.83301 -59.833 -14.5 -107.5s-14.5 -83.167 -14.5 -106.5
c0 -6 0.666992 -10.667 2 -14c6.66699 -24.667 36.667 -37 90 -37c51.333 0 81.666 13 90.999 39zM326.001 414.001c0 -35.333 -13.334 -55.002 -40.001 -59.002c-17.333 -2.66699 -30 -4 -38 -4c-28 0 -45.333 13.333 -52 40c-2 8 -3 14.667 -3 20
c0 25.333 22.333 42 67 50c14.667 2.66699 29.334 -0.666016 44.001 -9.99902s22 -21.666 22 -36.999z" />
    <glyph glyph-name="r" unicode="r" horiz-adv-x="570" 
d="M40 590c-20 -26 -29.998 -92.998 -29.998 -200.998c0 -51.333 3.33301 -111.333 10 -180c9.33301 -98.667 22 -152.667 38 -162c10.667 -28 40.667 -42 90 -42c47.333 0 77.666 14 90.999 42c8.66699 7.33301 13 21.333 13 42c0 21.333 -4.33301 53.666 -13 96.999
s-13 75.666 -13 96.999c0 24 4.66699 40.667 14 50c13.333 21.333 50.666 39 111.999 53l147 31c13.333 1.33301 23.666 11 30.999 29c5.33301 14 8 29 8 45c0 21.333 -4 39 -12 53c-10.667 18 -25.667 26.333 -45 25c-15.333 2 -30.666 3 -45.999 3
c-65.333 0 -129.666 -18.333 -192.999 -55c-15.333 -2 -23 1 -23 9l6 31c2.66699 14.667 0.666992 25.667 -6 33c-2.66699 22.667 -28 34 -76 34c-18.667 0 -37.334 -2.33301 -56.001 -7c-26 -6 -41.667 -15 -47 -27z" />
    <glyph glyph-name="s" unicode="s" horiz-adv-x="584" 
d="M508 525c-30.667 35.333 -56.001 58.666 -76.001 69.999c-32 18 -76 27 -132 27c-68 0 -130 -20 -186 -60c-62 -44.667 -93 -99.667 -93 -165c0 -36.667 13 -69 39 -97c27.333 -30 63 -48 107 -54c63.333 -8.66699 95 -23.334 95 -44.001
c0 -3.33301 -0.666992 -7.33301 -2 -12c-12.667 -10.667 -26.667 -16 -42 -16c-16 0 -40.667 8.33301 -74 25s-57.333 25 -72 25c-33.333 0 -55.333 -18 -66 -54c-4 -13.333 -6 -37.666 -6 -72.999c24.667 -32.667 64.334 -57.667 119.001 -75c44 -13.333 91 -20 141 -20
c59.333 0 109.666 7.33301 150.999 22c78 27.333 117 80.333 117 159c0 46 -12 81.333 -36 106c-20.667 21.333 -54.667 38 -102 50c-86 21.333 -130 45.666 -132 72.999c-1.33301 14.667 4.33398 26.334 17.001 35.001c10.667 6.66699 24 10 40 10
c26.667 0 57.667 -9 93 -27c6.66699 -3.33301 13.667 -5 21 -5c19.333 0 38.5 8.33301 57.5 25s28.5 34.334 28.5 53.001c0 8 -2.33301 15.333 -7 22z" />
    <glyph glyph-name="t" unicode="t" horiz-adv-x="585" 
d="M40 426c5.33301 -2 11.001 -3.00195 17.001 -3.00195c8 0 20.167 2.16699 36.5 6.5s28.5 6.5 36.5 6.5c12.667 0 25 -3.33301 37 -10c5.33301 -2.66699 8 -12.667 8 -30c0 -24.667 -3.16699 -61.667 -9.5 -111s-9.5 -86.333 -9.5 -111c0 -40.667 5.33301 -71 16 -91
c28 -52.667 75.333 -79 142 -79c54 0 105.667 13.333 155 40c45.333 24.667 68 57.667 68 99c0 40.667 -17.667 68.334 -53 83.001c-8.66699 2 -16.667 3 -24 3c-14.667 0 -30.167 -5.5 -46.5 -16.5s-28.166 -16.5 -35.499 -16.5c-5.33301 0 -11.666 1.33301 -18.999 4
c-17.333 6.66699 -26 42 -26 106c0 64.667 6 103.667 18 117c6 11.333 30.333 13.666 73 6.99902c46.667 -6.66699 76 -5 88 5c14.667 8.66699 22 30.334 22 65.001c0 15.333 -2 31.666 -6 48.999c-4.66699 24 -11.667 38 -21 42c-14 6.66699 -41 7.33398 -81 2.00098
c-45.333 -6 -68 -0.333008 -68 17c0 -14.667 1.66699 -7.16699 5 22.5s4.66602 49.834 3.99902 60.501c-0.666992 14 -14.334 24.667 -41.001 32c-18 4.66699 -36.667 7 -56 7c-55.333 0 -84 -11.333 -86 -34c-1.33301 -18.667 1.66699 -44.334 9 -77.001
c0 -5.33301 -4 -14 -12 -26c-4.66699 -4 -12.334 -6 -23.001 -6c-10 0 -24.5 1.5 -43.5 4.5s-33.5 4.5 -43.5 4.5c-12.667 0 -23 -2 -31 -6c-24.667 -6.66699 -37 -34.667 -37 -84s12.333 -76.666 37 -81.999z" />
    <glyph glyph-name="u" unicode="u" horiz-adv-x="603" 
d="M251 563c-4 -36.667 -9.66602 -77.668 -16.999 -123.001c-8.66699 -52 -13 -91 -13 -117c0 -52.667 18 -79.667 54 -81s54 27.334 54 86.001c0 28.667 -4.33301 68.667 -13 120c-10 60 -15.667 97.333 -17 112c-2 22 9 38.667 33 50c18.667 8.66699 40.334 13 65.001 13
c27.333 0 52 -5.33301 74 -16c26 -12.667 42 -30.667 48 -54c10.667 -42.667 16 -92 16 -148c0 -60 -7.66699 -125.667 -23 -197c-20.667 -94.667 -48.334 -151 -83.001 -169c-16.667 -26 -69.334 -39 -158.001 -39c-94 0 -147.667 14 -161 42
c-40 28.667 -69.667 80.334 -89 155.001c-14 55.333 -21 116 -21 182c0 57.333 6.66699 113.666 20 168.999c6 26 21.333 45.667 46 59c22 12 48.667 18 80 18c22.667 0 44 -3.33301 64 -10c28 -10 42 -24 42 -42c0 -2 -0.333008 -5.33301 -1 -10z" />
    <glyph glyph-name="v" unicode="v" horiz-adv-x="599" 
d="M227 561l19.998 -198.001c8 -71.333 20.333 -107.666 37 -108.999c13.333 -1.33301 20.333 35 21 109c0.666992 103.333 3.66699 171 9 203c-4 20.667 8.66699 36 38 46c20.667 6.66699 43.334 10 68.001 10c26.667 0 51 -3.33301 73 -10c33.333 -10 49 -25.667 47 -47
c-10 -115.333 -23.667 -219 -41 -311c-13.333 -72 -23 -117.333 -29 -136c-13.333 -40 -32.333 -69 -57 -87c-28.667 -20.667 -70.667 -31 -126 -31c-54 0 -93.333 7.66699 -118 23c-41.333 25.333 -80.666 100 -117.999 224c-36.667 120.667 -53.667 222.667 -51 306
c0.666992 22 18 39.333 52 52c25.333 10 51.333 15 78 15c24 0 44.667 -4 62 -12c23.333 -10 35 -25.667 35 -47z" />
    <glyph glyph-name="w" unicode="w" horiz-adv-x="607" 
d="M0 571c0 -49.333 7.00195 -134.667 21.002 -256c14.667 -126 30 -218.333 46 -277c7.33301 -26 33.666 -39 78.999 -39c26 0 47.333 5.33301 64 16c21.333 12.667 30.333 31.334 27 56.001l8 71c4 20 13 31.333 27 34c20.667 -4 33 -39 37 -105
c-0.666992 -22 7.66602 -39.5 24.999 -52.5s37.333 -19.5 60 -19.5c40 0 65.667 15 77 45c46 223.333 69 398 69 524c0 18.667 -13.667 32.334 -41 41.001c-18.667 6 -39.667 9 -63 9c-20.667 0 -39.667 -2.66699 -57 -8c-25.333 -7.33301 -37 -19 -35 -35l9 -76
c3.33301 -30.667 5 -58.334 5 -83.001c0 -41.333 -7.66699 -62.666 -23 -63.999c-4 0 -8.33301 7 -13 21c-5.33301 17.333 -10.333 29.666 -15 36.999c-8.66699 13.333 -21.334 20 -38.001 20c-18 0 -31.5 -13 -40.5 -39s-15.833 -39 -20.5 -39
c-17.333 4.66699 -26 22.667 -26 54c0 15.333 4 45.666 12 90.999c6.66699 38 9.33398 64 8.00098 78c0 30 -32.333 45 -97 45c-23.333 0 -44.333 -3 -63 -9c-28 -8.66699 -42 -22 -42 -40z" />
    <glyph glyph-name="x" unicode="x" horiz-adv-x="587" 
d="M17 535c-0.666992 24 12.667 44.666 40 61.999c24 15.333 48.667 23 74 23c20 0 38.667 -4.33301 56 -13c12.667 -8 29.334 -36.667 50.001 -86c19.333 -44.667 34.666 -67 45.999 -67c8.66699 0 19.334 21.333 32.001 64c14 48.667 27.333 79 40 91
c18.667 11.333 40 17 64 17c26 0 49.333 -6.33301 70 -19c24.667 -14.667 36.667 -34.334 36 -59.001c-0.666992 -34 -11 -69 -31 -105c-12 -21.333 -31.333 -49.333 -58 -84c-22 -28.667 -34 -48.334 -36 -59.001c2 -11.333 21.5 -40 58.5 -86s57.833 -81.667 62.5 -107
c6 -13.333 9 -25.666 9 -36.999c0 -23.333 -10.333 -41 -31 -53c-16.667 -10 -37.334 -15 -62.001 -15c-13.333 0 -27.666 1.66699 -42.999 5c-19.333 0.666992 -35 14.667 -47 42l-27 68c-14 31.333 -28.333 47.333 -43 48c-12.667 0 -26.667 -14.333 -42 -43l-42 -80
c-18 -28 -39 -42 -63 -42c-31.333 -0.666992 -58.666 7.33301 -81.999 24c-26 18.667 -39 43 -39 73c0 26.667 11.667 55.334 35 86.001c8 10.667 29.667 34 65 70c22 22.667 32.667 39 32 49c-0.666992 8.66699 -21.334 41.834 -62.001 99.501
s-61.334 102.167 -62.001 133.5z" />
    <glyph glyph-name="y" unicode="y" horiz-adv-x="575" 
d="M2 566c0 20.667 16.3359 36.666 49.0029 47.999c24.667 8 49.667 12 75 12c51.333 0 78.666 -12.333 81.999 -37c5.33301 -36.667 10.666 -69 15.999 -97c7.33301 -38.667 22.333 -60.334 45 -65.001c24 0 40 20.333 48 61c3.33301 22 9 55 17 99
c6.66699 23.333 36 35 88 35c26 0 49 -4.66699 69 -14c27.333 -12 40.333 -29.333 39 -52c-2 -37.333 -13.333 -82 -34 -134c-16.667 -42 -44.334 -100.667 -83.001 -176l-103 -197c-57.333 -104 -110 -154.667 -158 -152c-43.333 2 -76.333 14.333 -99 37
c-14.667 14.667 -22 28.334 -22 41.001c0 30.667 28.667 88.334 86 173.001c40.667 60 61 93.667 61 101c0 2.66699 -1.33301 4.66699 -4 6c-60 22 -105.667 70.667 -137 146c-23.333 56 -35 111 -35 165z" />
    <glyph glyph-name="z" unicode="z" horiz-adv-x="595" 
d="M28 594c-16.667 -12.667 -24.998 -37.335 -24.998 -74.002c0 -49.333 10.333 -78.666 31 -87.999c5.33301 -7.33301 15.333 -11 30 -11c18 0 45.167 4.83301 81.5 14.5s63.833 14.5 82.5 14.5c26 0 43.333 -8.33301 52 -25c4 -3.33301 6 -7 6 -11
c0 -12 -28 -34.333 -84 -67l-105 -59c-46.667 -28 -74 -55 -82 -81c-8 -15.333 -12 -37.333 -12 -66c0 -64 14.667 -101.667 44 -113c38 -18.667 107 -28 207 -28c115.333 0 190.333 9.33301 225 28c38.667 12 58 38.667 58 80c0 18.667 -4.33301 36.334 -13 53.001
c-10 19.333 -23 32 -39 38c-6.66699 4 -16.334 6 -29.001 6c-18 0 -44.5 -3.83301 -79.5 -11.5s-61.5 -11.5 -79.5 -11.5c-16 0 -25.333 4 -28 12c-1.33301 18 34 43.667 106 77c77.333 36 121.666 65 132.999 87c14.667 20 22 57.333 22 112c0 52 -13 90 -39 114
c-46.667 28 -127 42 -241 42c-104 0 -178 -10.667 -222 -32z" />
    <glyph glyph-name="braceleft" unicode="{" horiz-adv-x="523" 
d="M281 729c-114 -18 -171.002 -63.668 -171.002 -137.001c0 -30 10.667 -61.333 32 -94c-0.666992 -21.333 -12.667 -44.666 -36 -69.999s-35 -47.333 -35 -66c0 -12.667 12.333 -33 37 -61s35.334 -52.667 32.001 -74c-26.667 -34.667 -40 -66.667 -40 -96
c0 -43.333 27.333 -76.666 82 -99.999c42 -18 88.333 -27 139 -27c39.333 0 73.333 6.33301 102 19c38.667 16.667 58 42 58 76c0 9.33301 -1.66699 19.333 -5 30c-6.66699 21.333 -25.334 32 -56.001 32c-12 0 -29.5 -2 -52.5 -6s-40.167 -6 -51.5 -6
c-18 0 -27 6.33301 -27 19c0 11.333 7 28.666 21 51.999c-0.666992 26.667 -8.66699 49 -24 67l-43 37c-14.667 12.667 -22 27 -22 43c0.666992 20.667 8.33398 38 23.001 52c9.33301 8.66699 23.666 21.334 42.999 38.001c16 18.667 25 42 27 70
c-4.66699 15.333 -7 27.666 -7 36.999c0 17.333 9.33301 26 28 26c8.66699 0 21.834 -1.66699 39.501 -5s30.834 -5 39.501 -5c25.333 0 41.333 10 48 30c4 12 6 23.667 6 35c0 31.333 -16.333 55 -49 71c-24.667 11.333 -54.667 17 -90 17
c-15.333 0 -31.333 -1.33301 -48 -4z" />
    <glyph glyph-name="bar" unicode="|" horiz-adv-x="302" 
d="M28 715c2 14 32 21 90 21c55.333 0 87 -8.33301 95 -25c10.667 -22 16 -139.333 16 -352c0 -193.333 -4.33301 -303 -13 -329c-7.33301 -22 -39.333 -33 -96 -33c-51.333 0 -81.333 10 -90 30c-14.667 33.333 -22 157.333 -22 372c0 192.667 6.66699 298 20 316z" />
    <glyph glyph-name="braceright" unicode="}" horiz-adv-x="516" 
d="M243 729c114 -18 171.002 -63.668 171.002 -137.001c0 -30 -10.667 -61.333 -32 -94c0.666992 -21.333 12.667 -44.666 36 -69.999s35 -47.333 35 -66c0 -12.667 -12.333 -33 -37 -61s-35.334 -52.667 -32.001 -74c26.667 -34.667 40 -66.667 40 -96
c0 -43.333 -27.333 -76.666 -82 -99.999c-42 -18 -88.333 -27 -139 -27c-39.333 0 -73.333 6.33301 -102 19c-38.667 16.667 -58 42 -58 76c0 9.33301 1.66699 19.333 5 30c6.66699 21.333 25.334 32 56.001 32c12 0 29.5 -2 52.5 -6s40.167 -6 51.5 -6
c18 0 27 6.33301 27 19c0 11.333 -7 28.666 -21 51.999c0.666992 26.667 8.66699 49 24 67l43 37c14.667 12.667 22 27 22 43c-0.666992 20.667 -8.33398 38 -23.001 52c-9.33301 8.66699 -23.666 21.334 -42.999 38.001c-16 18.667 -25 42 -27 70
c4.66699 15.333 7 27.666 7 36.999c0 17.333 -9.33301 26 -28 26c-8.66699 0 -21.834 -1.66699 -39.501 -5s-30.834 -5 -39.501 -5c-25.333 0 -41.333 10 -48 30c-4 12 -6 23.667 -6 35c0 31.333 16.333 55 49 71c24.667 11.333 54.667 17 90 17
c15.333 0 31.333 -1.33301 48 -4z" />
    <glyph glyph-name="asciitilde" unicode="~" horiz-adv-x="590" 
d="M185 562c-10.667 -2.66699 -21.667 -9.66602 -33 -20.999l-18 -23c-20 -22.667 -41.333 -34 -64 -34c-17.333 0 -30.833 6.66699 -40.5 20s-14.5 29 -14.5 47c0 38 19.333 79.333 58 124c11.333 13.333 28.166 25.666 50.499 36.999s41.833 17 58.5 17
c40.667 0 69.667 -7 87 -21c3.33301 -2.66699 13 -16 29 -40c9.33301 -14 24.666 -21.333 45.999 -22c14 0 27 8.33301 39 25c8.66699 12.667 18.334 26 29.001 40c14.667 11.333 30.334 17 47.001 17c20 0 36.667 -7.5 50 -22.5s20 -32.833 20 -53.5
s-6.66699 -41.334 -20 -62.001c-21.333 -33.333 -41.666 -57.333 -60.999 -72c-28.667 -22 -64 -33.667 -106 -35c-30.667 -1.33301 -56 5.33398 -76 20.001c-4.66699 3.33301 -18 17 -40 41c-12.667 14 -26.334 20 -41.001 18z" />
    <glyph glyph-name="nonbreakingspace" unicode="&#xa0;" 
 />
    <glyph glyph-name="exclamdown" unicode="&#xa1;" horiz-adv-x="281" 
d="M211 49c-14.667 -32 -46.667 -47.999 -96 -47.999c-22 0 -41.333 4 -58 12c-22 10 -34 24.667 -36 44c-4 7.33301 -6 22.666 -6 45.999c0 40.667 5.66699 100.667 17 180c12.667 88 25.5 145.167 38.5 171.5s29.5 39.5 49.5 39.5c19.333 0 35.5 -14.667 48.5 -44
s25.167 -85 36.5 -167c10 -72.667 15 -130.667 15 -174c0 -32 -3 -52 -9 -60zM216 630.001c-4 -58.667 -38.667 -87.668 -104 -87.001c-24.667 0.666992 -43 6.33398 -55 17.001s-21 28 -27 52c-2 8.66699 -3 17 -3 25c0 28.667 9.5 51 28.5 67s43.167 24 72.5 24
c26 0 47.667 -9.83301 65 -29.5s25 -42.5 23 -68.5z" />
    <glyph glyph-name="cent" unicode="&#xa2;" horiz-adv-x="596" 
d="M149 85c0 8.66699 2.33398 29.0029 7.00098 61.0029c1.33301 11.333 3.33301 23.666 6 36.999c1.33301 4.66699 4 7 8 7c6 0 8.66699 -3.33301 8 -10c-0.666992 -7.33301 -3.33398 -28.333 -8.00098 -63c-2.66699 -23.333 -3.33398 -44.333 -2.00098 -63
c6 -24.667 20 -37 42 -37c26 0 49.667 12.667 71 38c5.33301 6.66699 11.333 18 18 34s12 27 16 33c2 2.66699 4.66699 4 8 4c5.33301 0 8 -3 8 -9c0 -1.33301 -0.333008 -3 -1 -5c-17.333 -27.333 -27.666 -55.333 -30.999 -84
c0.666992 -3.33301 6.33398 -5.33301 17.001 -6c62.667 -2.66699 116.334 -0.333984 161.001 6.99902c20.667 3.33301 36.667 11.666 48 24.999c9.33301 16 14 29.333 14 40c0 5.33301 -5.66699 16.333 -17 33c-13.333 19.333 -22 38.666 -26 57.999
c-7.33301 35.333 -14.333 58.333 -21 69c-22 36.667 -46.667 53 -74 49c-22 -3.33301 -33.333 0.666992 -34 12c-4 61.333 -24 103 -60 125c-2.66699 2 -4 4.33301 -4 7c2 56.667 2.66699 93.334 2 110.001c-1.33301 46.667 -8 82.334 -20 107.001
c-6.66699 14 -19.667 21 -39 21c-28.667 0 -43 -15.667 -43 -47v-170c0 -6 -2.66699 -9 -8 -9s-8.33301 3 -9 9c0 52.667 -2.33301 105 -7 157c-2 24.667 -8.33301 41.334 -19 50.001c-6.66699 4.66699 -16.667 7 -30 7c-28.667 0 -47 -18.333 -55 -55
c-3.33301 -14.667 -5.33301 -44.334 -6 -89.001c-0.666992 -67.333 -1.33398 -101.666 -2.00098 -102.999c-30 -47.333 -45 -86 -45 -116c0 -23.333 4.33301 -43.666 13 -60.999c12.667 -24.667 20 -41.334 22 -50.001l1 -2c0 -2.66699 -0.666992 -6.33398 -2 -11.001
s-2 -8.33398 -2 -11.001v-67c0.666992 -26.667 3 -48.334 7 -65.001l9 -18c5.33301 -4 11.666 -6 18.999 -6c14 0 27 6.33301 39 19c10 10.667 17 23.334 21 38.001zM189.001 658.003c8 29.333 26.999 43.999 56.999 43.999c26.667 0 45 -10.333 55 -31
c16.667 -35.333 23.334 -108.333 20.001 -219c37.333 -25.333 58.333 -70 63 -134c5.33301 1.33301 13.666 2.33301 24.999 3c52.667 -6.66699 86.334 -46 101.001 -118c0.666992 -2 6 -21.667 16 -59v1c4 -3.33301 9.33301 -8.66602 16 -15.999c10 -8 15 -19.333 15 -34
c0 -16 -6 -32.667 -18 -50v-1c-11.333 -16.667 -31 -27.334 -59 -32.001c-38 -6 -79.333 -9 -124 -9c-49.333 0 -74 8.33301 -74 25v4c-22.667 -21.333 -47.334 -32 -74.001 -32c-31.333 0 -50 15.667 -56 47c-17.333 -24.667 -40.333 -37 -69 -37
c-13.333 0 -22.333 4.66699 -27 14l-11 22l-1 1c-4.66699 21.333 -7 67 -7 137c0 2.66699 0.5 6.16699 1.5 10.5s1.5 7.83301 1.5 10.5c-1.33301 6.66699 -8.66602 23 -21.999 49c-8.66699 17.333 -13 39 -13 65c0 32.667 15.333 74 46 124
c0 26.667 0.333008 66.334 1 119.001c1.33301 56.667 8.83301 93.667 22.5 111s32.167 26 55.5 26c30 0 49.667 -13.667 59 -41zM172 318.002c0 8.66699 5 15.333 15 20h4c1.33301 0 3 0.333008 5 1h5c13.333 0 19 -8 17 -24c-2 -14.667 -10.333 -22 -25 -22
c-14 0 -21 8.33301 -21 25zM201 322.001c-2 0 -4.16699 -0.667969 -6.5 -2.00098s-3.5 -2.66602 -3.5 -3.99902s0.333008 -2.66602 1 -3.99902l2 -2c4 1.33301 6.33301 3.66602 7 6.99902v5zM337 335c5.33301 0 7.99902 -3.00098 7.99902 -9.00098
c0 -5.33301 -2.66699 -8 -8 -8c-9.33301 0 -16.666 -1 -21.999 -3c-8 -3.33301 -12 -0.666016 -12 8.00098c0 8 11.333 12 34 12zM163.999 283.999c15.333 -11.333 29.002 -17 41.002 -17c7.33301 0 12.666 1.66699 15.999 5l10 10l4 3c5.33301 4 9.66602 7.66699 12.999 11
c6 0 9 -2.66699 9 -8c0 -4.66699 -5.33301 -11 -16 -19c-7.33301 -12.667 -19 -19 -35 -19s-33.333 6.66699 -52 20c-2.66699 1.33301 -4 3.33301 -4 6c0 6 3 9 9 9c2 0 3.66699 -0.333008 5 -1zM56.001 320.999h32c6 0 9 -3 9 -9c0 -5.33301 -3 -8 -9 -8h-32
c-5.33301 0 -8 2.66699 -8 8c0 6 2.66699 9 8 9zM63.001 295.999h29c5.33301 0 8 -3 8 -9c0 -5.33301 -2.66699 -8 -8 -8h-29c-5.33301 0 -8 2.66699 -8 8c0 6 2.66699 9 8 9zM315.001 313.999h18c6 0 9 -3 9 -9s-3 -9 -9 -9h-18c-5.33301 0 -8 3 -8 9s2.66699 9 8 9z
M319.001 291.999h21c6 0 9 -2.66699 9 -8c0 -6 -3 -9 -9 -9h-21c-6 0 -9 3 -9 9c0 5.33301 3 8 9 8zM67.001 266.999h28c6 0 9 -2.66699 9 -8c0 -6 -3 -9 -9 -9h-28c-6 0 -9 3 -9 9c0 5.33301 3 8 9 8zM255.001 364.999c0 4.66699 -1.66699 7 -5 7s-5 -2.33301 -5 -7
c0 -4 1.66699 -6 5 -6s5 2 5 6zM272.001 364.999c0 -16 -7.33301 -24 -22 -24s-22 8 -22 24s7.33301 24 22 24s22 -8 22 -24zM151.001 363.999c0 4.66699 -1.66699 7 -5 7c-2.66699 0 -4 -2.33301 -4 -7s1.33301 -7 4 -7c3.33301 0 5 2.33301 5 7zM168.001 363.999
c0 -16 -7.33301 -24 -22 -24s-22 8 -22 24s7.33301 24 22 24s22 -8 22 -24zM256.001 613.999v-140c0 -5.33301 -2.66699 -8 -8 -8c-6 0 -9 2.66699 -9 8v140c0 6 3 9 9 9c5.33301 0 8 -3 8 -9zM131.001 609.999v-139c0 -6 -3 -9 -9 -9c-5.33301 0 -8 3 -8 9v139
c0 6 2.66699 9 8 9c6 0 9 -3 9 -9z" />
    <glyph glyph-name="sterling" unicode="&#xa3;" horiz-adv-x="552" 
d="M116 16c-20.667 -10.667 -34.667 -15.998 -42 -15.998c-4 0 -7.66699 0.666992 -11 2h-1c-25.333 6.66699 -42.666 23.667 -51.999 51v1c-8 24.667 -12 51 -12 79c0 40 14.333 115.667 43 227c1.33301 6 -3.33398 19 -14.001 39c-12.667 21.333 -19.667 35.333 -21 42v1
c-2 13.333 -3 28 -3 44c0 62 12 115.333 36 160c12 22.667 28 35 48 37c14.667 0 28.5 -11.667 41.5 -35s21.167 -35 24.5 -35c-4.66699 0 1.66602 0.333008 18.999 1c16.667 3.33301 36.667 8.33301 60 15c4 1.33301 10.167 12.333 18.5 33s19.833 31 34.5 31
c10.667 0 23.334 -12.333 38.001 -37c36 -60.667 54 -118.334 54 -173.001c0 -24.667 -4 -48.334 -12 -71.001c64.667 -42.667 104 -98.667 118 -168c11.333 -57.333 17 -95.333 17 -114c0 -86.667 -47 -130 -141 -130c-9.33301 -0 -23.5 0.333008 -42.5 1
s-33.167 1 -42.5 1c-6 -0.666992 -13.333 3.33301 -22 12l-2 2c-32 -17.333 -61.667 -26 -89 -26c-19.333 0 -34 8 -44 24zM139 159.002c-3.33301 -14 -5 -35.8281 -5 -65.4951s-1.66699 -51.834 -5 -66.501c2 -3.33301 5 -7.66602 9 -12.999c9.33301 -4 19.333 -6 30 -6
c22 0 47.667 8.33301 77 25c2 1.33301 4 2 6 2c0 10 8.66699 33.667 26 71c1.33301 4.66699 4.83301 9.66699 10.5 15s10.834 8 15.501 8c5.33301 0 8 -3 8 -9c0 -2.66699 -2.83301 -5.83398 -8.5 -9.50098s-8.83398 -6.83398 -9.50098 -9.50098v-2
c-18.667 -34.667 -27 -58.667 -25 -72c0.666992 -2 0.666992 -3.66699 0 -5c2 -2 3.66699 -3 5 -3c9.33301 0 23.333 -0.333008 42 -1s32.667 -1 42 -1c84 0 126 37.667 126 113c0 16 -5.66699 52.667 -17 110c-13.333 67.333 -52 121 -116 161c-4 2.66699 -5 6 -3 10
c8.66699 22.667 13 46.667 13 72c0 52.667 -19.333 111 -58 175c-7.33301 12 -13.666 18 -18.999 18c-4.66699 0 -10 -6.66699 -16 -20c-3.33301 -8.66699 -7 -17.334 -11 -26.001s-10 -14.334 -18 -17.001c-14 -4.66699 -35 -10 -63 -16h-2
c-2.66699 0 -6.33398 -0.333008 -11.001 -1c-4 -0.666992 -7.33301 -0.666992 -10 0c-11.333 0.666992 -22.833 12.5 -34.5 35.5s-21.5 34.5 -29.5 34.5c-20.667 -2 -38.667 -29.333 -54 -82c-11.333 -40 -15 -86.667 -11 -140c1.33301 -6 8.66602 -20.333 21.999 -43
c11.333 -18.667 15.666 -33.667 12.999 -45l-27 -111c-9.33301 -44 -14 -81.667 -14 -113c0 -26 3 -50.333 9 -73c8.66699 -20.667 22.334 -34.334 41.001 -41.001c6.66699 -1.33301 21.667 4 45 16c0 54.667 3.33301 97.667 10 129c0.666992 4 3.33398 6 8.00098 6
c7.33301 0 10.333 -3.33301 9 -10zM174 466.007c5.33301 11.333 12.333 17 21 17c6.66699 0 12.5 -3 17.5 -9s7.5 -12.333 7.5 -19c0 -6 -2.66699 -11.667 -8 -17s-11 -8 -17 -8c-16 0 -24 8.33301 -24 25c0 4 1 7.66699 3 11zM189 458.007
c-0.666992 -1.33301 -1 -2.66699 -1 -4c0 -2 1 -4 3 -6c5.33301 -1.33301 9.33301 1 12 7c0 4.66699 -2.33301 8.33398 -7 11.001c-2.66699 -0.666992 -5 -3.33398 -7 -8.00098zM204 405.006c7.33301 0 14.334 3.66699 21.001 11c4.66699 4.66699 7 8 7 10
c0 5.33301 3 8 9 8c5.33301 0 8 -2.66699 8 -8c0 -6.66699 -3.5 -13.667 -10.5 -21s-13.5 -12 -19.5 -14s-11 -3 -15 -3c-8.66699 0 -21.334 5.66699 -38.001 17c-2.66699 2 -4 4.33301 -4 7c0 6 3 9 9 9c1.33301 0 5.83301 -2.66699 13.5 -8s14.167 -8 19.5 -8z
M63.001 459.006h33c5.33301 0 8 -2.66699 8 -8c0 -6 -2.66699 -9 -8 -9h-33c-6 0 -9 3 -9 9c0 5.33301 3 8 9 8zM70.001 425.006c11.333 0 19.333 0.333008 24 1c6.66699 2 10 -0.666992 10 -8s-11.333 -11 -34 -11c-5.33301 0 -8 3 -8 9s2.66699 9 8 9zM102.001 401.006
c5.33301 0 8.00098 -2.66602 8.00098 -7.99902c0 -8 -8.66699 -14 -26 -18c-7.33301 -2 -11 0.666992 -11 8c0 3.33301 3.33301 6.66602 10 9.99902c11.333 5.33301 17.666 8 18.999 8zM294.002 490.007c6.66699 -0.666992 14.333 -0.666992 23 0c1.33301 2 3 3 5 3
c5.33301 0 8 -3 8 -9c0 -9.33301 -7.33301 -13 -22 -11c-5.33301 0.666992 -8.33301 0.666992 -9 0c-7.33301 -1.33301 -11 1.66699 -11 9c0 4 2 6.66699 6 8zM300.001 463.007c12.667 0 21.333 1.00098 26 3.00098c8 3.33301 12 0.666016 12 -8.00098
c0 -8 -12.667 -12 -38 -12c-5.33301 0 -8 3 -8 9c0 5.33301 2.66699 8 8 8zM319 420.008c-0.666992 0 -2.66602 0.666992 -5.99902 2c-8.66699 2.66699 -13 7 -13 13s3 9 9 9c-0.666992 0 5.66602 -3.33301 18.999 -10c4 -2 6.66699 -5.66699 8 -11
c1.33301 -6.66699 -1.66699 -10 -9 -10c-4 0 -6.66699 2.33301 -8 7zM387.001 83.0078c-6.66699 6.66699 -19.999 23.3281 -39.999 49.9951s-31.667 45.334 -35 56.001c-5.33301 15.333 -8 31.333 -8 48c0 34.667 10.333 57.334 31 68.001c14 10 26.667 9.33301 38 -2l1 -1
c3.33301 -2.66699 6.66602 -9 9.99902 -19v-1c8 -72.667 24.667 -120 50 -142c2 -1.33301 3 -3.33301 3 -6c0 -6 -3 -9 -9 -9c-2 0 -4 0.666992 -6 2c-28 24.667 -46.333 75.334 -55 152.001c-0.666992 2.66699 -2.33398 6.33398 -5.00098 11.001
c-3.33301 2.66699 -6.66602 4 -9.99902 4c-2.66699 0 -5.33398 -1 -8.00098 -3l-1 -1c-14.667 -6.66699 -22 -24 -22 -52c0 -16 2.33301 -30.333 7 -43c3.33301 -9.33301 13.833 -26.166 31.5 -50.499s30.834 -40.5 39.501 -48.5c2 -2 3 -4 3 -6c0 -6 -3 -9 -9 -9
c-2 0 -4 0.666992 -6 2zM137.002 522.002c6.66699 0 12.667 -3 18 -9s8 -12.333 8 -19s-2.66699 -12.667 -8 -18s-11.333 -8 -18 -8c-16.667 0 -25 8.33301 -25 25c0 6.66699 2.5 13.167 7.5 19.5s10.833 9.5 17.5 9.5zM130.002 497.002
c-2 -4 -1.33203 -7.66602 2.00098 -10.999c6 -1.33301 10.667 1 14 7c2 4 -0.666992 8 -8 12c-2.66699 -0.666992 -5.33398 -3.33398 -8.00098 -8.00098zM215.003 520.003c6 11.333 13.667 17.002 23 17.002c6.66699 0 12.667 -2.83301 18 -8.5s8 -11.834 8 -18.501
s-2.66699 -12.834 -8 -18.501s-11.333 -8.5 -18 -8.5c-16.667 0 -25 8.66699 -25 26c0 4 0.666992 7.66699 2 11zM230.003 508.005c0 -2.66699 1 -4.66797 3 -6.00098c6 -2 10.333 0.333008 13 7c2 4 -0.666992 8 -8 12c-5.33301 -1.33301 -8 -5.66602 -8 -12.999z" />
    <glyph glyph-name="currency" unicode="&#xa4;" 
 />
    <glyph glyph-name="yen" unicode="&#xa5;" horiz-adv-x="581" 
d="M190 284l0.996094 14.9951c-38.667 0.666992 -81 2.33398 -127 5.00098c-19.333 6.66699 -29 26.334 -29 59.001c0 36.667 19 59.667 57 69c8 2 40.667 4.33301 98 7l-2 27c-56 26.667 -95.667 53.334 -119 80.001c-28 32.667 -44 76.667 -48 132
c-1.33301 20.667 12.334 35.667 41.001 45c20.667 7.33301 43.334 10.666 68.001 9.99902c16.667 0 34 -23 52 -69c32.667 -50.667 61.667 -75.667 87 -75c32 0.666992 66.333 26.334 103 77.001c2.66699 3.33301 10.334 17.666 23.001 42.999
c8.66699 17.333 16.334 26 23.001 26c24 -0.666992 45 -5.33398 63 -14.001c22.667 -10.667 34 -26.667 34 -48v-4c0 -42 -15.167 -82.167 -45.5 -120.5s-73.5 -65.166 -129.5 -80.499l1 -29c46.667 -0.666992 91 -3.66699 133 -9c27.333 -3.33301 41 -22.333 41 -57
c0 -28.667 -10.667 -50.667 -32 -66c-20 -2 -64.333 -4 -133 -6l1 -18c30 0 71 -2.33301 123 -7c27.333 -5.33301 41 -24.666 41 -57.999c0 -28 -10.667 -49.667 -32 -65c-16 -1.33301 -56.333 -3.33301 -121 -6c1.33301 -23.333 2 -44.666 2 -63.999
c0 -18.667 -1 -31.667 -3 -39c-6 -20.667 -17.667 -34 -35 -40c-8 -2.66699 -23.667 -4.66699 -47 -6c-51.333 -2.66699 -81 8.33301 -89 33c-4 12.667 -6 28 -6 46c0 28.667 0.666992 52.334 2 71.001c-37.333 -0.666992 -78 0 -122 2c-19.333 6 -29 25.667 -29 59
c0 36.667 19 59.667 57 69c8 2 40.667 4 98 6z" />
    <glyph glyph-name="brokenbar" unicode="&#xa6;" 
 />
    <glyph glyph-name="section" unicode="&#xa7;" horiz-adv-x="587" 
d="M368 624c6 24 9.6709 37.667 11.0039 41c6.66699 13.333 17.667 20 33 20c16 0 30.5 -5.33301 43.5 -16s19.5 -23.667 19.5 -39c0 -10 -4.5 -21.667 -13.5 -35s-13.5 -21.666 -13.5 -24.999c2 -3.33301 8.66699 -13 20 -29c20 -28 30 -65.333 30 -112
c0 -52.667 -10.333 -94.667 -31 -126c-12 -18.667 -19 -28.667 -21 -30c0 -2.66699 10.333 -16.334 31 -41.001s31 -45.334 31 -62.001c0 -10.667 -6.5 -18.5 -19.5 -23.5l-36.5 -13.5c-36 -14.667 -60.333 -32 -73 -52l-1 -6c0 -3.33301 1.66699 -5 5 -5l4 1
c30.667 30 56 45 76 45c16.667 0 25 -9 25 -27c0 -16.667 -5 -32 -15 -46s-23 -21 -39 -21c-20 0 -49.667 2.16699 -89 6.5s-69 6.5 -89 6.5c-14.667 0 -38 -1.66699 -70 -5c-2 -0.666992 -16.333 -3.33398 -43 -8.00098c-18 -3.33301 -32.333 -5 -43 -5
c-18 0 -32.667 6.83301 -44 20.5s-17 29.5 -17 47.5c0 17.333 6.66699 26 20 26c24 0 51.333 -19 82 -57c5.33301 0 8 3.33301 8 10c0 14.667 -12.667 29.667 -38 45s-45.333 22 -60 20c-16.667 18 -25.334 32.667 -26.001 44c5.33301 11.333 8.66602 20.333 9.99902 27
c38.667 38 58 61 58 69c0 4 -11.167 25 -33.5 63s-33.5 71.333 -33.5 100c0 46.667 15.333 90.667 46 132c0 2 0.333008 4 1 6c0 2 -3.5 10.833 -10.5 26.5s-10.5 27.834 -10.5 36.501c0 15.333 8 28 24 38c13.333 8.66699 28.333 13 45 13c11.333 0 22.5 -6.5 33.5 -19.5
s16.5 -25.167 16.5 -36.5c0 -4.66699 3.33301 -7 10 -7c10.667 0 26.667 2.83301 48 8.5s37.666 8.5 48.999 8.5c7.33301 0 20 -1.83301 38 -5.5s29.667 -7 35 -10s8.66602 -4.5 9.99902 -4.5c4.66699 0.666992 7 3.33398 7 8.00098v-2zM262.004 458
c0 18 -6.16699 32.501 -18.5 43.501s-27.833 16.5 -46.5 16.5c-34.667 0 -61 -15.667 -79 -47c-10 -18 -15 -34 -15 -48c0 -20 7.5 -37.5 22.5 -52.5s32.5 -22.5 52.5 -22.5c26 0 47 12.333 63 37c14 21.333 21 45.666 21 72.999zM247.004 360.001
c0 -16.667 7.00098 -24.999 21.001 -24.999c5.33301 0 10.666 3.16699 15.999 9.5s8 12.166 8 17.499c0 14 -5.66699 21 -17 21c-18.667 0 -28 -7.66699 -28 -23zM441.005 435.002c0 21.333 -8.66699 39.333 -26 54s-37 22 -59 22c-19.333 0 -34.833 -6.5 -46.5 -19.5
s-17.5 -29.5 -17.5 -49.5s8.16699 -39.667 24.5 -59s34.5 -29 54.5 -29c19.333 0 35.833 8.5 49.5 25.5s20.5 35.5 20.5 55.5zM205.005 55.002c0 -6 3.00195 -9 9.00195 -9c-0.666992 0 5.83301 4.16699 19.5 12.5s25.5 12.5 35.5 12.5c6 0 17.333 -1.66699 34 -5
c1.33301 -0.666992 5.16602 -5 11.499 -13s10.166 -12 11.499 -12c6 0 9 2.66699 9 8c0 26 -22 39 -66 39c-8.66699 0 -21 -3.66699 -37 -11c-18 -8 -27 -15.333 -27 -22zM227.007 327.002c-6 0 -9 -3 -9 -9v-7l2 -7c14.667 -14 33 -21 55 -21c36.667 0 55 11 55 33
c0 5.33301 -3 8 -9 8c-3.33301 0 -6.66602 -3.16699 -9.99902 -9.5s-6 -9.83301 -8 -10.5c-6 -2.66699 -15 -4 -27 -4c-16.667 0 -30.334 4.66699 -41.001 14c0.666992 8.66699 -2 13 -8 13zM172.007 175.002c0 -6 2.66602 -9 7.99902 -9c28.667 26 59.334 39 92.001 39
c30.667 0 60.667 -13 90 -39c5.33301 0 8 3 8 9c0 12 -13.667 23.333 -41 34c-22.667 8.66699 -41.667 13 -57 13c-40.667 0 -73 -13.667 -97 -41c-2 -2 -3 -4 -3 -6zM179.006 365.002c-16 0 -29.832 5.66797 -41.499 17.001s-17.5 25 -17.5 41
c0 11.333 4.33301 24.666 13 39.999s18 26 28 32c6.66699 4 19 6 37 6c31.333 0 47 -14.333 47 -43c0 -22.667 -5.33301 -43 -16 -61c-12.667 -21.333 -29.334 -32 -50.001 -32zM174.007 463.003c0 -5.33301 2.66797 -10.666 8.00098 -15.999s10.666 -8 15.999 -8
s11.5 2.66699 18.5 8s10.5 10.666 10.5 15.999c0 18.667 -9.66699 28 -29 28c-6 0 -11.5 -3 -16.5 -9s-7.5 -12.333 -7.5 -19zM192.008 465.003l0.999023 2.99902l5 6c4 0 8 -3.66699 12 -11c-5.33301 -3.33301 -9.66602 -5.33301 -12.999 -6
c-1.33301 0.666992 -3 3.33398 -5 8.00098zM274.007 366.002c0.666992 -0.666992 1 -2 1 -4c0 -2.66699 -3 -5.66699 -9 -9l-2 7l2 5zM371.007 371.002c-15.333 0 -29.5 7.83301 -42.5 23.5s-19.5 31.5 -19.5 47.5c0 34.667 16 52 48 52c16.667 0 32 -5.83301 46 -17.5
s21 -25.834 21 -42.501c0 -15.333 -5.16699 -29.666 -15.5 -42.999s-22.833 -20 -37.5 -20zM332.007 459.002c0 -5.33301 2.66797 -10.666 8.00098 -15.999s10.666 -8 15.999 -8s11.5 2.66699 18.5 8s10.5 10.666 10.5 15.999c0 7.33301 -3 13.833 -9 19.5
s-12.667 8.5 -20 8.5c-16 0 -24 -9.33301 -24 -28zM349.008 461.002l1 3.99902l6 5c4 0 7.66699 -3.66699 11 -11c-4.66699 -3.33301 -8.66699 -5.33301 -12 -6c-2 0.666992 -4 3.33398 -6 8.00098zM279.008 655.001c-23.333 0 -54.001 -5.33398 -92.001 -16.001
c-3.33301 14.667 -11.666 28.667 -24.999 42s-27 20 -41 20c-20.667 0 -39.667 -6 -57 -18c-19.333 -13.333 -29 -30 -29 -50c0 -17.333 6.66699 -38.333 20 -63c-30.667 -38 -46 -84 -46 -138c0 -30.667 11.333 -65.334 34 -104.001l33 -58v-2
c-12 -12.667 -29.333 -32.334 -52 -59.001v0c-11.333 -21.333 -17 -34.333 -17 -39c0 -15.333 10.333 -32.333 31 -51c-10.667 -7.33301 -16 -18.666 -16 -33.999c0 -22.667 7.33301 -42.5 22 -59.5s33 -25.5 55 -25.5c17.333 0 43.333 3 78 9s60.667 9 78 9
c20 0 49.833 -2.16699 89.5 -6.5s69.5 -6.5 89.5 -6.5c20.667 0 37.667 9.33301 51 28c12.667 16.667 19 35.667 19 57c0 20 -6.66699 32.333 -20 37v0c12 0.666992 21.833 5.83398 29.5 15.501s11.5 20.834 11.5 33.501c0 15.333 -7.33301 32.333 -22 51l-38 44
c33.333 38 50 89.333 50 154c0 63.333 -16 112 -48 146c16.667 20 25 39.667 25 59c0 20 -7.5 36.833 -22.5 50.5s-32.5 20.5 -52.5 20.5c-37.333 0 -59 -20.667 -65 -62c-16.667 10.667 -41 16 -73 16z" />
    <glyph glyph-name="dieresis" unicode="&#xa8;" horiz-adv-x="560" 
d="M356 717c11.333 3.33301 24.333 4.99902 39 4.99902c42.667 0 71.667 -20.667 87 -62c3.33301 -14.667 5 -28 5 -40c0 -36 -14.333 -63 -43 -81c-15.333 -9.33301 -32 -14 -50 -14c-28.667 0 -52.667 9.83301 -72 29.5s-29 43.834 -29 72.501c0 47.333 21 77.333 63 90z
M98 716.999c14.667 6 29.666 8.99902 44.999 8.99902c42.667 0 72.334 -21 89.001 -63c5.33301 -13.333 8 -27.333 8 -42c0 -33.333 -15.333 -59.333 -46 -78c-16 -10 -32.667 -15 -50 -15c-28.667 0 -52.667 9.83301 -72 29.5s-29 43.834 -29 72.501
c0 43.333 18.333 72.333 55 87z" />
    <glyph glyph-name="copyright" unicode="&#xa9;" horiz-adv-x="608" 
d="M322 445c-26.667 -2 -43.6631 -3.66699 -50.9961 -5c-24.667 -4.66699 -46 -14 -64 -28c-34.667 -22 -63.334 -55.333 -86.001 -100c-3.33301 -12 -5 -25.667 -5 -41c0 -45.333 11.333 -81.333 34 -108c14.667 -17.333 27 -28 37 -32c2 -2 19.667 -9 53 -21
c24 -5.33301 42.333 -8 55 -8c17.333 0 34.333 3.33301 51 10c22.667 8.66699 38.167 18 46.5 28s14.166 26.667 17.499 50c0.666992 26.667 -11.333 40 -36 40c-6.66699 0 -13.334 -1.66699 -20.001 -5c-19.333 -12 -37.333 -18 -54 -18c-14.667 0 -30 5.33301 -46 16
c-14.667 18.667 -22 35.667 -22 51c0 26 16 47 48 63c9.33301 4.66699 35.666 14 78.999 28c6.66699 6 10 15 10 27c0 29.333 -15.667 47 -47 53zM546.004 272c0 -76 -26.333 -140.5 -79 -193.5s-117 -79.5 -193 -79.5s-140.5 26.5 -193.5 79.5s-79.5 117.5 -79.5 193.5
s26.5 140.5 79.5 193.5s117.5 79.5 193.5 79.5s140.333 -26.5 193 -79.5s79 -117.5 79 -193.5zM498.004 272c0 62.667 -21.667 115.834 -65 159.501s-96.333 65.5 -159 65.5s-115.834 -21.833 -159.501 -65.5s-65.5 -96.834 -65.5 -159.501s21.833 -115.834 65.5 -159.501
s96.834 -65.5 159.501 -65.5s115.667 21.833 159 65.5s65 96.834 65 159.501z" />
    <glyph glyph-name="ordfeminine" unicode="&#xaa;" horiz-adv-x="874" 
d="M8 508v3.00391c2.66699 43.333 19.667 75.333 51 96c9.33301 6 19 9 29 9c16 0 28.667 -6.33301 38 -19c20.667 -28.667 34.334 -46.334 41.001 -53.001c18 -18.667 36.667 -28 56 -28c26 0 47 14.667 63 44c12 22 21 36.333 27 43c8.66699 6.66699 17.667 10 27 10
c13.333 0 26 -8 38 -24c8.66699 -12 15 -26 19 -42v-2c0 -3.33301 -0.666992 -8.5 -2 -15.5s-2 -11.833 -2 -14.5c3.33301 -9.33301 5.66602 -23.5 6.99902 -42.5s3.33301 -32.833 6 -41.5c18.667 4.66699 38.334 7 59.001 7c34.667 0 70.334 -6 107.001 -18
c19.333 44 52.333 66 99 66c47.333 0 86.666 -20 117.999 -60c22.667 -29.333 34 -62 34 -98c0 -18.667 -3 -38.334 -9 -59.001c-12.667 -42 -25.667 -100 -39 -174c-18.667 -65.333 -69 -98 -151 -98l-2 1c-5.33301 1.33301 -11 6 -17 14l-5 5
c-4.66699 1.33301 -12.667 -1.33398 -24 -8.00098s-18.666 -10.334 -21.999 -11.001l-1 -1c-20 0 -34.333 11 -43 33l-13 57c-2.66699 12 -14 18 -34 18c7.33301 0 -8 -1.33301 -46 -4l-40 -3c-16.667 -3.33301 -27.334 -10.333 -32.001 -21
c-16 -28 -30.667 -48.333 -44 -61c-20.667 -18.667 -44.334 -26.334 -71.001 -23.001c-14 2 -22.667 11.667 -26 29c-4.66699 22.667 -7.66699 34.667 -9 36c-24 -35.333 -47.667 -53 -71 -53c-9.33301 0 -17 3 -23 9c-23.333 22.667 -37 61.667 -41 117
c-0.666992 12 -2 33.333 -4 64c-0.666992 9.33301 -5.66699 21.333 -15 36c-11.333 16.667 -18 28 -20 34c-6.66699 22.667 -10 51.667 -10 87c0 47.333 5.66699 91.333 17 132v0c-0.666992 1.33301 -2.66699 3.33301 -6 6l-4 4c-2.66699 2.66699 -6 7.33398 -10 14.001z
M636 106.004c-12 -8.66699 -18.0059 -37.3311 -18.0059 -85.998c2.66699 -4 5 -6.33301 7 -7c73.333 0 118.333 28.333 135 85c14 74 27.333 132.333 40 175c5.33301 18 8 35.667 8 53c0 38.667 -13.167 72.5 -39.5 101.5s-58.5 43.5 -96.5 43.5
c-43.333 0 -72.666 -20.667 -87.999 -62c-0.666992 -5.33301 -1.33398 -13 -2.00098 -23c-0.666992 -8.66699 1 -16.334 5 -23.001c16.667 -22 38.334 -33 65.001 -33c22 0 33 9.33301 33 28c0 5.33301 -1 11 -3 17h-14c-5.33301 0 -8 2.33301 -8 7c0 5.33301 2.66699 8 8 8
h20c8.66699 0 13 -10 13 -30c0 -29.333 -18 -44 -54 -44c-29.333 0 -53.666 12.667 -72.999 38c-5.33301 9.33301 -8 18 -8 26c0 6 1 14.333 3 25c-36 12 -70.667 18 -104 18c-21.333 0 -41.666 -2.66699 -60.999 -8c-8 -2 -13.333 8.33301 -16 31
c-0.666992 13.333 -3 32 -7 56c0 -5.33301 -3.33301 -9.83301 -10 -13.5s-13 -5.5 -19 -5.5c-9.33301 0 -19 2.66699 -29 8c-9.33301 2.66699 -14 8.66699 -14 18c0 5.33301 2.33301 12.666 7 21.999s9.33398 14 14.001 14c5.33301 0 8 -2.66699 8 -8
c0 -2 -1 -3.66699 -3 -5c-7.33301 -7.33301 -11 -14.666 -11 -21.999c0 -2.66699 1.33301 -4.33398 4 -5.00098h1c18.667 -9.33301 31.667 -9 39 1c4 5.33301 8 5.33301 12 0c-0.666992 1.33301 -1.33398 3 -2.00098 5v3c0 3.33301 0.666992 8.5 2 15.5s2 12.167 2 15.5
c-9.33301 35.333 -23.333 53 -42 53c-10.667 0 -24.667 -16.167 -42 -48.5s-42.333 -48.5 -75 -48.5c-21.333 0 -42.333 9.66699 -63 29c-12 11.333 -27.667 31 -47 59c-5.33301 8 -13.666 12 -24.999 12c-7.33301 0 -14 -2 -20 -6c-24 -16 -38.667 -43.333 -44 -82
c6 -4 11 -8 15 -12c3.33301 0 8.66602 -0.5 15.999 -1.5s12.666 -1.5 15.999 -1.5c10.667 0 19.667 4.33301 27 13c1.33301 1.33301 3 2 5 2c5.33301 0 8 -2.33301 8 -7c0 -6.66699 -4.66699 -12.167 -14 -16.5s-18 -6.5 -26 -6.5c2 0 -7 1 -27 3
c0 -2.66699 -0.333008 -5 -1 -7c-12 -40 -18 -85 -18 -135c0 -43.333 6 -74 18 -92l18 -26c6 -10.667 9.33301 -20.667 10 -30l4 -63c2 -23.333 6 -44 12 -62c12 -34 24.667 -51 38 -51c14 0 34.333 17.667 61 53c1.33301 2 3.33301 3 6 3c8.66699 0 15.334 -6 20.001 -18
l6 -29c3.33301 -13.333 8 -20.333 14 -21c38 -5.33301 71 20 99 76c10.667 21.333 39.334 32 86.001 32c26.667 3.33301 42.334 5 47.001 5c27.333 0 43.333 -10.333 48 -31c2 -10.667 5.5 -26.167 10.5 -46.5s14.833 -30.5 29.5 -30.5c2.66699 0.666992 10.334 5 23.001 13
c9.33301 6 18 8 26 6h2c-0.666992 58.667 9 88 29 88c5.33301 0 8 -2.66699 8 -8c0 -2.66699 -1.33301 -4.66699 -4 -6zM214.994 310.007c-8 0.666992 -11.999 5.00195 -11.999 13.002c0 19.333 0.333008 29.666 1 30.999l1 2
c3.33301 3.33301 7.66602 4.66602 12.999 3.99902c12 -1.33301 16.333 -2 13 -2c4.66699 0 7 -2.33301 7 -7c0 -29.333 -7.66699 -43 -23 -41zM222.995 344.009c-1.33301 0 -3.33301 0.333008 -6 1l1 -20c4 2.66699 5.66699 9 5 19zM270.995 270.009l1 3.00098
c3.33301 9.33301 8 14 14 14c5.33301 0 8 -2.66699 8 -8c0 -2 -1.16699 -4.16699 -3.5 -6.5s-3.83301 -4.16602 -4.5 -5.49902l-1 -3c-2.66699 -5.33301 -5.66699 -8 -9 -8c-16.667 -4 -32.667 -6 -48 -6c-19.333 0 -38 3.33301 -56 10
c-3.33301 1.33301 -5 3.66602 -5 6.99902c0 7.33301 3.66699 9.66602 11 6.99902c28.667 -10.667 59.667 -12 93 -4zM345.995 354.01h36c4.66699 0 7 -2.33301 7 -7c0 -5.33301 -2.33301 -8 -7 -8h-36c-5.33301 0 -8 2.66699 -8 8c0 4.66699 2.66699 7 8 7zM357.995 330.01
h24c4.66699 0 7 -2.33301 7 -7c0 -5.33301 -2.33301 -8 -7 -8h-24c-5.33301 0 -8 2.66699 -8 8c0 4.66699 2.66699 7 8 7zM368.995 306.01c13.333 -6.66699 20 -13 20 -19c0 -5.33301 -2.33301 -8 -7 -8c-2 0 -5.66699 2.16699 -11 6.5s-8.83301 6.83301 -10.5 7.5
s-2.5 2.66699 -2.5 6c0 8 3.66699 10.333 11 7zM51.9951 338.01h47c5.33301 0 8 -2.33301 8 -7c0 -5.33301 -2.66699 -8 -8 -8h-47c-5.33301 0 -8 2.66699 -8 8c0 4.66699 2.66699 7 8 7zM59.9951 315.01h32c4.66699 0 7 -2.66699 7 -8s-2.33301 -8 -7 -8h-32
c-5.33301 0 -8 2.66699 -8 8s2.66699 8 8 8zM71.9951 274.01l24 12c7.33301 3.33301 11 1 11 -7c0 -3.33301 -1.33301 -5.66602 -4 -6.99902l-24 -12c-7.33301 -3.33301 -11 -1 -11 7c0 3.33301 1.33301 5.66602 4 6.99902zM277.995 413.01l0.999023 -1
c1.33301 -2 3.33301 -4 6 -6c2.66699 1.33301 3.33398 4 2.00098 8c-2 3.33301 -3.66699 5 -5 5zM274.994 431.01c2 2 4.33301 3 7 3c13.333 0 20 -6.33301 20 -19s-4.33301 -20.667 -13 -24h-3c-6 0 -12.333 3.66699 -19 11l-1 2l-1 1c-1.33301 2 -2 3.66699 -2 5
c0 8.66699 4 15.667 12 21zM150.994 401.01l0.999023 -1c1.33301 -2 3.33301 -4 6 -6c2.66699 1.33301 3.33398 4 2.00098 8c-2 3.33301 -3.66699 5 -5 5zM154.993 422.01c13.333 0 20 -6.33301 20 -19s-4.66699 -20.667 -14 -24h-2c-6.66699 0 -13 3.66699 -19 11l-1 2
l-1 1c-1.33301 2 -2 3.66699 -2 5c0 16 6.33301 24 19 24z" />
    <glyph glyph-name="guillemotleft" unicode="&#xab;" horiz-adv-x="588" 
d="M408 428c-29.333 -22.667 -60.001 -53.668 -92.001 -93.001c-40.667 -50 -61 -89.333 -61 -118c0.666992 -33.333 26.334 -76.666 77.001 -129.999c49.333 -50.667 91.333 -80.334 126 -89.001c18 0 33.667 6 47 18s20 26.667 20 44c0 11.333 -4 22.333 -12 33
c-12 16.667 -36 39 -72 67c-30 23.333 -45 42.333 -45 57c0 13.333 19.667 39.333 59 78c42 41.333 64.667 67 68 77c0 20.667 -6.5 36.834 -19.5 48.501s-29.833 17.5 -50.5 17.5c-16 0 -31 -3.33301 -45 -10zM161.999 426.999
c-29.333 -22 -60.002 -52.666 -92.002 -91.999c-41.333 -50.667 -61.666 -90 -60.999 -118c0.666992 -34 26.334 -77.333 77.001 -130c48.667 -51.333 90.667 -81 126 -89c17.333 0 32.833 5.83301 46.5 17.5s20.5 26.167 20.5 43.5c0 12.667 -3.66699 24 -11 34
c-10 13.333 -34.333 35.333 -73 66c-30.667 24 -45.667 43.333 -45 58c0 13.333 19.667 39.333 59 78c42 41.333 64.667 66.666 68 75.999c0 44.667 -23.333 67 -70 67c-16 0 -31 -3.66699 -45 -11z" />
    <glyph glyph-name="logicalnot" unicode="&#xac;" 
 />
    <glyph glyph-name="minus" unicode="&#xad;" 
 />
    <glyph glyph-name="minus" unicode="&#x2212;" 
 />
    <glyph glyph-name="registered" unicode="&#xae;" horiz-adv-x="608" 
d="M260 463c36 0 67.668 -8.33203 95.001 -24.999c31.333 -19.333 47.666 -46 48.999 -80c0.666992 -24 0.333984 -39 -0.999023 -45l-2 -8c-4.66699 -18.667 -16 -31 -34 -37c-12.667 -4 -18.334 -10.667 -17.001 -20c1.33301 -1.33301 12 -15.333 32 -42
c15.333 -20.667 23.333 -44.334 24 -71.001c0.666992 -22 -15.666 -33 -48.999 -33c-13.333 0 -24.333 2.33301 -33 7c-6 4.66699 -12.667 23 -20 55c-6 26 -19 38.667 -39 38c-9.33301 0.666992 -14 -3.33301 -14 -12c0 -6.66699 1.66699 -16.167 5 -28.5
s5 -21.833 5 -28.5s-1.33301 -11.667 -4 -15c-10 -12.667 -25.333 -19 -46 -19c-28 0 -45 6.33301 -51 19c-9.33301 30 -14 79.667 -14 149c0 64.667 4.16699 113.5 12.5 146.5s42.166 49.5 101.499 49.5zM242.001 345.001c0 -20.667 9 -31 27 -31
c25.333 0 37.333 10.333 36 31c-1.33301 16 -13 24 -35 24c-18.667 0 -28 -8 -28 -24zM546.001 272.001c0 -76 -26.333 -140.5 -79 -193.5s-117 -79.5 -193 -79.5s-140.5 26.5 -193.5 79.5s-79.5 117.5 -79.5 193.5s26.5 140.5 79.5 193.5s117.5 79.5 193.5 79.5
s140.333 -26.5 193 -79.5s79 -117.5 79 -193.5zM498.001 272.001c0 62.667 -21.667 115.834 -65 159.501s-96.333 65.5 -159 65.5s-115.834 -21.833 -159.501 -65.5s-65.5 -96.834 -65.5 -159.501s21.833 -115.834 65.5 -159.501s96.834 -65.5 159.501 -65.5
s115.667 21.833 159 65.5s65 96.834 65 159.501z" />
    <glyph glyph-name="macron" unicode="&#xaf;" 
 />
    <glyph glyph-name="macron" unicode="&#x2c9;" 
 />
    <glyph glyph-name="degree" unicode="&#xb0;" 
 />
    <glyph glyph-name="plusminus" unicode="&#xb1;" horiz-adv-x="565" 
d="M63 152c40 7.33301 101.333 11 184 11c96 0 170 -3.66699 222 -11c26 -4 39 -28.333 39 -73c0 -37.333 -10 -59 -30 -65c-64.667 -6 -149 -9 -253 -9c-72.667 0 -128.667 2 -168 6c-18 14.667 -27 38.667 -27 72c0 36 11 59 33 69zM478 406
c-4 -0.666992 -26.334 -0.665039 -67.001 0.00195312c-30 0 -51.333 -2.66699 -64 -8c-2 -4 -3 -9.33301 -3 -16c0 -9.33301 1.16699 -23 3.5 -41s3.5 -31.667 3.5 -41c0 -56.667 -27.667 -85 -83 -85c-36.667 0 -58 12.667 -64 38c-6.66699 14 -10 31.667 -10 53
c0 7.33301 0.5 18.666 1.5 33.999s1.5 26.666 1.5 33.999c0 10 -0.666992 18.667 -2 26c-3.33301 2 -8.33301 3 -15 3c-8 0 -20.333 -1.16699 -37 -3.5s-29 -3.5 -37 -3.5c-20.667 0 -39 4 -55 12c-20 15.333 -30 38.666 -30 69.999c0 46 27 69 81 69
c8 0 20 -0.666992 36 -2s28 -2 36 -2c6.66699 0 12.334 0.333008 17.001 1c0.666992 6.66699 -0.666016 20.667 -3.99902 42c-7.33301 44 -7.66602 80.333 -0.999023 109c5.33301 25.333 31.666 38 78.999 38c48 0 75.667 -13 83 -39c4.66699 -10.667 7 -24 7 -40
c0 -14.667 -1.66699 -32 -5 -52c-4.66699 -29.333 -7 -44.666 -7 -45.999c-0.666992 -6 -0.333984 -10.667 0.999023 -14c4.66699 -4 11.667 -6 21 -6c8 0 20.833 1.83301 38.5 5.5s31.167 5.5 40.5 5.5c47.333 0 71 -26.667 71 -80c0 -38.667 -12.333 -59 -37 -61z" />
    <glyph glyph-name="twosuperior" unicode="&#xb2;" horiz-adv-x="375" 
d="M18 670c27.333 44 73.3301 66 137.997 66c28.667 0 55.667 -5.66699 81 -17c30 -14 48.333 -33 55 -57c4.66699 -17.333 7 -33 7 -47c0 -47.333 -27 -83 -81 -107c-19.333 -8.66699 -29.333 -14 -30 -16c19.333 4 37.333 6 54 6c14.667 0 26.334 -2 35.001 -6
c16.667 -4 25 -18.333 25 -43c0 -25.333 -6.66699 -40.333 -20 -45c-5.33301 -9.33301 -52.666 -14 -141.999 -14c-72 0 -113.667 5 -125 15c-7.33301 14.667 -11 28.334 -11 41.001c0 26 14.667 50.667 44 74c10 8 37.333 24.667 82 50c29.333 16.667 44 30 44 40
c0 6 -4 14.333 -12 25c-5.33301 7.33301 -18.666 11 -39.999 11c-13.333 0 -25 -7.33301 -35 -22s-21.333 -22.334 -34 -23.001c-32 -0.666992 -48 10 -48 32c0 10.667 4.33301 23 13 37z" />
    <glyph glyph-name="threesuperior" unicode="&#xb3;" horiz-adv-x="373" 
d="M260 411c-19.333 -18 -60.333 -26.999 -123 -26.999c-82.667 0 -124 17 -124 51c0 15.333 4.66699 28.666 14 39.999c5.33301 6.66699 14 10 26 10c9.33301 0 23 -2.16699 41 -6.5s31.667 -6.5 41 -6.5c20 0 30 10.667 30 32c0 16 -8.66699 24 -26 24
c-6.66699 0 -16.167 -1 -28.5 -3s-21.833 -3 -28.5 -3c-26.667 0 -41.334 12.667 -44.001 38c3.33301 26.667 21.333 40 54 40h15c6.66699 -0.666992 11.334 -1 14.001 -1c25.333 0 37.333 10 36 30c-6 18 -18 27 -36 27c-8.66699 0 -22.5 -3 -41.5 -9s-32.833 -9 -41.5 -9
c-4 0 -7.66699 0.666992 -11 2c-11.333 8.66699 -17 19 -17 31c0 40.667 45 61 135 61c59.333 0 97 -10 113 -30c19.333 -20 29 -42.667 29 -68c0 -28.667 -13 -49.667 -39 -63c34.667 -18 52 -43.333 52 -76c0 -31.333 -13.333 -59.333 -40 -84z" />
    <glyph glyph-name="acute" unicode="&#xb4;" horiz-adv-x="437" 
d="M382 664c0 -34.667 -18 -69.666 -54 -104.999c-32 -31.333 -65 -47 -99 -47c-21.333 0 -38.833 6.66699 -52.5 20s-20.5 30.666 -20.5 51.999c0 33.333 13.667 64 41 92c36.667 37.333 76 56 118 56c20 0 36.167 -6.33301 48.5 -19s18.5 -29 18.5 -49z" />
    <glyph glyph-name="mu" unicode="&#xb5;" 
 />
    <glyph glyph-name="mu" unicode="&#x3bc;" 
 />
    <glyph glyph-name="paragraph" unicode="&#xb6;" horiz-adv-x="908" 
d="M620 16c-4.66699 0 -12.3291 -2.50488 -22.9961 -7.50488s-19 -7.5 -25 -7.5c-18 0 -35 14 -51 42c-13.333 23.333 -20.333 42.333 -21 57c0 10.667 -0.333008 21.334 -1 32.001c-1.33301 14 -4.66602 23 -9.99902 27c-6.66699 7.33301 -17 11 -31 11
c-19.333 0 -34 -7.66699 -44 -23c-4 -5.33301 -11.333 -21.666 -22 -48.999c-9.33301 -24.667 -18 -43 -26 -55c-18.667 -28.667 -40.334 -43 -65.001 -43c-14.667 0 -33.334 12 -56.001 36c-21.333 -20.667 -41 -31 -59 -31c-8.66699 0 -17.667 2.33301 -27 7
c-30.667 15.333 -46 46.666 -46 93.999c0 20 3 43.333 9 70c-42 18 -71.833 40.667 -89.5 68s-26.5 64 -26.5 110c0 58.667 17 118 51 178l1 1c23.333 23.333 38.5 37.666 45.5 42.999s27.167 14 60.5 26c26 11.333 41.667 17 47 17s14.333 1 27 3c11.333 2 21 2 29 0h2
c2 -1.33301 10.833 -2.66602 26.5 -3.99902s31.167 -6.66602 46.5 -15.999c20 -12 35.333 -19.667 46 -23c4 2.66699 11 7.66699 21 15c8 6 15 9 21 9s12.333 -2.66699 19 -8c12.667 -10 20 -14.667 22 -14h1c2 0 10.167 4.83301 24.5 14.5s27.166 13.5 38.499 11.5l1 -1
c5.33301 -0.666992 12.5 -5.33398 21.5 -14.001s13.833 -13 14.5 -13c6 0 15.333 4.16699 28 12.5s22 12.5 28 12.5c12 0 24.333 -8.66699 37 -26c2 -3.33301 6 -7 12 -11c25.333 10 41.666 15 48.999 15c8.66699 0 18 -2.66699 28 -8c22.667 -12 34 -30 34 -54
c0 -7.33301 -1.66699 -14.666 -5 -21.999l5 -2c32 -6.66699 48 -22.667 48 -48c0 -14.667 -7.66699 -28.334 -23 -41.001c15.333 -7.33301 24.666 -20.666 27.999 -39.999c2.66699 -15.333 -5 -32.333 -23 -51c18.667 -9.33301 28 -24.666 28 -45.999
c0 -18.667 -8.33301 -32.667 -25 -42c11.333 -8 17 -19 17 -33c0 -17.333 -8 -28.666 -24 -33.999c-2 -0.666992 -6.33301 -2 -13 -4c-18 -45.333 -34 -78.666 -48 -99.999c-26 -39.333 -55 -59 -87 -59c-18 0 -33.333 6 -46 18zM88.0049 215.995
c24 -2.66699 39.3359 3.00195 46.0029 17.002c1.33301 3.33301 3.66602 5 6.99902 5c8 0 10.333 -3.66699 7 -11c-7.33301 -15.333 -21.666 -24 -42.999 -26c6 -3.33301 12.333 -6.33301 19 -9c1.33301 2 3.66602 2.66699 6.99902 2c15.333 -3.33301 30 2 44 16
c1.33301 1.33301 3 2 5 2c5.33301 0 8 -2.66699 8 -8c0 -2 -0.666992 -3.66699 -2 -5c-14.667 -14 -30.334 -21 -47.001 -21c0 -9.33301 -1.66699 -23.166 -5 -41.499s-5 -32.166 -5 -41.499c0 -34 12.333 -57 37 -69c6.66699 -3.33301 13.334 -5 20.001 -5
c9.33301 0 19 3.33301 29 10l21 18c2 28 0 68 -6 120c-1.33301 4.66699 0.333984 7.66699 5.00098 9c6.66699 2 11 -4.33301 13 -19c2 -18 3 -53.333 3 -106v-1c24 -24 41 -36 51 -36c26 0 48.333 21.667 67 65c22.667 52 34.667 78.667 36 80c10.667 16 28 24 52 24
c38.667 0 58 -20.333 58 -61c0 -23.333 4 -45.333 12 -66c10.667 -27.333 26 -41 46 -41c0.666992 0 15 4.66699 43 14c4.66699 38.667 7.66699 61.667 9 69c4.66699 29.333 11.667 51 21 65c1.33301 2.66699 3.33301 4 6 4c5.33301 0 8 -2.66699 8 -8
c0 -1.33301 -0.333008 -2.66602 -1 -3.99902c-8 -13.333 -17.667 -56.666 -29 -129.999c10 -9.33301 22.333 -14 37 -14c41.333 0 81.333 50.333 120 151c1.33301 3.33301 7.66602 6.66602 18.999 9.99902c9.33301 3.33301 14.666 8.66602 15.999 15.999
c2 12.667 -4.66699 23 -20 31c-4 1.33301 -6 4 -6 8s2.66699 6.66699 8 8c18 5.33301 27 16.666 27 33.999c0 16.667 -7.66699 27.667 -23 33c-6 1.33301 -9 4 -9 8c0 2 5 9 15 21s14 22.667 12 32c-3.33301 19.333 -13.333 29.666 -30 30.999
c-4.66699 0.666992 -7.33398 2.33398 -8.00098 5.00098c-1.33301 3.33301 0 6.33301 4 9c18.667 12.667 28 25.334 28 38.001c0 3.33301 -0.333008 7 -1 11c-3.33301 9.33301 -13.666 16.666 -30.999 21.999s-26 9 -26 11c0 1.33301 1 3 3 5c5.33301 7.33301 8 15.333 8 24
c0 12.667 -5 23.334 -15 32.001s-21.333 13 -34 13c-6 0 -14.667 -2.5 -26 -7.5s-18.333 -7.5 -21 -7.5c-5.33301 0 -13.333 6.16699 -24 18.5s-19.334 18.5 -26.001 18.5c-4.66699 0 -12.5 -4 -23.5 -12s-20.167 -12 -27.5 -12c-6 -2 -13.667 1.66699 -23 11
s-16.333 15 -21 17c-7.33301 0.666992 -17.333 -3.5 -30 -12.5s-22.334 -13.5 -29.001 -13.5c-6.66699 -1.33301 -15.167 2.16699 -25.5 10.5s-16.5 12.166 -18.5 11.499c-4 -1.33301 -11 -5.66602 -21 -12.999s-16.667 -11 -20 -11h-1c5.33301 -10 12 -25.333 20 -46
c5.33301 -25.333 8 -52.333 8 -81c0 -78.667 -25.667 -124.334 -77 -137.001c-33.333 -8.66699 -59 -9.33398 -77 -2.00098c-43.333 16.667 -65.666 59.667 -66.999 129c-0.666992 42 10 70.333 32 85c12.667 8 26 12 40 12c24.667 0 41.334 -12.333 50.001 -37
c8.66699 -25.333 7.66699 -45.333 -3 -60c-2 -2 -4 -3 -6 -3c-5.33301 0 -8 2.33301 -8 7c0 0.666992 1.16699 4.16699 3.5 10.5s3.5 11.833 3.5 16.5c0 26.667 -7 42.334 -21 47.001c-6 2 -12.333 3 -19 3c-16.667 0 -30 -5 -40 -15v0
c23.333 -15.333 35 -26.666 35 -33.999c0 -5.33301 -2.66699 -8 -8 -8c-2.66699 0 -4.66699 1.33301 -6 4c-3.33301 5.33301 -13.333 14 -30 26c-5.33301 -11.333 -8 -27.666 -8 -48.999c0 -12.667 1 -27 3 -43c7.33301 4 18.333 9.33301 33 16
c6.66699 2 10 -0.333008 10 -7c0 -4 -1.66699 -6.33301 -5 -7c-9.33301 -5.33301 -21.333 -11 -36 -17c4 -24.667 18 -43.667 42 -57l6 6v2c5.33301 14 14.333 27.667 27 41c2 1.33301 4 2 6 2c5.33301 0 8 -2.66699 8 -8c0 -2 -1 -3.66699 -3 -5
c-12 -12 -19.667 -23.333 -23 -34c-2 -5.33301 -4 -9 -6 -11c8.66699 -2 17.667 -3 27 -3c16 0 32 4 48 12c-6 7.33301 -13.667 20.333 -23 39c-1.33301 5.33301 0.666992 8.66602 6 9.99902c4.66699 0.666992 7.66699 -1.33301 9 -6c0 -1.33301 7 -13 21 -35
c18.667 16 30.667 35.333 36 58c-21.333 7.33301 -33 18 -35 32c-0.666992 4.66699 1.66602 7.33398 6.99902 8.00098c2.66699 0.666992 5.83398 -2.33301 9.50098 -9s10.5 -12 20.5 -16c2 16.667 3 32.667 3 48c0 9.33301 -0.333008 18.333 -1 27h-37
c-5.33301 0 -8 2.66699 -8 8c0 4.66699 2.66699 7 8 7h35c-1.33301 9.33301 -6.5 24.666 -15.5 45.999s-13.5 33 -13.5 35l-3 1c-5.33301 -8 -11 -18.667 -17 -32c-2 -5.33301 -5.33301 -7 -10 -5c-4.66699 1.33301 -6.33398 4.33301 -5.00098 9
c4.66699 7.33301 11 19 19 35c-12.667 7.33301 -21.667 12.333 -27 15c-11.333 5.33301 -21 8.33301 -29 9c0 -9.33301 -2.66699 -23.333 -8 -42c-1.33301 -4.66699 -4.33301 -6.33398 -9 -5.00098s-6.33398 4.66602 -5.00098 9.99902c2 8 4.33301 20.667 7 38
c-7.33301 0 -13.333 1.33301 -18 4c-6 0.666992 -19 -0.333008 -39 -3c-2 -10.667 -3.66699 -26 -5 -46c0.666992 -5.33301 -1.33301 -8.33301 -6 -9c-5.33301 -0.666992 -8.33301 1.66602 -9 6.99902c2 10 3.66699 25.333 5 46c-2.66699 0 -16 -5 -40 -15
c-29.333 -10.667 -47.666 -18.5 -54.999 -23.5s-22 -18.833 -44 -41.5c-31.333 -54.667 -47 -110.667 -47 -168c0 -32.667 5.33301 -63.334 16 -92.001c9.33301 -18.667 24 -35 44 -49c1.33301 1.33301 3 2 5 2zM103.008 391.997c-16.667 0 -26.999 7.66699 -30.999 23
c-3.33301 10.667 -2.33301 20.5 3 29.5s13.666 13.5 24.999 13.5c20.667 0 31 -9.66699 31 -29c0 -24.667 -9.33301 -37 -28 -37zM115.009 428.997c0 13.333 -7 17.667 -21 13c-5.33301 -2 -8 -7 -8 -15c0 -12.667 5.33301 -19 16 -19c8.66699 0 13 7 13 21z" />
    <glyph glyph-name="periodcentered" unicode="&#xb7;" 
 />
    <glyph glyph-name="periodcentered" unicode="&#x2219;" 
 />
    <glyph glyph-name="cedilla" unicode="&#xb8;" 
 />
    <glyph glyph-name="onesuperior" unicode="&#xb9;" horiz-adv-x="308" 
d="M19 674c0 20 18.334 34.999 55.001 44.999c16.667 4.66699 39.334 7 68.001 7c33.333 0 56.333 -6.33301 69 -19c14.667 -15.333 22 -56 22 -122c0 -75.333 -5 -135.666 -15 -180.999c-4 -18.667 -28 -28 -72 -28c-40.667 0 -63.667 6.66699 -69 20
c-1.33301 8.66699 -2 20 -2 34c0 20 2 49.667 6 89s6 69 6 89c0 34.667 -7.66699 52 -23 52c-2.66699 0 -6.83398 -0.666992 -12.501 -2s-9.83398 -2 -12.501 -2c-13.333 0 -20 6 -20 18z" />
    <glyph glyph-name="ordmasculine" unicode="&#xba;" horiz-adv-x="956" 
d="M828 496c12.667 -6 24.168 -19.3311 34.501 -39.998s15.5 -38.334 15.5 -53.001c0 -26.667 -15 -52.334 -45 -77.001c18.667 -9.33301 34.334 -23.333 47.001 -42s19 -38 19 -58c0 -44 -28.333 -78 -85 -102c-22.667 -9.33301 -57.334 -18.333 -104.001 -27
c-3.33301 -15.333 -7 -30.666 -11 -45.999c-6.66699 -18 -17.667 -28 -33 -30c-59.333 -9.33301 -116 -9.33301 -170 0c-36 6 -67.667 9 -95 9c-42.667 0 -83 -6 -121 -18c-18.667 -6 -35.334 -9 -50.001 -9c-8.66699 -2 -17.667 -3 -27 -3
c-3.33301 0 -34.666 5.33301 -93.999 16h-1c-8 1.33301 -15.833 6 -23.5 14s-15.167 15.333 -22.5 22c-2.66699 2 -11 18 -25 48l-1 3c-0.666992 9.33301 -1 18.666 -1 27.999c0 17.333 3 39.333 9 66c8 36 12.667 58 14 66c-16.667 -1.33301 -26.334 -0.333008 -29.001 3
c-14 16.667 -21 32 -21 46c0 10 5 22.833 15 38.5s15.667 26.5 17 32.5l-3 2c-19.333 12.667 -29 20.667 -29 24c0 2.66699 1 4.66699 3 6s6.5 3.33301 13.5 6s13.167 8.66699 18.5 18l20 79c10.667 40.667 22.334 61 35.001 61c4.66699 0 10.5 -3.16699 17.5 -9.5
s11.5 -11.833 13.5 -16.5c1.33301 -0.666992 3 -0.666992 5 0c14.667 25.333 27.667 38 39 38c5.33301 0 11.333 -2.66699 18 -8c3.33301 -2 6 -7.33301 8 -16l21 21l1 1c4 2.66699 8 4 12 4s6.33301 -1.66699 7 -5l1 -1c4 0 8 -2.33301 12 -7
c10 -7.33301 15 -13.333 15 -18c0 -2 -1 -4 -3 -6s-0.333008 -9 5 -21c8.66699 -9.33301 13.667 -16 15 -20c5.33301 -27.333 13 -46.333 23 -57c12 -6 22.667 -9 32 -9c6 0 11.333 1.33301 16 4l1 1c15.333 9.33301 35.666 28.666 60.999 57.999c24 27.333 44.667 46 62 56
c47.333 27.333 107.333 43 180 47c65.333 4 113 -8 143 -36c19.333 -18 29 -38.333 29 -61c0 -7.33301 -1.33301 -14.666 -4 -21.999zM609.001 414.002c64.667 39.333 97.3301 59.001 97.9971 59.001c40.667 21.333 76.334 30.333 107.001 27c1.33301 6 2 11.667 2 17
c0 18.667 -7.33301 35.167 -22 49.5s-31.667 23.5 -51 27.5s-39.666 6 -60.999 6c-76.667 0 -141.334 -15 -194.001 -45c-16 -9.33301 -36.333 -28.333 -61 -57s-45.334 -47.667 -62.001 -57c-7.33301 -5.33301 -15.666 -8 -24.999 -8c-10.667 0 -24 4 -40 12l-2 1
c-12.667 12.667 -22 34 -28 64c-2 3.33301 -5.66699 8.33301 -11 15l-2 2c-5.33301 11.333 -8 20.333 -8 27c0 3.33301 0.666992 6 2 8l-18 12c-2 0.666992 -3.66699 1 -5 1c-17.333 -17.333 -29.666 -25.333 -36.999 -24
c-3.33301 0.666992 -5.66602 3.33398 -6.99902 8.00098l-2 11c-4.66699 2.66699 -8.66699 4 -12 4c-2 0 -3.66699 -0.666992 -5 -2c-4 -4 -10.333 -13.667 -19 -29l-1 -1c-4 -4 -9.66699 -5.33301 -17 -4c-8 0.666992 -12.667 4 -14 10c-4 7.33301 -9.33301 12.333 -16 15
c-7.33301 -6 -16.333 -33 -27 -81c-9.33301 -44 -23 -69.333 -41 -76c17.333 -10.667 26 -18.334 26 -23.001c0 -6.66699 -3.66699 -15.667 -11 -27c-14.667 -22.667 -22 -37.334 -22 -44.001c0 -10 5.66699 -21.667 17 -35c2.66699 0 7 0.333008 13 1s10.333 1 13 1
c5.33301 0 7.66602 -2.66699 6.99902 -8c-0.666992 -14.667 -5 -38.667 -13 -72c-6.66699 -30.667 -10 -54.667 -10 -72c0 -7.33301 0.333008 -14.333 1 -21c5.33301 -13.333 11.666 -27 18.999 -41c9.33301 -10 23 -21.333 41 -34
c8.66699 -0.666992 24.334 -3.66699 47.001 -9c20 -4 36 -6 48 -6c7.33301 0 14.333 0.666992 21 2h2c14 0 29.333 2.66699 46 8c40 12.667 82 19 126 19c30 0 62.667 -3 98 -9c52 -8.66699 107 -8.66699 165 0c12 2 20.833 14.833 26.5 38.5s9.83398 35.834 12.501 36.501
c44 8 77 16.333 99 25c37.333 14.667 62.666 35.667 75.999 63c4 8 6 16.667 6 26c0 19.333 -6.33301 37.666 -19 54.999s-28 29.333 -46 36c-16 -10.667 -36.333 -21.334 -61 -32.001l-62.5 -28c-3 -1.33301 -5.16699 -2 -6.5 -2c-4 0 -6 2.66699 -6 8
c0 3.33301 1.66699 5.66602 5 6.99902l93 42c34.667 16.667 59.667 38.334 75 65.001c4.66699 8 7 16.667 7 26c0 24 -9.66699 47.333 -29 70c-7.33301 8.66699 -19.333 13 -36 13c-28 0 -59.667 -10.667 -95 -32c-55.333 -33.333 -84.666 -50.666 -87.999 -51.999
c-7.33301 -3.33301 -11 -1 -11 7c0 2.66699 1.66699 4.66699 5 6zM170.997 338.003c28 4.66699 44.999 15.333 50.999 32c3.33301 10 5 20.333 5 31c0 19.333 -5.66699 34.333 -17 45c-1.33301 2 -2 3.66699 -2 5c0 5.33301 2.66699 8 8 8c2 0 3.66699 -0.666992 5 -2
c14 -14 21 -32.667 21 -56c0 -32 -11 -54.333 -33 -67c-14 -8 -26.667 -12 -38 -12c-8.66699 0 -13 2.66699 -13 8c-11.333 20 -16.666 34.333 -15.999 43c0 4.66699 2.66699 7 8 7c3.33301 -0.666992 7.33301 -6.66699 12 -18c2.66699 -8 5.66699 -16 9 -24z
M540.996 180.002c12.667 -13.333 19.002 -28.0029 19.002 -44.0029c0 -34 -27.667 -56 -83 -66c-22 -4 -44.667 -6 -68 -6c-120 0 -180 43 -180 129c0 26 7.33301 61.667 22 107c2 7.33301 6 14 12 20c1.33301 2 3 3 5 3c5.33301 0 8 -2.66699 8 -8
c0 -2 -0.666992 -3.66699 -2 -5c-5.33301 -5.33301 -10.666 -17.666 -15.999 -36.999c-8.66699 -31.333 -13 -58 -13 -80c0 -76 57.333 -114 172 -114c85.333 0 128 18.667 128 56c0 25.333 -13.667 41.666 -41 48.999c-4.66699 2 -6.66699 5 -6 9s3.33398 6 8.00098 6
c8 0 21.667 -1.66699 41 -5c17.333 -3.33301 30.666 -4.66602 39.999 -3.99902c-0.666992 22.667 -19.334 51.5 -56.001 86.5s-55 55.167 -55 60.5s2.66699 8 8 8c3.33301 0 5.66602 -1.33301 6.99902 -4c7.33301 -13.333 21.666 -29.666 42.999 -48.999
c24.667 -22 40.667 -37.667 48 -47c14.667 -19.333 21.334 -40.333 20.001 -63c-0.666992 -11.333 -18.334 -12.666 -53.001 -3.99902zM136.998 455.999c0 8.66699 -3.66699 13 -11 13s-11 -4.33301 -11 -13s3.66699 -13 11 -13s11 4.33301 11 13zM151.998 455.999
c0 -18.667 -8.66699 -28 -26 -28s-26 9.33301 -26 28s8.66699 28 26 28s26 -9.33301 26 -28z" />
    <glyph glyph-name="guillemotright" unicode="&#xbb;" horiz-adv-x="590" 
d="M285 217c0 -31.333 -22 -70.666 -66 -117.999c-38 -41.333 -74.667 -71.333 -110 -90c-14 -7.33301 -23 -11 -27 -11c-18 0 -33.667 5.83301 -47 17.5s-20 26.5 -20 44.5c0 20.667 21.5 48.667 64.5 84s64.5 59.666 64.5 72.999c0 12 -21.167 39.5 -63.5 82.5
s-63.5 67.167 -63.5 72.5c0 20 6.5 36 19.5 48s29.833 18 50.5 18c18 0 33 -3.33301 45 -10c2 -1.33301 11.667 -10 29 -26c82.667 -77.333 124 -139 124 -185zM531 217c0 -30.667 -22.333 -70 -67 -118c-38.667 -42 -75 -72 -109 -90c-14 -7.33301 -23 -11 -27 -11
c-17.333 0 -32.833 5.83301 -46.5 17.5s-20.5 26.167 -20.5 43.5c0 21.333 21.5 49.833 64.5 85.5s64.5 59.834 64.5 72.501s-21.167 40.167 -63.5 82.5s-63.5 66.166 -63.5 71.499c0 20.667 6.5 37 19.5 49s29.833 18 50.5 18c16.667 0 31.667 -3.66699 45 -11
c4 -2 13.667 -10.333 29 -25c82.667 -77.333 124 -139 124 -185z" />
    <glyph glyph-name="onequarter" unicode="&#xbc;" horiz-adv-x="634" 
d="M12 690c0 18 18.335 33 55.002 45c21.333 4.66699 44 7 68 7c34 0 57 -6.33301 69 -19c14.667 -15.333 22 -56.333 22 -123c0 -76 -5 -136.333 -15 -181c-4 -18 -28 -27 -72 -27c-40.667 0 -63.667 6.66699 -69 20c-1.33301 8 -2 19 -2 33c0 20 2 49.667 6 89s6 69 6 89
c0 35.333 -7.66699 53 -23 53c-2.66699 0 -6.83398 -0.666992 -12.501 -2s-9.83398 -2 -12.501 -2c-13.333 0 -20 6 -20 18zM182.002 26c-12 -12.667 -26.668 -19.002 -44.001 -19.002c-21.333 0 -42.166 8.5 -62.499 25.5s-30.5 35.833 -30.5 56.5
c0 6.66699 1.33301 13 4 19c28.667 64 79.667 163.333 153 298c69.333 128.667 119.333 228.334 150 299.001c6 14.667 20 22 42 22c24 0 45.833 -8.16699 65.5 -24.5s29.5 -36.166 29.5 -59.499c0 -5.33301 -0.666992 -11 -2 -17zM547.001 20.998
c-19.333 -18 -60.332 -26.999 -122.999 -26.999c-82.667 0 -124 17 -124 51c0 15.333 4.66699 28.666 14 39.999c5.33301 6.66699 14 10 26 10c9.33301 0 23 -2.16699 41 -6.5s31.667 -6.5 41 -6.5c20 0 30 10.667 30 32c0 16 -8.66699 24 -26 24
c-6.66699 0 -16.334 -1 -29.001 -3s-22.334 -3 -29.001 -3c-26 0 -40.667 12.667 -44 38c4 26.667 22.333 40 55 40h15c6.66699 -0.666992 11.334 -1 14.001 -1c25.333 0 37.333 10 36 30c-6 18 -18 27 -36 27c-8.66699 0 -22.5 -3 -41.5 -9s-32.833 -9 -41.5 -9
c-4 0 -7.66699 0.666992 -11 2c-11.333 8.66699 -17 19 -17 31c0 40.667 45 61 135 61c59.333 0 97 -10 113 -30c19.333 -20 29 -42.667 29 -68c0 -28.667 -13 -49.667 -39 -63c34.667 -18 52 -43.333 52 -76c0 -31.333 -13.333 -59.333 -40 -84z" />
    <glyph glyph-name="onehalf" unicode="&#xbd;" horiz-adv-x="645" 
d="M12 690c0 18 18.335 33 55.002 45c21.333 4.66699 44 7 68 7c34 0 57 -6.33301 69 -19c14.667 -15.333 22 -56.333 22 -123c0 -76 -5 -136.333 -15 -181c-4 -18 -28 -27 -72 -27c-40.667 0 -63.667 6.66699 -69 20c-1.33301 8 -2 19 -2 33c0 20 2 49.667 6 89s6 69 6 89
c0 35.333 -7.66699 53 -23 53c-2.66699 0 -6.83398 -0.666992 -12.501 -2s-9.83398 -2 -12.501 -2c-13.333 0 -20 6 -20 18zM311.002 292c27.333 44 73 65.999 137 65.999c29.333 0 56.333 -5.66699 81 -17c30 -13.333 48.333 -32.333 55 -57
c4.66699 -17.333 7 -33.333 7 -48c0 -47.333 -27 -82.666 -81 -105.999c-19.333 -8.66699 -29.333 -14.334 -30 -17.001c20 4.66699 38.333 7 55 7c14 0 25.333 -2 34 -6c17.333 -4.66699 26 -19 26 -43c0 -25.333 -7 -40.666 -21 -45.999
c-4.66699 -8.66699 -52 -13 -142 -13c-72 0 -113.667 5 -125 15c-7.33301 14 -11 27.667 -11 41c0 26 14.667 50.667 44 74c10 8 37.333 24.667 82 50c29.333 16.667 44 30 44 40c0 24 -17 36 -51 36c-14 0 -26 -7.33301 -36 -22s-21.333 -22.334 -34 -23.001
c-32 -1.33301 -48 9.33398 -48 32.001c0 10 4.66699 22.333 14 37zM182.002 25.999c-12 -12.667 -26.668 -19.002 -44.001 -19.002c-21.333 0 -42.166 8.5 -62.499 25.5s-30.5 35.833 -30.5 56.5c0 6.66699 1.33301 13 4 19c28.667 64 79.667 163.333 153 298
c69.333 128.667 119.333 228.334 150 299.001c6 14.667 20 22 42 22c24 0 45.833 -8.16699 65.5 -24.5s29.5 -36.166 29.5 -59.499c0 -5.33301 -0.666992 -11 -2 -17z" />
    <glyph glyph-name="threequarters" unicode="&#xbe;" horiz-adv-x="629" 
d="M12 690c0 18 18.335 33 55.002 45c21.333 4.66699 44 7 68 7c34 0 57 -6.33301 69 -19c14.667 -15.333 22 -56.333 22 -123c0 -76 -5 -136.333 -15 -181c-4 -18 -28 -27 -72 -27c-40.667 0 -63.667 6.66699 -69 20c-1.33301 8 -2 19 -2 33c0 20 2 49.667 6 89s6 69 6 89
c0 35.333 -7.66699 53 -23 53c-2.66699 0 -6.83398 -0.666992 -12.501 -2s-9.83398 -2 -12.501 -2c-13.333 0 -20 6 -20 18zM182.002 26c-12 -12.667 -26.668 -19.002 -44.001 -19.002c-21.333 0 -42.166 8.5 -62.499 25.5s-30.5 35.833 -30.5 56.5
c0 6.66699 1.33301 13 4 19c28.667 64 79.667 163.333 153 298c69.333 128.667 119.333 228.334 150 299.001c6 14.667 20 22 42 22c24 0 45.833 -8.16699 65.5 -24.5s29.5 -36.166 29.5 -59.499c0 -5.33301 -0.666992 -11 -2 -17zM481.001 366.998
c-55.333 5.33301 -105.998 -19.334 -151.998 -74.001c-41.333 -49.333 -62 -97.333 -62 -144c0 -7.33301 0.666992 -13.666 2 -18.999c20.667 -21.333 43.667 -32 69 -32c7.33301 0 17.833 1.83301 31.5 5.5s23.5 5.5 29.5 5.5c6.66699 0 10 -3.33301 10 -10
c0 -4 -1.5 -10.5 -4.5 -19.5s-4.5 -16.167 -4.5 -21.5c0 -8 1.66699 -15.333 5 -22c4.66699 -10 24.667 -15 60 -15c21.333 0 36.333 3.66699 45 11c3.33301 7.33301 5 16.666 5 27.999l-6 43c6.66699 4.66699 16.834 6.83398 30.501 6.50098s22.5 0.833984 26.5 3.50098
c9.33301 6.66699 14 19 14 37c0 32.667 -11.667 49 -35 49c-2.66699 0 -6.83398 -0.5 -12.501 -1.5s-9.83398 -1.5 -12.501 -1.5c-4.66699 0 -7.33398 1.66699 -8.00098 5c3.33301 30.667 5 56.667 5 78c0 59.333 -12 88.666 -36 87.999zM389.003 208.998
c0.666992 4.66699 3.66602 10.5 8.99902 17.5s10 10.5 14 10.5c3.33301 0 5 -7 5 -21c0 -9.33301 -3 -14 -9 -14c-13.333 0 -19.666 2.33301 -18.999 7z" />
    <glyph glyph-name="questiondown" unicode="&#xbf;" horiz-adv-x="550" 
d="M508 152c-16.667 -48.667 -46.666 -85.667 -89.999 -111c-40 -23.333 -87 -35 -141 -35c-48.667 0 -94.334 10 -137.001 30c-52 24.667 -81.667 58 -89 100c-7.33301 21.333 -11 44.666 -11 69.999c0 41.333 9 78.666 27 111.999
c19.333 36.667 46.666 63.334 81.999 80.001c12 6 23 14 33 24l44 45c11.333 24.667 28.333 37 51 37c27.333 0 46.666 -13 57.999 -39c2 -5.33301 4 -9.66602 6 -12.999c5.33301 -16.667 8 -32.667 8 -48c0 -23.333 -9 -43 -27 -59
c-5.33301 -5.33301 -24.666 -18 -57.999 -38c-37.333 -22.667 -56 -45.667 -56 -69c0 -13.333 5.33301 -28.333 16 -45c18 -28.667 43.333 -43 76 -43c48.667 0 92.334 24 131.001 72c54 0 81 -16.667 81 -50c0 -5.33301 -1.33301 -12 -4 -20zM377.001 635
c-3.33301 -58 -37.668 -86.667 -103.001 -86c-44.667 0.666992 -72 23.667 -82 69c-2 8.66699 -3 17 -3 25c0 28.667 9.5 51 28.5 67s43.167 24 72.5 24c28.667 0 51.334 -11.333 68.001 -34c14 -19.333 20.333 -41 19 -65z" />
    <glyph glyph-name="Agrave" unicode="&#xc0;" 
 />
    <glyph glyph-name="Aacute" unicode="&#xc1;" 
 />
    <glyph glyph-name="Acircumflex" unicode="&#xc2;" 
 />
    <glyph glyph-name="Atilde" unicode="&#xc3;" 
 />
    <glyph glyph-name="AE" unicode="&#xc6;" 
 />
    <glyph glyph-name="Egrave" unicode="&#xc8;" 
 />
    <glyph glyph-name="Ecircumflex" unicode="&#xca;" 
 />
    <glyph glyph-name="Edieresis" unicode="&#xcb;" 
 />
    <glyph glyph-name="Igrave" unicode="&#xcc;" 
 />
    <glyph glyph-name="Iacute" unicode="&#xcd;" 
 />
    <glyph glyph-name="Icircumflex" unicode="&#xce;" 
 />
    <glyph glyph-name="Idieresis" unicode="&#xcf;" 
 />
    <glyph glyph-name="Eth" unicode="&#xd0;" 
 />
    <glyph glyph-name="Ograve" unicode="&#xd2;" 
 />
    <glyph glyph-name="Oacute" unicode="&#xd3;" 
 />
    <glyph glyph-name="Ocircumflex" unicode="&#xd4;" 
 />
    <glyph glyph-name="Otilde" unicode="&#xd5;" 
 />
    <glyph glyph-name="Oslash" unicode="&#xd8;" 
 />
    <glyph glyph-name="Ugrave" unicode="&#xd9;" 
 />
    <glyph glyph-name="Uacute" unicode="&#xda;" 
 />
    <glyph glyph-name="Ucircumflex" unicode="&#xdb;" 
 />
    <glyph glyph-name="Yacute" unicode="&#xdd;" 
 />
    <glyph glyph-name="Thorn" unicode="&#xde;" 
 />
    <glyph glyph-name="germandbls" unicode="&#xdf;" 
 />
    <glyph glyph-name="atilde" unicode="&#xe3;" 
 />
    <glyph glyph-name="aring" unicode="&#xe5;" 
 />
    <glyph glyph-name="ae" unicode="&#xe6;" horiz-adv-x="961" 
d="M761 16c-24 21.333 -43.667 31 -59 29v0c-1.33301 -6.66699 -1.66602 -13 -0.999023 -19v-3c6 0 15.667 -1.33301 29 -4s23.666 -3.66699 30.999 -3zM678 23c-5.33301 6.66699 -14.668 11.332 -28.001 13.999l-2 1c-5.33301 2.66699 -20.666 3.33398 -45.999 2.00098
c4 -13.333 29.333 -19 76 -17zM425.998 55.998l-1.00195 1c-13.333 2.66699 -33.666 4.5 -60.999 5.5s-47.666 2.83301 -60.999 5.5c0.666992 -10.667 3 -20.334 7 -29.001h2c5.33301 0 8 -2.33301 8 -7c22.667 -5.33301 41.667 -8 57 -8
c7.33301 0 13.666 0.666992 18.999 2l1 1c12.667 2.66699 22.334 12.334 29.001 29.001zM173.996 103.998c0 12 2.50586 30.8359 7.50586 56.5029s7.16699 45.167 6.5 58.5c-4.66699 0 -13.5 -2.5 -26.5 -7.5s-22.167 -6.83301 -27.5 -5.5
c-7.33301 1.33301 -11 4.33301 -11 9s12.333 18 37 40l1 2c-7.33301 -1.33301 -15.333 -2 -24 -2c-77.333 0 -119.666 35.333 -126.999 106v102c0 8.66699 16 15.667 48 21c25.333 4 46.666 6 63.999 6c4.66699 0 7 -2.33301 7 -7c0 -5.33301 -1.66699 -14.333 -5 -27
s-5 -22.334 -5 -29.001c0 -28.667 8 -43 24 -43c6.66699 0 13.667 3.66699 21 11s12 14.666 14 21.999c1.33301 15.333 5 38 11 68c17.333 44 46.666 76 87.999 96c48.667 23.333 98.334 35 149.001 35c84 0 151 -30 201 -90c13.333 -4 28.666 -6 45.999 -6
c8 0 19.667 0.5 35 1.5s27 1.5 35 1.5c20 0 36.667 -2.33301 50 -7c48 -16.667 79.333 -48.334 94 -95.001c8.66699 -27.333 13 -49 13 -65c0 -8 -1.66699 -17.667 -5 -29c-6 -19.333 -7.66699 -31 -5 -35l1 -1c7.33301 -21.333 10 -47.333 8 -78v0
c-2.66699 -47.333 -15.667 -92.333 -39 -135c-28.667 -52 -64.334 -78 -107.001 -78c-6.66699 0 -16.834 1.5 -30.501 4.5s-24.167 4.5 -31.5 4.5c-4.66699 0 -11.667 -0.333008 -21 -1s-16.333 -1 -21 -1c-43.333 0 -64.333 13 -63 39c0.666992 14 0.666992 21.333 0 22
c-12.667 5.33301 -33.334 8.16602 -62.001 8.49902s-50.334 3.83301 -65.001 10.5c-0.666992 0.666992 -1.33398 1 -2.00098 1l-17 -38c-10 -23.333 -23.333 -36 -40 -38c-9.33301 -3.33301 -19.333 -5 -30 -5c-8.66699 0 -35.667 5.33301 -81 16
c-14 0.666992 -34.333 2.33398 -61 5.00098c-36 4.66699 -54 30 -54 76zM288.002 67.001c-10.667 -5.33301 -25 -8.00098 -43 -8.00098c-14 0 -28.667 -0.333008 -44 -1c10.667 -13.333 41 -20 91 -20h1c-2 6.66699 -3.66699 16.334 -5 29.001zM194.002 73
c21.333 -0.666992 50.6641 1.99609 87.9971 7.99609c2 0.666992 4 0.666992 6 0v12v38c0.666992 21.333 3.66699 32.333 9 33c4.66699 0.666992 7.33398 -1.66602 8.00098 -6.99902c-0.666992 4.66699 -1.33398 -19.666 -2.00098 -72.999c37.333 -2 80 -6.66699 128 -14
c8 22 16.667 33 26 33c2.66699 0 5.33398 -0.666992 8.00098 -2c14 -6.66699 35.333 -10.167 64 -10.5s49.667 -3.16602 63 -8.49902c8 -3.33301 11.333 -12.333 10 -27c26.667 0.666992 43.667 -0.333008 51 -3c14 -2.66699 25 -7.66699 33 -15c0.666992 12.667 8 26 22 40
c1.33301 1.33301 3 2 5 2c5.33301 0 8 -2.66699 8 -8l-13 -11c16 0.666992 37.667 -11 65 -35c2 -1.33301 3 -3 3 -5c29.333 10 54.333 36 75 78c16 33.333 26.667 69.333 32 108v0c-12.667 -4.66699 -26 -7 -40 -7c-16 0 -32.667 3.33301 -50 10
c-24 6.66699 -36 23.334 -36 50.001c0 31.333 20 47 60 47c14.667 0 27.334 -4 38.001 -12c2 -1.33301 3 -3.33301 3 -6c0 -5.33301 -2.66699 -8 -8 -8c-1.33301 0 -2.66602 0.666992 -3.99902 2c-12 9.33301 -32.333 10.666 -61 3.99902c-8.66699 -2 -13 -11.333 -13 -28
c0 -6.66699 1 -13 3 -19l1 -1c2 -6.66699 9.33301 -11.667 22 -15c15.333 -6 30 -9 44 -9c10.667 0 21 1.66699 31 5c0.666992 0.666992 1 1.66699 1 3l1 1c1.33301 4 4.33301 5.66699 9 5c0 24.667 -2.33301 43.667 -7 57c-4.66699 8 -3.33398 23.667 3.99902 47
c2 6.66699 3 14.667 3 24c0 10.667 -3.66699 31 -11 61c-10 26.667 -26.167 48.334 -48.5 65.001s-47.833 25.334 -76.5 26.001c-21.333 -1.33301 -53.333 -2 -96 -2c-19.333 1.33301 -31 4.33301 -35 9c-47.333 57.333 -111 86 -191 86c-48.667 0 -96.334 -11 -143.001 -33
c-22.667 -10.667 -42 -27.167 -58 -49.5s-25.333 -45.833 -28 -70.5l-4 -35c-3.33301 -13.333 -11.666 -25 -24.999 -35c0 -3.33301 0.833008 -8 2.5 -14s2.5 -10.667 2.5 -14c0 -4.66699 -2.66699 -7 -8 -7c-3.33301 0 -7 9.33301 -11 28c-4 -1.33301 -7.66699 -2 -11 -2
c-4.66699 0 -9 1 -13 3l-23 -42c-1.33301 -3.33301 -3.33301 -5 -6 -5c-8.66699 0 -11 3.66699 -7 11c6 13.333 14.333 28.666 25 45.999c-5.33301 6 -9.33301 13.333 -12 22v-1c-9.33301 -6 -24.333 -12.667 -45 -20c-4.66699 -0.666992 -7.66699 1.33301 -9 6
c-0.666992 4 3.33301 8 12 12c6.66699 2.66699 13 5.33398 19 8.00098c11.333 6 18 9 20 9c-2 15.333 0.333008 34.333 7 57c-33.333 -0.666992 -62 -6 -86 -16c0.666992 -7.33301 0.666992 -18.333 0 -33c-0.666992 -15.333 -1 -27 -1 -35c0 -80 33.333 -120 100 -120
c6 0 14.667 0.833008 26 2.5s20 2.5 26 2.5c8 0 11 -3.33301 9 -10c-2.66699 -8.66699 -8.66699 -17.334 -18 -26.001c-8 -6 -16 -12.333 -24 -19c24 8.66699 39.333 13 46 13c8.66699 0 13.334 -4.33301 14.001 -13c0.666992 -14 -1.33301 -33.333 -6 -58
c-5.33301 -26.667 -8 -46 -8 -58c0 -11.333 1.66699 -22 5 -32zM383 518.996c4.66699 0.666992 8.33301 1.00488 11 1.00488c12.667 3.33301 24.334 5 35.001 5c37.333 0 62.333 -28.667 75 -86c7.33301 -32.667 11 -57.334 11 -74.001
c0 -42.667 -15.333 -74.334 -46 -95.001c-20 -13.333 -42 -20 -66 -20c-9.33301 0 -18.666 1 -27.999 3l-1 1c-8.66699 4 -13 12 -13 24c0 4 0.5 8.16699 1.5 12.5s3.83301 6.16602 8.5 5.49902c5.33301 -1.33301 7.33301 -4.33301 6 -9
c-1.33301 -8 -0.333008 -14.333 3 -19c7.33301 -2 15 -3 23 -3c20.667 0 39.667 5.66699 57 17s28.666 26.666 33.999 45.999c3.33301 11.333 5 23.666 5 36.999c0 17.333 -3 39.333 -9 66c-6 30 -13.333 50.667 -22 62s-22 17 -40 17
c-8.66699 0 -19.334 -1.66699 -32.001 -5h-1c-2.66699 0 -6.5 -0.5 -11.5 -1.5s-8.83301 -1.5 -11.5 -1.5c-4.66699 0 -7 2.66699 -7 8c0 3.33301 6 6.33301 18 9zM261.999 414.001c28.667 -4 41.999 -6.00195 39.999 -6.00195c5.33301 0 8 -2.66699 8 -8
c0 -4.66699 -2.66699 -7 -8 -7c-2.66699 0 -14.667 1.66699 -36 5c14.667 -13.333 22 -21.666 22 -24.999c0 -5.33301 -2.66699 -8 -8 -8c-2.66699 0 -4.66699 1 -6 3l-37 37c-3.33301 2 -4.66602 5.33301 -3.99902 10c0.666992 4 2.66699 6 6 6c2 0 3.66699 -0.666992 5 -2
l2 2l2 1c4 4.66699 11 8.83398 21 12.501s15.833 6.33398 17.5 8.00098s3.5 2.5 5.5 2.5c5.33301 0 8 -2.33301 8 -7s-5.33301 -9.33398 -16 -14.001c-14 -6 -21.333 -9.33301 -22 -10z" />
    <glyph glyph-name="ccedilla" unicode="&#xe7;" 
 />
    <glyph glyph-name="egrave" unicode="&#xe8;" 
 />
    <glyph glyph-name="eacute" unicode="&#xe9;" 
 />
    <glyph glyph-name="ecircumflex" unicode="&#xea;" 
 />
    <glyph glyph-name="edieresis" unicode="&#xeb;" 
 />
    <glyph glyph-name="igrave" unicode="&#xec;" 
 />
    <glyph glyph-name="iacute" unicode="&#xed;" 
 />
    <glyph glyph-name="icircumflex" unicode="&#xee;" 
 />
    <glyph glyph-name="idieresis" unicode="&#xef;" 
 />
    <glyph glyph-name="eth" unicode="&#xf0;" 
 />
    <glyph glyph-name="ntilde" unicode="&#xf1;" 
 />
    <glyph glyph-name="ograve" unicode="&#xf2;" 
 />
    <glyph glyph-name="oacute" unicode="&#xf3;" 
 />
    <glyph glyph-name="ocircumflex" unicode="&#xf4;" 
 />
    <glyph glyph-name="otilde" unicode="&#xf5;" 
 />
    <glyph glyph-name="odieresis" unicode="&#xf6;" 
 />
    <glyph glyph-name="divide" unicode="&#xf7;" horiz-adv-x="585" 
d="M42 475c44 8.66699 111.334 13 202.001 13c107.333 0 188.666 -4.33301 243.999 -13c30 -4.66699 45 -29.667 45 -75c0 -36.667 -11.667 -64.667 -35 -84c-71.333 -8 -164 -12 -278 -12c-80 0 -141.667 2.66699 -185 8c-20.667 10.667 -31 36 -31 76
c0 45.333 12.667 74.333 38 87zM208.001 292c15.333 6 31.333 8.99902 48 8.99902c43.333 0 78 -23.667 104 -71c7.33301 -13.333 11 -28.666 11 -45.999c0 -38.667 -18 -69 -54 -91c-17.333 -10.667 -36.333 -16 -57 -16c-32 0 -59.167 11.333 -81.5 34s-33.5 50 -33.5 82
c0 49.333 21 82.333 63 99zM214.001 700.999c15.333 6 31.333 8.99902 48 8.99902c43.333 0 78 -23.667 104 -71c7.33301 -13.333 11 -28.666 11 -45.999c0 -38.667 -18 -69 -54 -91c-17.333 -10.667 -36.333 -16 -57 -16c-32 0 -59.167 11.333 -81.5 34s-33.5 50 -33.5 82
c0 49.333 21 82.333 63 99z" />
    <glyph glyph-name="oslash" unicode="&#xf8;" horiz-adv-x="978" 
d="M306 532c-1.33301 2 -2 7.00195 -2 15.002c0 23.333 7.33301 41.666 22 54.999c-18 -0.666992 -34.333 -1 -49 -1c-7.33301 -3.33301 -17 -17.333 -29 -42c-10 -20.667 -15 -32.334 -15 -35.001v-4c24.667 6 49 10 73 12zM630 106.002c6 -0.666992 9 -11.001 9 -31.001
c0 -8.66699 -3.33301 -14.667 -10 -18c-72.667 -38 -149.667 -57 -231 -57c-110 0 -167.333 9.66699 -172 29c-0.666992 2.66699 -1 6.33398 -1 11.001c0 11.333 0.333008 18.333 1 21c-50.667 7.33301 -86.667 16 -108 26c-30 14 -57.333 39 -82 75
c-4.66699 2.66699 -10 8.33398 -16 17.001v0c-7.33301 28 -11 55.667 -11 83c0 128 70 212.333 210 253c-0.666992 2 -1 4.33301 -1 7c0 5.33301 7.33301 23.333 22 54c13.333 27.333 25.666 41 36.999 41c20.667 0 51.667 1.16699 93 3.5s72.333 3.5 93 3.5
c58 0 105.667 -6.66699 143 -20c16 -6 24 -19.333 24 -40c0 -16.667 -3.66699 -31.334 -11 -44.001c30.667 -11.333 63 -27 97 -47c13.333 -8 28 -23 44 -45l49 65c19.333 25.333 41.666 38 66.999 38c3.33301 0 6 -1.66699 8 -5c11.333 -27.333 22 -73.666 32 -138.999
c9.33301 -60 14 -108 14 -144c0 -10.667 -0.333008 -26.167 -1 -46.5s-1 -35.833 -1 -46.5c0 -4.66699 -2.5 -7.33398 -7.5 -8.00098s-9.83301 -1 -14.5 -1c-6.66699 -0.666992 -12 -1 -16 -1c-9.33301 0 -28.666 8.5 -57.999 25.5s-47.333 25.5 -54 25.5
c-12.667 0 -28.667 -7.33301 -48 -22c-9.33301 -8 -23.666 -19.333 -42.999 -34c-15.333 -11.333 -34.333 -21 -57 -29zM475 36.001l7.00098 -13.001c35.333 6.66699 82.666 22.667 141.999 48v2c0 2 -0.666992 8.33301 -2 19c-2.66699 1.33301 -4 3.66602 -4 6.99902
c0 2 0.666992 3.33301 2 4c-20 -5.33301 -40.667 -9.66602 -62 -12.999c0 -8 2 -15.333 6 -22l6 -10c0 -5.33301 -2.33301 -8 -7 -8c-11.333 0 -18 13 -20 39c-9.33301 -1.33301 -23 -3.66602 -41 -6.99902h-2c-10.667 -3.33301 -22 -6.33301 -34 -9
c1.33301 -0.666992 2 -5 2 -13s2.33301 -16 7 -24zM395.001 61c-2 -14.667 -4.33301 -30 -7 -46l14 1c14.667 0.666992 36 2 64 4c-8.66699 11.333 -13 24.333 -13 39c0 5.33301 0.666992 9.33301 2 12c-19.333 -4 -39.333 -7.33301 -60 -10zM285.001 20v7.00098
c0 10.667 1.33301 20 4 28c-16 0.666992 -32 2 -48 4c0 -2.66699 -0.333008 -6.33398 -1 -11.001v-8c0 -3.33301 0.333008 -6 1 -8c11.333 -5.33301 26 -9.33301 44 -12zM304.001 55.001c-0.666992 -8.66699 -1.66602 -21 -2.99902 -37c18 -2 43 -3 75 -3
c-1.33301 1.33301 -2 3 -2 5c0 15.333 1.33301 28.333 4 39c-24.667 -2 -49.334 -3.33301 -74.001 -4zM103.002 157.001c5.33301 0 12.6699 1.66895 22.0029 5.00195s14.666 5 15.999 5c5.33301 0 8 -2.66699 8 -8c0 -6 -6.66699 -10.667 -20 -14
c-10 -2.66699 -19 -4 -27 -4c-10.667 0 -21.667 1.33301 -33 4l21 -22c16.667 -18 49 -31.667 97 -41c37.333 -7.33301 73.666 -11 108.999 -11c24 0 54 2 90 6c0.666992 0.666992 1.33398 1 2.00098 1h2c39.333 5.33301 75 11.666 107 18.999
c6 1.33301 27.667 4.33301 65 9c52.667 6.66699 99 26.334 139 59.001c33.333 27.333 58.666 41 75.999 41c10 0 29.667 -8.5 59 -25.5s47.666 -25.5 54.999 -25.5c2.66699 0 10 0.666992 22 2c0 9.33301 0.333008 23.666 1 42.999s1 33.666 1 42.999
c0 6 -0.333008 12.667 -1 20c-0.666992 -0.666992 -1.66699 -1 -3 -1h-63c-5.33301 0 -8 2.66699 -8 8s2.66699 8 8 8h63c1.33301 -0.666992 2.33301 -1 3 -1c-2 32 -6 66.333 -12 103c0 -0.666992 -10.333 -3 -31 -7c-11.333 -2.66699 -19.666 -4 -24.999 -4
c-10 0 -15 3 -15 9c0 3.33301 5.66699 6 17 8c8 0.666992 15.667 1.66699 23 3c10.667 2 18.667 3 24 3c2 0 3.66699 -0.666992 5 -2c-8 48 -17.667 89.667 -29 125c-20 -2.66699 -43.167 -21.167 -69.5 -55.5s-40.5 -51.5 -42.5 -51.5l-22.5 24.5
c-15 16.333 -24.5 25.5 -28.5 27.5c-68.667 39.333 -124.667 59 -168 59c-10 0 -25.167 0.833008 -45.5 2.5s-35.5 2.5 -45.5 2.5c-0.666992 0 -10 -0.666992 -28 -2c-30.667 -1.33301 -85.334 -5.33301 -164.001 -12c-155.333 -35.333 -233 -118 -233 -248
c0 -26 3.33301 -52 10 -78c7.33301 -5.33301 14 -12.333 20 -21h1c5.33301 0 13.333 -1 24 -3s18.667 -3 24 -3zM566.006 599.003c-6 -12.667 -13 -32.001 -21 -58.001c-1.33301 -4 -4 -6 -8 -6c-4.66699 0 -7 3 -7 9s2.66699 15.333 8 28c4 8.66699 8.33301 18.667 13 30
c-12.667 2.66699 -26.334 4.33398 -41.001 5.00098c-0.666992 -1.33301 -2 -3 -4 -5c-8.66699 -5.33301 -16.667 -17.166 -24 -35.499s-11.666 -27.833 -12.999 -28.5c35.333 -1.33301 58 -2.33301 68 -3c26 -2 48.333 -5.66699 67 -11c7.33301 17.333 11 30 11 38
c0 13.333 -5.33301 22.666 -16 27.999c-4 2 -15 5 -33 9zM381.006 535.002l-0.000976562 0.999023v18c0 24.667 5.33301 42.334 16 53.001l-46 -3c0 -2 -1.33301 -3.66699 -4 -5c-12 -6.66699 -20 -16 -24 -28c-1.33301 -6 -2.66602 -18.667 -3.99902 -38
c14 0 34.667 0.666992 62 2zM396.005 535.001c39.333 2.66699 56.668 4.00098 52.001 4.00098h17c-3.33301 1.33301 -5 3.66602 -5 6.99902c0 7.33301 3.33301 18 10 32s12.667 24 18 30c-8 0.666992 -16.333 1 -25 1c-12.667 0 -26.667 -0.333008 -42 -1
c0 -2.66699 -1.33301 -4.66699 -4 -6c-10.667 -5.33301 -17.334 -15.333 -20.001 -30c0 -12 -0.333008 -24.333 -1 -37zM302.007 252.002c0 -52 -9.66699 -87 -29 -105c-1.33301 -1.33301 -3 -2 -5 -2c-5.33301 0 -8 2.66699 -8 8c0 1.33301 1 3 3 5c16 20 24 51.333 24 94
c0 42 -3.66699 74.667 -11 98c-9.33301 28 -27.333 55.333 -54 82c-2 2 -3 4 -3 6c0 5.33301 2.66699 8 8 8c1.33301 0 3 -0.666992 5 -2c46.667 -38 70 -102 70 -192zM561.007 399.002c38 0 57 -3 57 -9c0 -4 -2.66699 -6.33301 -8 -7c6 0.666992 -10.333 1 -49 1
c-22 0 -54.5 -0.666992 -97.5 -2s-75.5 -2 -97.5 -2c-4.66699 0 -7 2.33301 -7 7c0 5.33301 2.33301 8 7 8c22 0 54.5 0.666992 97.5 2s75.5 2 97.5 2zM654.007 284.002c5.33301 0 8 -2.66699 8 -8c0 -4 -2.33301 -6.33301 -7 -7c-13.333 -2.66699 -63.666 -7 -150.999 -13
c-8 -0.666992 -26.333 -2.66699 -55 -6c-18.667 -2 -36.334 -3 -53.001 -3c-6 0 -9 2.33301 -9 7c0 4 2.5 6.5 7.5 7.5s55.167 5.16699 150.5 12.5c8 0.666992 26.333 2.66699 55 6c24.667 2.66699 42.667 4 54 4zM845.007 338.002h54c4.66699 0 7 -2.66699 7 -8
c0 -4.66699 -2.33301 -7 -7 -7h-54c-5.33301 0 -8 2.33301 -8 7c0 5.33301 2.66699 8 8 8zM159.007 272.002h-15c-7.33301 0 -14 6 -20 18c-5.33301 10 -8 19 -8 27c0 25.333 11 38 33 38c24 0 36 -12.667 36 -38c0 -30 -8.66699 -45 -26 -45zM170.007 317.002
c0 15.333 -7 23.002 -21 23.002c-2 0 -4 -0.333008 -6 -1c-7.33301 -4.66699 -11 -12.334 -11 -23.001c0 -12.667 5 -22.334 15 -29.001h11c8 0 12 10 12 30z" />
    <glyph glyph-name="ugrave" unicode="&#xf9;" 
 />
    <glyph glyph-name="uacute" unicode="&#xfa;" 
 />
    <glyph glyph-name="ucircumflex" unicode="&#xfb;" 
 />
    <glyph glyph-name="udieresis" unicode="&#xfc;" 
 />
    <glyph glyph-name="thorn" unicode="&#xfe;" 
 />
    <glyph glyph-name="ydieresis" unicode="&#xff;" 
 />
    <glyph glyph-name="dotlessi" unicode="&#x131;" 
 />
    <glyph glyph-name="Lslash" unicode="&#x141;" 
 />
    <glyph glyph-name="lslash" unicode="&#x142;" 
 />
    <glyph glyph-name="OE" unicode="&#x152;" 
 />
    <glyph glyph-name="oe" unicode="&#x153;" 
 />
    <glyph glyph-name="Scaron" unicode="&#x160;" 
 />
    <glyph glyph-name="scaron" unicode="&#x161;" 
 />
    <glyph glyph-name="Ydieresis" unicode="&#x178;" 
 />
    <glyph glyph-name="Zcaron" unicode="&#x17d;" 
 />
    <glyph glyph-name="zcaron" unicode="&#x17e;" 
 />
    <glyph glyph-name="florin" unicode="&#x192;" 
 />
    <glyph glyph-name="circumflex" unicode="&#x2c6;" 
 />
    <glyph glyph-name="caron" unicode="&#x2c7;" 
 />
    <glyph glyph-name="breve" unicode="&#x2d8;" 
 />
    <glyph glyph-name="dotaccent" unicode="&#x2d9;" 
 />
    <glyph glyph-name="ring" unicode="&#x2da;" 
 />
    <glyph glyph-name="ogonek" unicode="&#x2db;" 
 />
    <glyph glyph-name="tilde" unicode="&#x2dc;" 
 />
    <glyph glyph-name="hungarumlaut" unicode="&#x2dd;" 
 />
    <glyph glyph-name="Delta" unicode="&#x394;" 
 />
    <glyph glyph-name="Delta" unicode="&#x2206;" 
 />
    <glyph glyph-name="Omega" unicode="&#x3a9;" horiz-adv-x="748" 
d="M378 527c16 -34.667 26.665 -77.668 31.998 -129.001c30 6.66699 60.333 10 91 10c104 0 166.333 -33.333 187 -100c4 -13.333 8 -35.333 12 -66c2 -16 3 -32 3 -48c0 -57.333 -16.333 -106.666 -49 -147.999c-21.333 -26.667 -47 -40 -77 -40c-20 0 -32 5 -36 15
c-14.667 -10.667 -29.667 -16 -45 -16c-12 0 -22.333 4.66699 -31 14c-4 4.66699 -6 12.167 -6 22.5s-0.333008 16.166 -1 17.499c-34 -6.66699 -83.333 -10 -148 -10c-1.33301 0 -7.33301 -5.33301 -18 -16s-18.334 -17 -23.001 -19c-23.333 -9.33301 -43.333 -14 -60 -14
c-4.66699 0 -10 2.16699 -16 6.5s-10.333 6.83301 -13 7.5c-22.667 -9.33301 -40.334 -12.666 -53.001 -9.99902h-1c-14 6 -23.667 10.667 -29 14c-8 5.33301 -14.333 14 -19 26c-4 1.33301 -6 4 -6 8v3c-13.333 25.333 -20 55 -20 89c0 10.667 1 29.667 3 57
c2 24 2.66699 43.333 2 58c-26 38.667 -39 83 -39 133c0 28 4.33301 56.667 13 86h-1c-5.33301 2 -11.666 7.33301 -18.999 16c-1.33301 4.66699 -2 9.66699 -2 15c0 20 7.5 38.333 22.5 55s32.5 25 52.5 25c4 0 8.83301 -0.666992 14.5 -2s11.167 -7.16602 16.5 -17.499
s8.66602 -15.5 9.99902 -15.5c2.66699 0 8.33398 2.33301 17.001 7l17 9c22.667 10 46.334 15 71.001 15c12.667 0 25.334 -1.33301 38.001 -4c2 -0.666992 9.33301 4.5 22 15.5s20.834 17 24.501 18s7.16699 1.5 10.5 1.5c14.667 0 30 -6.83301 46 -20.5
s24 -27.834 24 -42.501c0 -8 -5.66699 -16.667 -17 -26zM555.998 71.999c0 -8.66699 -1.00293 -21.002 -3.00293 -37.002c0 -2 0.666992 -4.66699 2 -8c6 -3.33301 13 -5 21 -5c27.333 0 49.666 11 66.999 33c29.333 37.333 44 84 44 140c0 22.667 -2.33301 48.667 -7 78
c-6 37.333 -19.333 64 -40 80c-34.667 26.667 -81 40 -139 40c-31.333 0 -63.333 -3.66699 -96 -11c-5.33301 -1.33301 -8.33301 0.666992 -9 6c-4.66699 34 -8.33398 57 -11.001 69c-5.33301 24.667 -12.666 46.667 -21.999 66c-0.666992 2 -1 3.66699 -1 5
c0 3.33301 3.33301 7.83301 10 13.5s9.33398 9.83398 8.00098 12.501c-16.667 35.333 -37.334 50.666 -62.001 45.999c-2 -1.33301 -10.333 -8.33301 -25 -21c-11.333 -10 -20.666 -14.333 -27.999 -13c-13.333 2.66699 -25 4 -35 4c-27.333 0 -55.333 -8 -84 -24
c-8 -4.66699 -15 -7 -21 -7c-8 0 -14.833 5.5 -20.5 16.5s-9.66699 16.833 -12 17.5s-5.16602 1 -8.49902 1c-16 0 -30 -6.66699 -42 -20s-18 -28 -18 -44c0 -8.66699 4 -15.167 12 -19.5s11 -9.83301 9 -16.5c-7.33301 -26.667 -11 -54 -11 -82
c0 -47.333 12.333 -89.333 37 -126c2.66699 -3.33301 3 -21.666 1 -54.999c-1.33301 -12.667 -2.66602 -31.667 -3.99902 -57c-2 -40 3.66699 -73 17 -99c0.666992 0.666992 1.33398 1 2.00098 1l4 -3c5.33301 -14.667 18.666 -26 39.999 -34
c9.33301 -2 22.333 0.333008 39 7c-6 22.667 -7.66699 42.334 -5 59.001c0.666992 4.66699 3.33398 6.66699 8.00098 6c5.33301 -0.666992 7.66602 -3.33398 6.99902 -8.00098c-2.66699 -15.333 -1 -33.666 5 -54.999c2.66699 -0.666992 6.83398 -2.83398 12.501 -6.50098
s9.5 -5.5 11.5 -5.5c29.333 0 50.666 7.33301 63.999 22c16 18 28.333 27 37 27c62.667 0 111.334 3.33301 146.001 10c12 2 18 -6.33301 18 -25c0 -12.667 0.666992 -19.667 2 -21c5.33301 -6.66699 11.666 -10 18.999 -10c6.66699 0 21 6.66699 43 20
c0.666992 10 2 22.333 4 37c0.666992 4.66699 3.66699 6.33398 9 5.00098c4.66699 -1.33301 6.33398 -4.33301 5.00098 -9zM641.995 285.997h1.00098c1.33301 7.33301 -2 11.333 -10 12c-6 1.33301 -12 0.333008 -18 -3c-3.33301 -1.33301 -5 -5.33301 -5 -12
c0 -7.33301 1.66699 -14.333 5 -21l1 -2c4 -16 14.667 -24 32 -24c5.33301 0 8 -2.66699 8 -8s-2.66699 -8 -8 -8c-24.667 0 -40.334 12 -47.001 36c-4 8.66699 -6 17.667 -6 27c0 20.667 11.333 31 34 31c19.333 0 29 -8 29 -24c0 -12.667 -3.33301 -19 -10 -19h-6
c-5.33301 0 -8 2.33301 -8 7c0 5.33301 2.66699 8 8 8zM246.996 452.997c34.667 0 54.667 -13.999 60 -41.999v-2c0 -4 0.5 -10.333 1.5 -19s1.5 -15 1.5 -19c-1.33301 -6.66699 -4 -12.334 -8 -17.001v-1c-6 -6.66699 -17 -16 -33 -28c-16 -6.66699 -34 -10 -54 -10
c-15.333 0 -34.333 2 -57 6c-10 0.666992 -17.667 8 -23 22c-4.66699 10.667 -7 22 -7 34c0 20.667 6 37 18 49c6 6 10.667 9.33301 14 10c6.66699 1.33301 10.667 2.33301 12 3l1 1c31.333 8.66699 56 13 74 13zM177.996 425.998
c-3.33301 0 -10.668 -3.66602 -22.001 -10.999c-8.66699 -8.66699 -13 -21.334 -13 -38.001c0 -24 5.33301 -37.667 16 -41h1c22.667 -4 41.667 -6 57 -6c28.667 0 48.667 6.33301 60 19c2.66699 2.66699 7.33398 7.66699 14.001 15c2.66699 4 3.66699 11 3 21
c0 3.33301 -0.666992 11 -2 23c-4.66699 20.667 -19.334 31 -44.001 31c-17.333 0 -40.666 -4.33301 -69.999 -13zM202.994 358.999c0 -5.33301 -2.33301 -8 -7 -8h-3c-14.667 -4 -24 0 -28 12c-4.66699 14 -3.33398 27.333 3.99902 40c2 4 7 6 15 6s13 -2.33301 15 -7
c6.66699 -11.333 9.33398 -22.333 8.00098 -33c-0.666992 -4 -2 -7.33301 -4 -10zM180.994 393.999c-2 -2.66699 -2.99902 -7.66895 -2.99902 -15.002c-0.666992 -8 0.666016 -12.333 3.99902 -13h7c1.33301 0.666992 2.33301 2.33398 3 5.00098
c0.666992 6.66699 -1 14.334 -5 23.001h-6zM258.995 364.997l-3.00098 0.000976562c-2 -0.666992 -4.66699 -1 -8 -1c-2 0 -4.66699 0.333008 -8 1c-5.33301 2 -9 6 -11 12c-5.33301 14.667 -4 27.667 4 39c2 4.66699 7 7 15 7s13 -2.33301 15 -7
c6.66699 -11.333 9.33398 -22.333 8.00098 -33c-0.666992 -2.66699 -1.5 -6.33398 -2.5 -11.001s-4.16699 -7 -9.5 -7zM244.994 406.998c-2 -3.33301 -3.33301 -8.33398 -4 -15.001c-0.666992 -8 1 -12.333 5 -13c2 0 4 0.333008 6 1s3.33301 2.33398 4 5.00098
c0.666992 6.66699 -1.33301 14 -6 22h-5zM199.994 305.997c43.333 -5.33301 71.333 -0.666992 84 14c1.33301 2 3 3 5 3c5.33301 0 8 -2.66699 8 -8c0 -12 -14.667 -19.667 -44 -23c-20.667 -2.66699 -39 -3 -55 -1c-4.66699 0.666992 -6.66699 3.33398 -6 8.00098
c0 5.33301 2.66699 7.66602 8 6.99902zM134.994 443.996c-6.66699 0 -11.001 3 -13.001 9l-1 1c-1.33301 2.66699 -2 6 -2 10c0 18 7.66699 27 23 27c14 0 21 -8 21 -24c0 -14.667 -4.66699 -22 -14 -22h-10c-1.33301 -0.666992 -2.66602 -1 -3.99902 -1zM134.993 459.996
l10.999 0.000976562c2.66699 2 3.33398 5 2.00098 9s-3.33301 6 -6 6c-5.33301 0 -8 -2.33301 -8 -7c0 -2.66699 0.333008 -5.33398 1 -8.00098zM275.992 467.997c-6.66699 0 -11 2.66699 -13 8l-1 1c-1.33301 2.66699 -2 6 -2 10c0 18 7.66699 27 23 27c14 0 21 -8 21 -24
c0 -14 -4.66699 -21 -14 -21h-7c-0.666992 0 -1.66699 -0.333008 -3 -1h-4zM275.992 482.997h4c1.33301 0.666992 2.33301 1 3 1h4c2 2 2.66699 5 2 9c-1.33301 4 -3.33301 6 -6 6c-5.33301 0 -8 -2.66699 -8 -8c0 -2 0.333008 -4.66699 1 -8z" />
    <glyph glyph-name="Omega" unicode="&#x2126;" horiz-adv-x="748" 
d="M378 527c16 -34.667 26.665 -77.668 31.998 -129.001c30 6.66699 60.333 10 91 10c104 0 166.333 -33.333 187 -100c4 -13.333 8 -35.333 12 -66c2 -16 3 -32 3 -48c0 -57.333 -16.333 -106.666 -49 -147.999c-21.333 -26.667 -47 -40 -77 -40c-20 0 -32 5 -36 15
c-14.667 -10.667 -29.667 -16 -45 -16c-12 0 -22.333 4.66699 -31 14c-4 4.66699 -6 12.167 -6 22.5s-0.333008 16.166 -1 17.499c-34 -6.66699 -83.333 -10 -148 -10c-1.33301 0 -7.33301 -5.33301 -18 -16s-18.334 -17 -23.001 -19c-23.333 -9.33301 -43.333 -14 -60 -14
c-4.66699 0 -10 2.16699 -16 6.5s-10.333 6.83301 -13 7.5c-22.667 -9.33301 -40.334 -12.666 -53.001 -9.99902h-1c-14 6 -23.667 10.667 -29 14c-8 5.33301 -14.333 14 -19 26c-4 1.33301 -6 4 -6 8v3c-13.333 25.333 -20 55 -20 89c0 10.667 1 29.667 3 57
c2 24 2.66699 43.333 2 58c-26 38.667 -39 83 -39 133c0 28 4.33301 56.667 13 86h-1c-5.33301 2 -11.666 7.33301 -18.999 16c-1.33301 4.66699 -2 9.66699 -2 15c0 20 7.5 38.333 22.5 55s32.5 25 52.5 25c4 0 8.83301 -0.666992 14.5 -2s11.167 -7.16602 16.5 -17.499
s8.66602 -15.5 9.99902 -15.5c2.66699 0 8.33398 2.33301 17.001 7l17 9c22.667 10 46.334 15 71.001 15c12.667 0 25.334 -1.33301 38.001 -4c2 -0.666992 9.33301 4.5 22 15.5s20.834 17 24.501 18s7.16699 1.5 10.5 1.5c14.667 0 30 -6.83301 46 -20.5
s24 -27.834 24 -42.501c0 -8 -5.66699 -16.667 -17 -26zM555.998 71.999c0 -8.66699 -1.00293 -21.002 -3.00293 -37.002c0 -2 0.666992 -4.66699 2 -8c6 -3.33301 13 -5 21 -5c27.333 0 49.666 11 66.999 33c29.333 37.333 44 84 44 140c0 22.667 -2.33301 48.667 -7 78
c-6 37.333 -19.333 64 -40 80c-34.667 26.667 -81 40 -139 40c-31.333 0 -63.333 -3.66699 -96 -11c-5.33301 -1.33301 -8.33301 0.666992 -9 6c-4.66699 34 -8.33398 57 -11.001 69c-5.33301 24.667 -12.666 46.667 -21.999 66c-0.666992 2 -1 3.66699 -1 5
c0 3.33301 3.33301 7.83301 10 13.5s9.33398 9.83398 8.00098 12.501c-16.667 35.333 -37.334 50.666 -62.001 45.999c-2 -1.33301 -10.333 -8.33301 -25 -21c-11.333 -10 -20.666 -14.333 -27.999 -13c-13.333 2.66699 -25 4 -35 4c-27.333 0 -55.333 -8 -84 -24
c-8 -4.66699 -15 -7 -21 -7c-8 0 -14.833 5.5 -20.5 16.5s-9.66699 16.833 -12 17.5s-5.16602 1 -8.49902 1c-16 0 -30 -6.66699 -42 -20s-18 -28 -18 -44c0 -8.66699 4 -15.167 12 -19.5s11 -9.83301 9 -16.5c-7.33301 -26.667 -11 -54 -11 -82
c0 -47.333 12.333 -89.333 37 -126c2.66699 -3.33301 3 -21.666 1 -54.999c-1.33301 -12.667 -2.66602 -31.667 -3.99902 -57c-2 -40 3.66699 -73 17 -99c0.666992 0.666992 1.33398 1 2.00098 1l4 -3c5.33301 -14.667 18.666 -26 39.999 -34
c9.33301 -2 22.333 0.333008 39 7c-6 22.667 -7.66699 42.334 -5 59.001c0.666992 4.66699 3.33398 6.66699 8.00098 6c5.33301 -0.666992 7.66602 -3.33398 6.99902 -8.00098c-2.66699 -15.333 -1 -33.666 5 -54.999c2.66699 -0.666992 6.83398 -2.83398 12.501 -6.50098
s9.5 -5.5 11.5 -5.5c29.333 0 50.666 7.33301 63.999 22c16 18 28.333 27 37 27c62.667 0 111.334 3.33301 146.001 10c12 2 18 -6.33301 18 -25c0 -12.667 0.666992 -19.667 2 -21c5.33301 -6.66699 11.666 -10 18.999 -10c6.66699 0 21 6.66699 43 20
c0.666992 10 2 22.333 4 37c0.666992 4.66699 3.66699 6.33398 9 5.00098c4.66699 -1.33301 6.33398 -4.33301 5.00098 -9zM641.995 285.997h1.00098c1.33301 7.33301 -2 11.333 -10 12c-6 1.33301 -12 0.333008 -18 -3c-3.33301 -1.33301 -5 -5.33301 -5 -12
c0 -7.33301 1.66699 -14.333 5 -21l1 -2c4 -16 14.667 -24 32 -24c5.33301 0 8 -2.66699 8 -8s-2.66699 -8 -8 -8c-24.667 0 -40.334 12 -47.001 36c-4 8.66699 -6 17.667 -6 27c0 20.667 11.333 31 34 31c19.333 0 29 -8 29 -24c0 -12.667 -3.33301 -19 -10 -19h-6
c-5.33301 0 -8 2.33301 -8 7c0 5.33301 2.66699 8 8 8zM246.996 452.997c34.667 0 54.667 -13.999 60 -41.999v-2c0 -4 0.5 -10.333 1.5 -19s1.5 -15 1.5 -19c-1.33301 -6.66699 -4 -12.334 -8 -17.001v-1c-6 -6.66699 -17 -16 -33 -28c-16 -6.66699 -34 -10 -54 -10
c-15.333 0 -34.333 2 -57 6c-10 0.666992 -17.667 8 -23 22c-4.66699 10.667 -7 22 -7 34c0 20.667 6 37 18 49c6 6 10.667 9.33301 14 10c6.66699 1.33301 10.667 2.33301 12 3l1 1c31.333 8.66699 56 13 74 13zM177.996 425.998
c-3.33301 0 -10.668 -3.66602 -22.001 -10.999c-8.66699 -8.66699 -13 -21.334 -13 -38.001c0 -24 5.33301 -37.667 16 -41h1c22.667 -4 41.667 -6 57 -6c28.667 0 48.667 6.33301 60 19c2.66699 2.66699 7.33398 7.66699 14.001 15c2.66699 4 3.66699 11 3 21
c0 3.33301 -0.666992 11 -2 23c-4.66699 20.667 -19.334 31 -44.001 31c-17.333 0 -40.666 -4.33301 -69.999 -13zM202.994 358.999c0 -5.33301 -2.33301 -8 -7 -8h-3c-14.667 -4 -24 0 -28 12c-4.66699 14 -3.33398 27.333 3.99902 40c2 4 7 6 15 6s13 -2.33301 15 -7
c6.66699 -11.333 9.33398 -22.333 8.00098 -33c-0.666992 -4 -2 -7.33301 -4 -10zM180.994 393.999c-2 -2.66699 -2.99902 -7.66895 -2.99902 -15.002c-0.666992 -8 0.666016 -12.333 3.99902 -13h7c1.33301 0.666992 2.33301 2.33398 3 5.00098
c0.666992 6.66699 -1 14.334 -5 23.001h-6zM258.995 364.997l-3.00098 0.000976562c-2 -0.666992 -4.66699 -1 -8 -1c-2 0 -4.66699 0.333008 -8 1c-5.33301 2 -9 6 -11 12c-5.33301 14.667 -4 27.667 4 39c2 4.66699 7 7 15 7s13 -2.33301 15 -7
c6.66699 -11.333 9.33398 -22.333 8.00098 -33c-0.666992 -2.66699 -1.5 -6.33398 -2.5 -11.001s-4.16699 -7 -9.5 -7zM244.994 406.998c-2 -3.33301 -3.33301 -8.33398 -4 -15.001c-0.666992 -8 1 -12.333 5 -13c2 0 4 0.333008 6 1s3.33301 2.33398 4 5.00098
c0.666992 6.66699 -1.33301 14 -6 22h-5zM199.994 305.997c43.333 -5.33301 71.333 -0.666992 84 14c1.33301 2 3 3 5 3c5.33301 0 8 -2.66699 8 -8c0 -12 -14.667 -19.667 -44 -23c-20.667 -2.66699 -39 -3 -55 -1c-4.66699 0.666992 -6.66699 3.33398 -6 8.00098
c0 5.33301 2.66699 7.66602 8 6.99902zM134.994 443.996c-6.66699 0 -11.001 3 -13.001 9l-1 1c-1.33301 2.66699 -2 6 -2 10c0 18 7.66699 27 23 27c14 0 21 -8 21 -24c0 -14.667 -4.66699 -22 -14 -22h-10c-1.33301 -0.666992 -2.66602 -1 -3.99902 -1zM134.993 459.996
l10.999 0.000976562c2.66699 2 3.33398 5 2.00098 9s-3.33301 6 -6 6c-5.33301 0 -8 -2.33301 -8 -7c0 -2.66699 0.333008 -5.33398 1 -8.00098zM275.992 467.997c-6.66699 0 -11 2.66699 -13 8l-1 1c-1.33301 2.66699 -2 6 -2 10c0 18 7.66699 27 23 27c14 0 21 -8 21 -24
c0 -14 -4.66699 -21 -14 -21h-7c-0.666992 0 -1.66699 -0.333008 -3 -1h-4zM275.992 482.997h4c1.33301 0.666992 2.33301 1 3 1h4c2 2 2.66699 5 2 9c-1.33301 4 -3.33301 6 -6 6c-5.33301 0 -8 -2.66699 -8 -8c0 -2 0.333008 -4.66699 1 -8z" />
    <glyph glyph-name="pi" unicode="&#x3c0;" 
 />
    <glyph glyph-name="endash" unicode="&#x2013;" 
 />
    <glyph glyph-name="emdash" unicode="&#x2014;" 
 />
    <glyph glyph-name="quoteleft" unicode="&#x2018;" 
 />
    <glyph glyph-name="quoteright" unicode="&#x2019;" 
 />
    <glyph glyph-name="quotesinglbase" unicode="&#x201a;" 
 />
    <glyph glyph-name="quotedblleft" unicode="&#x201c;" 
 />
    <glyph glyph-name="quotedblright" unicode="&#x201d;" 
 />
    <glyph glyph-name="quotedblbase" unicode="&#x201e;" 
 />
    <glyph glyph-name="dagger" unicode="&#x2020;" 
 />
    <glyph glyph-name="daggerdbl" unicode="&#x2021;" 
 />
    <glyph glyph-name="bullet" unicode="&#x2022;" horiz-adv-x="428" 
d="M150 541c20 8 39.668 12 59.001 12c53.333 0 97 -29.333 131 -88c8.66699 -18.667 13 -38 13 -58c0 -47.333 -22.667 -85 -68 -113c-22.667 -14 -46.334 -21 -71.001 -21c-54 0 -95 23.333 -123 70c-13.333 22 -20 47 -20 75c0 60.667 26.333 101.667 79 123z" />
    <glyph glyph-name="ellipsis" unicode="&#x2026;" horiz-adv-x="477" 
d="M183 116c8.66699 3.33301 16.666 5 23.999 5c2 0 2.66699 0 2 0c21.333 -0.666992 39 -13 53 -37c3.33301 -7.33301 5 -15.333 5 -24c0 -19.333 -9.33301 -35 -28 -47c-9.33301 -6 -19 -9 -29 -9c-17.333 0 -31.666 5.83301 -42.999 17.5s-17 26.167 -17 43.5
c0 25.333 11 42.333 33 51zM327.999 116c8.66699 3.33301 16.666 5 23.999 5c2 0 2.66699 0 2 0c21.333 -0.666992 39 -13 53 -37c3.33301 -7.33301 5 -15.333 5 -24c0 -19.333 -9.33301 -35 -28 -47c-9.33301 -6 -19 -9 -29 -9c-17.333 0 -31.666 5.83301 -42.999 17.5
s-17 26.167 -17 43.5c0 25.333 11 42.333 33 51zM34.998 118c8.66699 3.33301 16.666 5 23.999 5c2 0 2.66699 0 2 0c21.333 -0.666992 39 -13 53 -37c3.33301 -7.33301 5 -15.333 5 -24c0 -19.333 -9.33301 -35 -28 -47c-9.33301 -6 -19 -9 -29 -9
c-17.333 0 -31.666 5.83301 -42.999 17.5s-17 26.167 -17 43.5c0 25.333 11 42.333 33 51z" />
    <glyph glyph-name="perthousand" unicode="&#x2030;" 
 />
    <glyph glyph-name="guilsinglleft" unicode="&#x2039;" 
 />
    <glyph glyph-name="guilsinglright" unicode="&#x203a;" 
 />
    <glyph glyph-name="fraction" unicode="&#x2044;" 
 />
    <glyph glyph-name="trademark" unicode="&#x2122;" horiz-adv-x="614" 
d="M15 717c34 6 70.667 8.99805 110 8.99805s81 -3 125 -9c12 -5.33301 18 -21.666 18 -48.999c0 -25.333 -5 -40.333 -15 -45c-6 -8 -14 -12 -24 -12c-5.33301 0 -12.833 1.5 -22.5 4.5s-16.5 4.5 -20.5 4.5c-8.66699 0 -13 -6.33301 -13 -19
c0 -21.333 2.66699 -53.333 8 -96s8 -74.667 8 -96c0 -18 -2 -28.667 -6 -32c-12.667 -10 -31 -15 -55 -15c-23.333 0 -38 6.66699 -44 20c-3.33301 3.33301 -5 13 -5 29c0 21.333 3.16699 53 9.5 95s9.5 73.333 9.5 94c0 6.66699 -0.666992 10.334 -2 11.001
c-2 5.33301 -6 8 -12 8c-3.33301 -0.666992 -14 -3 -32 -7c-36 -8 -54 10 -54 54c0 27.333 5.66699 44.333 17 51zM285 383.998c-9.33301 25.333 -14 81.9971 -14 169.997c0 69.333 3.66699 116 11 140c1.33301 20.667 16.666 31 45.999 31c31.333 0 47.333 -11.333 48 -34
c6 -15.333 9.33301 -23 10 -23c4.66699 -8 11 -12.333 19 -13c11.333 0.666992 21 13.334 29 38.001c1.33301 18.667 16.333 28 45 28c26 0 41 -10 45 -30c8 -37.333 12 -91 12 -161c0 -62.667 -4 -109.667 -12 -141c-4 -16 -18.333 -24 -43 -24c-20 0 -33.333 7 -40 21
c-2 4 -3 11.333 -3 22s1.16699 26.334 3.5 47.001s3.5 36.334 3.5 47.001c0 16 -3 24.333 -9 25c-0.666992 0 -3.66699 -6.5 -9 -19.5s-13.333 -19.5 -24 -19.5c-9.33301 0 -16.166 6.5 -20.499 19.5s-7.5 19.5 -9.5 19.5c-8 -2 -12 -12 -12 -30
c0 -11.333 1.66699 -28 5 -50s5 -38.667 5 -50c0 -5.33301 -0.333008 -9 -1 -11c-8 -14 -22.667 -21 -44 -21s-35 6.33301 -41 19z" />
    <glyph glyph-name="partialdiff" unicode="&#x2202;" 
 />
    <glyph glyph-name="product" unicode="&#x220f;" 
 />
    <glyph glyph-name="summation" unicode="&#x2211;" 
 />
    <glyph glyph-name="radical" unicode="&#x221a;" 
 />
    <glyph glyph-name="infinity" unicode="&#x221e;" horiz-adv-x="626" 
d="M382 102l-5.00684 -12.999c-2 -5.33301 -6 -11 -12 -17l-5 -5c-8 -8 -12 -17.333 -12 -28c0 -8 2.33301 -13 7 -15h1c20.667 -9.33301 43 -14 67 -14c24.667 0 52.667 4.66699 84 14c26.667 8 42.667 39 48 93c0 36.667 -17.333 85 -52 145c-14.667 18.667 -26 29 -34 31
c-10.667 2.66699 -16 9.66699 -16 21c0 6.66699 3.33301 10.334 10 11.001c14.667 1.33301 22.334 2.33301 23.001 3c6.66699 2.66699 9.33398 9.33398 8.00098 20.001c-1.33301 6.66699 -10.333 11.667 -27 15c-6.66699 1.33301 -10 4.33301 -10 9c0 2.66699 1.33301 5 4 7
s9.33398 6.66699 20.001 14c8.66699 6 13 11 13 15c-2 13.333 -4.33301 21.166 -7 23.499s-11 4.83301 -25 7.5c-5.33301 0.666992 -8 3 -8 7c-0.666992 4 1.33301 7 6 9c21.333 9.33301 32 20 32 32c0 2.66699 -0.666992 5 -2 7c-3.33301 11.333 -8.66602 18 -15.999 20
c-3.33301 1.33301 -12 2 -26 2c-6.66699 0 -10 2.66699 -10 8c0 3.33301 2 6 6 8c25.333 12.667 38 25 38 37c0 9.33301 -4.66699 21 -14 35c-3.33301 5.33301 -8.66602 8 -15.999 8c-4 0 -12.667 -2 -26 -6c-8.66699 -2.66699 -13 -1.66699 -13 3c0 4 1.66699 10.333 5 19
c-2 34 -25.667 47.333 -71 40c-14 -5.33301 -25.333 -16 -34 -32c-2.66699 -4.66699 -5 -7 -7 -7l-16 24c-10.667 15.333 -24 23 -40 23c-5.33301 0 -10.666 -0.666992 -15.999 -2c-16 -4 -28 -15.667 -36 -35c-1.33301 -4.66699 -3.33301 -7 -6 -7
c-1.33301 0 -6.66602 4.83301 -15.999 14.5s-17.333 14.834 -24 15.501c-13.333 1.33301 -26.333 -1.33398 -39 -8.00098s-19.334 -16 -20.001 -28c-2 -17.333 -5.66699 -26 -11 -26h-25c-23.333 -7.33301 -35 -23 -35 -47c0 -10 3 -19 9 -27c12 -13.333 18 -22.333 18 -27
c0 -4 -3 -6 -9 -6c-9.33301 0 -16.666 -10.667 -21.999 -32c-1.33301 -8 3.66699 -17.333 15 -28c16.667 -16 25 -28.333 25 -37c0 -4.66699 -2.66699 -10.5 -8 -17.5s-8.33301 -11.833 -9 -14.5c4 -12 6 -18.333 6 -19c2 -3.33301 7 -7 15 -11l8 -5
c24 -13.333 36 -29 36 -47c5.33301 -40 8 -67.333 8 -82c0 -35.333 -8.33301 -65 -25 -89c-12.667 -18.667 -19 -34 -19 -46c0 -8.66699 2.33301 -15.334 7 -20.001c17.333 -17.333 35.666 -26 54.999 -26c14.667 0 25.334 5.66699 32.001 17
c2 3.33301 6.33301 11.666 13 24.999c0 6.66699 3.33301 15 10 25c8.66699 12.667 13.667 20.334 15 23.001c7.33301 15.333 7.33301 33 0 53v0v1l15 6c4 -9.33301 6.33301 -18 7 -26c1.33301 -14.667 -1.5 -29.167 -8.5 -43.5l-20.5 -41.5v-3
c3.33301 -25.333 19 -38 47 -38c2 0 25 3.66699 69 11c4 1.33301 8 3 12 5c0.666992 3.33301 1.66699 10.666 3 21.999c1.33301 8.66699 6 14.667 14 18c15.333 12 27.333 33 36 63c10 36.667 19 60 27 70c2 2.66699 4.66699 4 8 4c5.33301 0 8 -2 8 -6
c0 -1.33301 -0.333008 -3.33301 -1 -6c-4 -11.333 -16 -43.333 -36 -96zM72.9932 618.001c0 32 14.332 51.002 42.999 57.002c16 3.33301 26.667 5 32 5c14.667 0 28 -7 40 -21c12 22.667 32.333 34 61 34c28 0 47.667 -11.333 59 -34
c7.33301 11.333 18.333 19.666 33 24.999l2 1c8.66699 1.33301 17 2 25 2c42 0 64.333 -19.667 67 -59c18.667 4 34 0 46 -12s18 -27.667 18 -47c0 -14.667 -7.33301 -27.334 -22 -38.001h2c12 -4 21 -14.333 27 -31c2 -5.33301 3 -10 3 -14c0 -13.333 -7.33301 -25 -22 -35
c13.333 -4 21.333 -17.667 24 -41c1.33301 -12.667 -7 -23.667 -25 -33c17.333 -5.33301 26 -17 26 -35c0 -20 -12.333 -31 -37 -33c12.667 -4.66699 26.667 -17.334 42 -38.001c36.667 -63.333 55 -115 55 -155c-4.66699 -48 -19.667 -81 -45 -99
c-22 -16.667 -57.667 -25 -107 -25c-26 0 -50 5.33301 -72 16c-6 3.33301 -10.333 7.33301 -13 12c-1.33301 -1.33301 -7.66602 -4 -18.999 -8c-2.66699 -2 -5.33398 -3 -8.00098 -3c-1.33301 0 -2.33301 0.333008 -3 1c-33.333 -6.66699 -55.666 -10 -66.999 -10
c-30 0 -48.667 11 -56 33c-12.667 -21.333 -28.667 -32 -48 -32c-24.667 0 -47.667 11 -69 33c-8 8.66699 -12 18.667 -12 30c0 12.667 7.16699 31.5 21.5 56.5s21.5 50.5 21.5 76.5c0 8 -1 22 -3 42l-4 43c0 10.667 -8.66699 21 -26 31
c-19.333 11.333 -30.666 21.333 -33.999 30c-0.666992 3.33301 -2.33398 9 -5.00098 17v3c0 6 2.66699 13 8 21c2.66699 2.66699 5.66699 6.66699 9 12l-1 2c-0.666992 2 -8.66699 10.667 -24 26c-12.667 12.667 -17.667 26 -15 40v1c4 20.667 12.333 34.334 25 41.001
c-6 6.66699 -13 18.667 -21 36c-2.66699 16 0.833008 31.5 10.5 46.5s22.167 24.5 37.5 28.5l2 1h18zM332.992 437.003c-17.333 0 -27.999 7.66699 -31.999 23c-3.33301 10.667 -2.33301 20.5 3 29.5s13.666 13.5 24.999 13.5c20.667 0 31 -9.66699 31 -29
c0 -24.667 -9 -37 -27 -37zM342.993 474.003c0 12 -6.33301 15.666 -19 10.999c-4.66699 -1.33301 -7 -5.66602 -7 -12.999c0 -12 4.66699 -18 14 -18c8 0 12 6.66699 12 20zM210.993 425.002c-16 0 -26.332 8 -30.999 24c-3.33301 11.333 -2.33301 21.333 3 30
s13.666 13 24.999 13c20.667 0 31 -9.66699 31 -29c0 -25.333 -9.33301 -38 -28 -38zM221.994 463.002c0 11.333 -6.33301 14.999 -19 10.999c-4.66699 -1.33301 -7 -5.66602 -7 -12.999c0 -12 4.66699 -18 14 -18c8 0 12 6.66699 12 20zM268.994 434.001
c6.66699 0 12.666 -2.33105 17.999 -6.99805s8 -10.334 8 -17.001c0 -4.66699 -1.66699 -10.334 -5 -17.001l-1 -2c-7.33301 -6.66699 -14.666 -10 -21.999 -10c-18.667 0 -28 7.66699 -28 23c0 8 3 15 9 21s13 9 21 9zM255.993 406.003
c-2 -5.33301 1.66602 -8.00098 10.999 -8.00098c2.66699 0 5 1 7 3l1 1c1.33301 3.33301 2 6 2 8c0 3.33301 -1.66699 5.33301 -5 6c-7.33301 2.66699 -12.666 -0.666016 -15.999 -9.99902zM389.992 533.002l1.00098 -1c11.333 -11.333 18.333 -27.666 21 -48.999
c0.666992 -6.66699 -2 -10 -8 -10c-5.33301 0 -8.33301 2.66699 -9 8c-2 17.333 -8.33301 31.333 -19 42c-8 8 -8 14.667 0 20c6.66699 4.66699 10 11.334 10 20.001c0 22.667 -11.667 31.667 -35 27c-2 0 -6 -1 -12 -3c-2.66699 -1.33301 -5 -2.66602 -7 -3.99902
c-2 -4.66699 -3.33301 -13.667 -4 -27c-0.666992 -8.66699 -3.33398 -13 -8.00098 -13l-136 -6c-5.33301 0 -8 2.66699 -8 8c0 2.66699 0.5 6.66699 1.5 12s1.5 9.33301 1.5 12c0 14.667 -10 22 -30 22s-30 -11.667 -30 -35c0 -11.333 3.66699 -22 11 -32
c2 -2.66699 3 -6 3 -10c0 -2.66699 -3.33301 -9.33398 -10 -20.001s-10.667 -19.667 -12 -27c-0.666992 -4 -1 -19 -1 -45c0 -5.33301 -2.66699 -8 -8 -8c-6 0 -9 2.66699 -9 8c0 24.667 0.666992 41 2 49c2.66699 17.333 9.66699 31.666 21 42.999
c-9.33301 12.667 -14 26.334 -14 41.001s4.33301 27.167 13 37.5s20.334 15.5 35.001 15.5c36.667 0 51.667 -18 45 -54c5.33301 0 43.666 1.66699 114.999 5c0 11.333 2.33301 22.333 7 33l2 2c5.33301 5.33301 11.333 8.66602 18 9.99902
c44 9.33301 66 -4.33398 66 -41.001c0 -12.667 -4.33301 -22.667 -13 -30zM241.993 338.002c10 -2.66699 27.668 -3.33203 53.001 -1.99902l1 1c4.66699 3.33301 10 7.66602 16 12.999c2 1.33301 3.66699 2 5 2c6 0 9 -3 9 -9c0 -2.66699 -1.33301 -4.66699 -4 -6
c-4.66699 -6 -13 -12 -25 -18c-9.33301 -1.33301 -18 -2 -26 -2c-26.667 0 -47.334 6.66699 -62.001 20c-1.33301 2 -2 4 -2 6c0 6 2.66699 9 8 9c1.33301 0 5.5 -2.16699 12.5 -6.5s11.833 -6.83301 14.5 -7.5zM200.994 301.004c18 -6 39.335 -9.00098 64.002 -9.00098
c11.333 0 33.666 1.33301 66.999 4c5.33301 0.666992 10.666 5.66699 15.999 15c2 2.66699 4.33301 4 7 4c6 0 9 -2.66699 9 -8s-3.66699 -11.166 -11 -17.499s-14 -9.83301 -20 -10.5c-34 -2.66699 -56.667 -4 -68 -4c-26.667 0 -50 3.33301 -70 10c-4 1.33301 -6 4 -6 8
c0 8 4 10.667 12 8zM120.996 387.003h42c6 0 9 -3 9 -9s-3 -9 -9 -9h-42c-6 0 -9 3 -9 9s3 9 9 9zM131.996 361.003c3.33301 0 12.667 1.33203 28 3.99902c6.66699 1.33301 10 -1.33398 10 -8.00098c0 -4.66699 -2.33301 -7.66699 -7 -9
c-18 -3.33301 -29.333 -4.33301 -34 -3c-4.66699 0.666992 -7 3.33398 -7 8.00098c0 6.66699 3.33301 9.33398 10 8.00098zM154.497 337.502c9.66699 3 15.167 4.49805 16.5 4.49805c6 0 9 -3 9 -9c0 -2.66699 -1.66699 -5 -5 -7c-8 -4 -20.333 -7.33301 -37 -10
c-6.66699 -1.33301 -10 1.33398 -10 8.00098c0 4.66699 2 7.33398 6 8.00098s10.833 2.5 20.5 5.5zM366.997 404c20 0 35.999 1.33398 47.999 4.00098c7.33301 1.33301 11 -1.66699 11 -9c0 -4.66699 -2.33301 -7.33398 -7 -8.00098c-13.333 -2.66699 -30.666 -4 -51.999 -4
c-5.33301 0 -8 2.66699 -8 8c0 6 2.66699 9 8 9zM378.996 383.001h27c5.33301 0 8 -3 8 -9c0 -5.33301 -2.66699 -8 -8 -8h-27c-6 0 -9 2.66699 -9 8c0 6 3 9 9 9zM382.996 356.001c2.66699 0 7.99902 -1.49902 15.999 -4.49902s13 -4.16699 15 -3.5
c6.66699 1.33301 10 -1.66699 10 -9c0 -4.66699 -2.33301 -7.33398 -7 -8.00098c-5.33301 -0.666992 -11.666 0.5 -18.999 3.5s-12.333 4.5 -15 4.5c-6 0 -9 2.66699 -9 8c0 6 3 9 9 9z" />
    <glyph glyph-name="integral" unicode="&#x222b;" horiz-adv-x="1010" 
d="M802 39c-16.667 -8 -29.334 -13.6689 -38.001 -17.002c-18 -6.66699 -34.667 -11 -50 -13c-46 -5.33301 -98 -8 -156 -8c-40.667 0 -101.834 2 -183.501 6s-142.834 6 -183.501 6c-45.333 0 -70.666 0.333008 -75.999 1c-28 3.33301 -50 14 -66 32
c-28 30.667 -42 67.334 -42 110.001c0 53.333 20 111 60 173c29.333 44.667 72 77.334 128 98.001c34.667 12.667 87 22.667 157 30c2.66699 28.667 -6.33301 50.667 -27 66c-18 14 -42 21 -72 21c-26.667 0 -56.334 -8.33301 -89.001 -25h-3
c-1.33301 0 -3.33301 -0.333008 -6 -1h-7c-8.66699 0 -13.334 4 -14.001 12c-2.66699 30.667 20.333 56 69 76c14.667 6 30.667 9 48 9c38 0 80.333 -17.667 127 -53c31.333 16.667 66.333 25 105 25c28.667 0 56 -7 82 -21c30 -16.667 45 -38.334 45 -65.001
c0 -8.66699 -13 -13 -39 -13h-1c-9.33301 2 -26.666 7.66699 -51.999 17c-21.333 8 -38.666 11.333 -51.999 10c-16 -3.33301 -31.333 -10.333 -46 -21l-1 -1c-2 -1.33301 -8.66699 -14.666 -20 -39.999c11.333 -6.66699 25.666 -12.334 42.999 -17.001
c24.667 -6.66699 39.667 -11 45 -13l70 -21c26.667 -8.66699 46.334 -23 59.001 -43l42 -67c10 -19.333 17.667 -45.666 23 -78.999c2.66699 -15.333 6.66699 -35.666 12 -60.999c1.33301 -5.33301 5 -10 11 -14s11.667 -5.33301 17 -4c33.333 10 50 33.667 50 71
c0 23.333 -14.667 52 -44 86c-19.333 22.667 -30.666 43.667 -33.999 63c-2 13.333 3 21.333 15 24h33c31.333 -10.667 62.666 -31.667 93.999 -63c8 8.66699 20.667 19.334 38 32.001l42 23c14.667 8 29.334 12 44.001 12c10.667 0 16 -5 16 -15v-2
c-2 -18.667 -11 -38.667 -27 -60c-22.667 -30 -35.667 -48.667 -39 -56c-6 -12.667 -16.333 -45.334 -31 -98.001c-12 -41.333 -27 -71 -45 -89c-5.33301 -4.66699 -15.666 -12.334 -30.999 -23.001zM896 255.998c4.66699 10 16.334 28.0029 35.001 54.0029
c16 21.333 25.333 40.333 28 57c-12 0 -26 -4.33301 -42 -13l-38 -21c-2.66699 -1.33301 -9.33398 -7.16602 -20.001 -17.499s-18.667 -15.5 -24 -15.5c-4 0 -7.33301 1.33301 -10 4c-29.333 29.333 -58.333 49 -87 59c-22 0.666992 -28 1 -18 1
c-8.66699 0 -12.667 -2.66699 -12 -8c2.66699 -16 13.667 -35.667 33 -59c21.333 -26 34.166 -44.833 38.499 -56.5s6.5 -23.5 6.5 -35.5c0 -20 -6.33301 -39 -19 -57c-14 -20 -30.667 -30 -50 -30c-21.333 0 -34.333 10 -39 30l-16 83
c-7.33301 31.333 -17.666 57.333 -30.999 78c-16.667 26 -27.334 41.667 -32.001 47c-12 14 -28 24.667 -48 32c-10 2.66699 -33.333 9.66699 -70 21l-55 16c-30 9.33301 -45 18 -45 26l13 31.5c4.66699 11 10.334 18.833 17.001 23.5c18 12 35.667 20 53 24
c16 1.33301 34.333 -1.66699 55 -9c31.333 -11.333 49 -17.333 53 -18c9.33301 0 15.666 0.333008 18.999 1l3 1c-13.333 44.667 -51 67 -113 67c-36 0 -69.333 -8.66699 -100 -26c-2.66699 -1.33301 -5.33398 -1 -8.00098 1c-46 35.333 -86.667 53 -122 53
c-15.333 0 -29.333 -2.66699 -42 -8c-41.333 -17.333 -61.333 -37 -60 -59c2 0 5.33301 0.333008 10 1c34 16.667 65.667 25 95 25c30.667 0 56.334 -7.33301 77.001 -22c24 -16.667 36 -39.334 36 -68.001c0 -17.333 -2.66699 -26 -8 -26c-70 -8 -122.333 -18 -157 -30
c-54 -18.667 -94.667 -49.334 -122 -92.001c-38 -59.333 -57 -116 -57 -170c0 -12.667 1 -24.667 3 -36c29.333 -10.667 56.666 -12.334 81.999 -5.00098c4.66699 1.33301 7.66699 -0.333984 9 -5.00098s-0.333984 -7.66699 -5.00098 -9
c-30 -9.33301 -56.667 -9.33301 -80 0c5.33301 -17.333 17 -32.5 35 -45.5s36.333 -20.5 55 -22.5h69c40.667 0 101.834 -1.83301 183.501 -5.5s142.834 -5.5 183.501 -5.5c54.667 0 106.334 2.66699 155.001 8c20.667 2 46.667 11 78 27c29.333 14.667 53 49 71 103
c20.667 62 32 95.667 34 101zM416 127.001c34.667 -2.66699 53.334 24.667 56.001 82h-73c-5.33301 0 -8 2.66699 -8 8s2.66699 8 8 8h81c5.33301 0 8 -2.66699 8 -8c0 -25.333 -5 -48 -15 -68c-12 -24.667 -29.333 -37 -52 -37c-12.667 0 -19 3 -19 9v2
c0 5.33301 2.33301 8 7 8c3.33301 0 5.66602 -1.33301 6.99902 -4zM161 212.002l-1 -1c-4.66699 -2 -9 -3 -13 -3c-19.333 0 -31.333 11.667 -36 35v2c0 22 11 35.667 33 41l2 1c20.667 0 31 -13 31 -39c0 -16 -5.33301 -28 -16 -36zM153 225.002
c7.33301 6 11 13.332 11 21.999c0 6 -2 13 -6 21c-1.33301 2 -5 3 -11 3c-13.333 -3.33301 -20.333 -11.666 -21 -24.999c3.33301 -14.667 10.333 -22 21 -22c2 0 4 0.333008 6 1zM226 184.001c4 -1.33301 10.333 -1.33203 19 0.000976562c11.333 2 18 3 20 3
c4.66699 0 7 -2.66699 7 -8c0 -4.66699 -3.16699 -7.33398 -9.5 -8.00098l-18.5 -2c-9.33301 -1.33301 -16.333 -1.33301 -21 0c-5.33301 0.666992 -7.33301 3.66699 -6 9c0.666992 4.66699 3.66699 6.66699 9 6zM230 156.002c5.33301 -1.33301 20.999 -6.66699 46.999 -16
c3.33301 -0.666992 5 -3 5 -7c0 -6.66699 -3.33301 -9 -10 -7c-9.33301 4 -24 9 -44 15c-5.33301 0.666992 -7.33301 3.66699 -6 9c0.666992 4.66699 3.33398 6.66699 8.00098 6z" />
    <glyph glyph-name="approxequal" unicode="&#x2248;" horiz-adv-x="601" 
d="M185 287c-10.667 -2 -21.333 -8.99902 -32 -20.999c-4 -5.33301 -10.333 -13 -19 -23c-20 -22 -41.333 -33 -64 -33c-17.333 0 -31 7 -41 21c-9.33301 12 -14 27 -14 45c0 39.333 19.333 80.666 58 123.999c11.333 12.667 28.333 24.834 51 36.501s42 17.5 58 17.5
c40.667 0 69.667 -7 87 -21c3.33301 -2.66699 13 -16 29 -40c9.33301 -14 24.666 -21.333 45.999 -22c14 0 27 8.33301 39 25c17.333 24.667 27.333 38 30 40c14.667 11.333 30 17 46 17c20.667 0 37.5 -7.5 50.5 -22.5s19.5 -32.833 19.5 -53.5
s-6.66699 -41.334 -20 -62.001c-21.333 -33.333 -41.666 -57.333 -60.999 -72c-28.667 -22 -64 -33.667 -106 -35c-30 -1.33301 -55.333 5.66699 -76 21c-4 2.66699 -17 16 -39 40c-13.333 14 -27.333 20 -42 18zM192.001 561.001
c-11.333 -2.66699 -22.001 -9.66797 -32.001 -21.001c-4 -5.33301 -10.333 -13 -19 -23c-20 -22.667 -41.333 -34 -64 -34c-17.333 0 -30.833 6.66699 -40.5 20s-14.5 29 -14.5 47c0 38.667 19.333 80 58 124c11.333 12.667 28.333 24.834 51 36.501s42 17.5 58 17.5
c40.667 0 69.667 -7 87 -21c3.33301 -2.66699 13 -16 29 -40c9.33301 -14 24.666 -21.333 45.999 -22c14 0 27 8.33301 39 25c8.66699 12.667 18.334 26 29.001 40c14.667 11.333 30.334 17 47.001 17c20 0 36.667 -7.5 50 -22.5s20 -32.833 20 -53.5
s-6.66699 -41.334 -20 -62.001c-21.333 -32.667 -41.666 -56.667 -60.999 -72c-28 -22 -63.333 -33.667 -106 -35c-30.667 -1.33301 -56 5.33398 -76 20.001c-4.66699 3.33301 -18 17 -40 41c-12.667 14 -26.334 20 -41.001 18z" />
    <glyph glyph-name="approxequal" unicode="&#x22f2;" horiz-adv-x="601" 
d="M185 287c-10.667 -2 -21.333 -8.99902 -32 -20.999c-4 -5.33301 -10.333 -13 -19 -23c-20 -22 -41.333 -33 -64 -33c-17.333 0 -31 7 -41 21c-9.33301 12 -14 27 -14 45c0 39.333 19.333 80.666 58 123.999c11.333 12.667 28.333 24.834 51 36.501s42 17.5 58 17.5
c40.667 0 69.667 -7 87 -21c3.33301 -2.66699 13 -16 29 -40c9.33301 -14 24.666 -21.333 45.999 -22c14 0 27 8.33301 39 25c17.333 24.667 27.333 38 30 40c14.667 11.333 30 17 46 17c20.667 0 37.5 -7.5 50.5 -22.5s19.5 -32.833 19.5 -53.5
s-6.66699 -41.334 -20 -62.001c-21.333 -33.333 -41.666 -57.333 -60.999 -72c-28.667 -22 -64 -33.667 -106 -35c-30 -1.33301 -55.333 5.66699 -76 21c-4 2.66699 -17 16 -39 40c-13.333 14 -27.333 20 -42 18zM192.001 561.001
c-11.333 -2.66699 -22.001 -9.66797 -32.001 -21.001c-4 -5.33301 -10.333 -13 -19 -23c-20 -22.667 -41.333 -34 -64 -34c-17.333 0 -30.833 6.66699 -40.5 20s-14.5 29 -14.5 47c0 38.667 19.333 80 58 124c11.333 12.667 28.333 24.834 51 36.501s42 17.5 58 17.5
c40.667 0 69.667 -7 87 -21c3.33301 -2.66699 13 -16 29 -40c9.33301 -14 24.666 -21.333 45.999 -22c14 0 27 8.33301 39 25c8.66699 12.667 18.334 26 29.001 40c14.667 11.333 30.334 17 47.001 17c20 0 36.667 -7.5 50 -22.5s20 -32.833 20 -53.5
s-6.66699 -41.334 -20 -62.001c-21.333 -32.667 -41.666 -56.667 -60.999 -72c-28 -22 -63.333 -33.667 -106 -35c-30.667 -1.33301 -56 5.33398 -76 20.001c-4.66699 3.33301 -18 17 -40 41c-12.667 14 -26.334 20 -41.001 18z" />
    <glyph glyph-name="notequal" unicode="&#x2260;" horiz-adv-x="570" 
d="M63 328c25.333 4.66699 60.3359 7.99609 105.003 9.99609l25 53c-58 0 -103.333 2 -136 6c-18.667 9.33301 -28 31.333 -28 66c0 39.333 11.333 64.333 34 75c44 8.66699 112.667 12.334 206 11.001l40 82c20.667 34 43 51 67 51c19.333 0 37.5 -6 54.5 -18
s24.833 -27.333 23.5 -46c-4.66699 -17.333 -13.334 -42.666 -26.001 -75.999c18.667 -1.33301 32.334 -2.66602 41.001 -3.99902c26.667 -4 40 -25.667 40 -65c0 -31.333 -10.333 -55.666 -31 -72.999c-28 -2.66699 -65.667 -5 -113 -7l-25 -55c24 0 48 -0.333008 72 -1
c30 -1.33301 52.333 -6.33301 67 -15c20 -11.333 30 -30.666 30 -57.999c0 -32 -10.333 -56.667 -31 -74c-52.667 -5.33301 -123.334 -8.33301 -212.001 -9c-32.667 -64 -56.667 -107 -72 -129c-16 -9.33301 -33 -14 -51 -14c-18.667 0 -34.834 5.5 -48.501 16.5
s-20.5 25.5 -20.5 43.5c0 12.667 9 41 27 85c-16.667 1.33301 -31.334 2.66602 -44.001 3.99902c-18.667 9.33301 -28 31.333 -28 66c0 39.333 11.333 64.333 34 75z" />
    <glyph glyph-name="lessequal" unicode="&#x2264;" horiz-adv-x="560" 
d="M305 711c-50.667 -27.333 -101.665 -62.999 -152.998 -106.999c-66.667 -56.667 -100.667 -102.667 -102 -138c2.66699 -42 47 -93.667 133 -155c81.333 -58 149.666 -91.667 204.999 -101c26 0 50 5.33301 72 16c27.333 14 41 32.667 41 56
c0 13.333 -6.66699 26.333 -20 39c-18.667 17.333 -59 43.333 -121 78c-49.333 27.333 -74 49.666 -74 66.999c0 15.333 32.667 45.333 98 90c70 48 107.667 78 113 90c0 27.333 -13.333 48 -40 62c-20.667 10.667 -46.334 16 -77.001 16c-26 0 -51 -4.33301 -75 -13z
M63.002 158.001c40 7.33301 101.333 10.999 184 10.999c96 0 170 -3.66699 222 -11c26 -4 39 -28.333 39 -73c0 -38 -10 -59.667 -30 -65c-64.667 -6.66699 -149 -10 -253 -10c-72.667 0 -128.667 2.33301 -168 7c-18 14.667 -27 38.334 -27 71.001c0 36.667 11 60 33 70z
" />
    <glyph glyph-name="greaterequal" unicode="&#x2265;" horiz-adv-x="551" 
d="M235 711c50.667 -27.333 101.665 -62.999 152.998 -106.999c66.667 -56.667 100.667 -102.667 102 -138c-2.66699 -42 -47 -93.667 -133 -155c-81.333 -58 -149.666 -91.667 -204.999 -101c-26 0 -50 5.33301 -72 16c-27.333 14 -41 32.667 -41 56
c0 13.333 6.66699 26.333 20 39c18.667 17.333 59 43.333 121 78c49.333 27.333 74 49.666 74 66.999c0 15.333 -32.667 45.333 -98 90c-70 48 -107.667 78 -113 90c0 27.333 13.333 48 40 62c20.667 10.667 46.334 16 77.001 16c26 0 51 -4.33301 75 -13zM62.998 158.001
c40 7.33301 101.333 10.999 184 10.999c96 0 170 -3.66699 222 -11c26 -4 39 -29 39 -75c0 -39.333 -10 -60.333 -30 -63c-60.667 -6.66699 -145 -10 -253 -10c-72.667 0 -128.667 2.33301 -168 7c-18.667 14 -28 37.333 -28 70c0 36.667 11.333 60.334 34 71.001z" />
    <glyph glyph-name="lozenge" unicode="&#x25ca;" 
 />
    <glyph glyph-name="apple" unicode="&#xf000;" 
 />
    <glyph glyph-name="fi" unicode="&#xf001;" 
 />
    <glyph glyph-name="fl" unicode="&#xf002;" 
 />
    <glyph glyph-name=".null" horiz-adv-x="0" 
 />
    <glyph glyph-name="nonmarkingreturn" 
 />
    <glyph glyph-name="glyph232" 
 />
    <glyph glyph-name="glyph233" 
 />
    <glyph glyph-name="LF" 
 />
    <glyph glyph-name="DLE" 
 />
    <glyph glyph-name="DC1" 
 />
    <glyph glyph-name="DC2" 
 />
    <glyph glyph-name="DC3" 
 />
    <glyph glyph-name="DC4" 
 />
    <glyph glyph-name="RS" 
 />
    <glyph glyph-name="US" 
 />
    <glyph glyph-name="DEL" 
 />
    </font>
</defs>
</svg>
