<?xml version="1.0" encoding="iso-8859-1"?>
<!-- Generator: Adobe Illustrator 19.0.0, SVG Export Plug-In . SVG Version: 6.00 Build 0)  -->
<svg version="1.1" id="Capa_1" xmlns="http://www.w3.org/2000/svg" xmlns:xlink="http://www.w3.org/1999/xlink" x="0px" y="0px"
	 viewBox="0 0 510.83 510.83" style="enable-background:new 0 0 510.83 510.83;" xml:space="preserve">
<path style="fill:#FC6E51;" d="M334.697,294.795C218.919,410.572,32.554,529.167,7.135,503.756
	c-25.411-25.42,93.19-211.785,208.961-327.563c21.238-21.234,51.057-28.69,78.277-22.369c0,0,20.435,2.602,40.324,22.369
	c19.765,19.769,22.37,40.208,22.37,40.208C363.385,243.734,355.936,273.556,334.697,294.795z"/>
<g style="opacity:0.3;">
	<path style="fill:#FFFFFF;" d="M227.39,187.487c21.238-21.234,51.057-28.69,78.277-22.369c0,0,16.637,2.246,34.49,17.163
		c-1.685-2.02-3.424-4.052-5.46-6.088c-19.89-19.768-40.324-22.369-40.324-22.369c-27.221-6.321-57.039,1.135-78.277,22.369
		C100.325,291.971-18.276,478.336,7.135,503.756c1.849,1.84,4.625,2.847,8.072,3.221C10.286,462.893,120.012,294.873,227.39,187.487
		z"/>
</g>
<g style="opacity:0.2;">
	<path d="M323.692,283.789c21.23-21.242,28.687-51.056,22.369-78.277c0,0-2.246-16.641-17.167-34.494
		c2.021,1.685,4.056,3.428,6.091,5.464c19.765,19.885,22.37,40.324,22.37,40.324c6.317,27.221-1.139,57.039-22.37,78.277
		C227.405,402.656,58.87,512.678,15.161,507.328l0.811-12.113C72.87,484.639,224.269,383.204,323.692,283.789z"/>
</g>
<path style="fill:#A0D468;" d="M482.892,78.826L354.407,207.31c-1.927-5.312-4.298-10.397-7.285-15.303l59.52-59.645l0.063,0.063
	l76.125-76.25L482.892,78.826z"/>
<g style="opacity:0.5;">
	<path style="fill:#FFFFFF;" d="M352.769,197.654l59.519-59.644l0.063,0.062l70.51-70.618l-0.031-11.278l-76.125,76.25l-0.063-0.063
		l-59.52,59.645c2.987,4.906,5.358,9.991,7.285,15.303l2.316-2.316C355.538,202.498,354.228,200.052,352.769,197.654z"/>
</g>
<path style="fill:#A0D468;" d="M406.642,132.363l-59.52,59.645c-2.769-4.579-5.99-8.927-9.656-12.936l46.705-46.705L406.642,132.363
	z"/>
<g style="opacity:0.2;">
	<path d="M406.642,132.363l-59.52,59.645c-2.769-4.579-5.99-8.927-9.656-12.936l46.705-46.705L406.642,132.363z"/>
</g>
<g>
	<path style="fill:#A0D468;" d="M400.487,82.043l-81.6,81.725c-4.859-2.94-9.945-5.424-15.248-7.343l96.855-96.856L400.487,82.043z"
		/>
	<path style="fill:#A0D468;" d="M506.773,9.643L384.171,132.367l-46.705,46.705c-0.904-1.014-1.809-1.918-2.769-2.878
		c-4.859-4.859-10.163-9.04-15.81-12.425l81.6-81.725l78.052-78.047L506.773,9.643z"/>
</g>
<g style="opacity:0.2;">
	<path d="M506.773,9.643l-9.414-1.884L378.523,126.72l-46.704,46.704c-0.904-1.014-1.81-1.919-2.77-2.878
		c-2.877-2.878-5.958-5.437-9.133-7.812l-1.029,1.033c5.646,3.385,10.95,7.566,15.81,12.425c0.96,0.96,1.864,1.864,2.769,2.878
		l46.705-46.705L506.773,9.643z"/>
</g>
<g style="opacity:0.5;">
	<path style="fill:#FFFFFF;" d="M406.135,87.69l81.834-81.834l-9.43-1.86l-78.052,78.047l-81.6,81.725
		c2.301,1.381,4.5,2.976,6.676,4.614L406.135,87.69z"/>
</g>
<g style="opacity:0.6;">
	<path style="fill:#A0D468;" d="M357.067,216.401c0,0-17.176-5.874-36.939-25.638c-19.882-19.769-25.755-36.939-25.755-36.939
		c3.167,0.683,6.208,1.583,9.204,2.66l0.063-0.058c5.303,1.918,10.389,4.402,15.248,7.343c5.646,3.385,10.95,7.566,15.81,12.425
		c0.96,0.96,1.864,1.864,2.769,2.878c3.666,4.009,6.888,8.357,9.656,12.936c2.987,4.906,5.358,9.991,7.285,15.303
		C355.476,210.297,356.326,213.292,357.067,216.401z"/>
</g>
<g style="opacity:0.2;">
	<path d="M311.571,159.787c2.465,1.197,4.875,2.516,7.238,3.938l81.678-81.682V70.867L311.571,159.787z"/>
</g>
<g>
	<path style="fill:#3A3847;" d="M216.096,180.187c-1.022,0-2.044-0.391-2.823-1.17c-1.561-1.56-1.561-4.087,0-5.647
		c21.597-21.585,52.258-30.341,82.006-23.434c3.143,0.675,6.317,1.591,9.647,2.789c2.075,0.749,3.151,3.034,2.41,5.108
		c-0.749,2.083-3.058,3.147-5.108,2.41c-2.995-1.076-5.842-1.899-8.697-2.515c-27.143-6.302-54.987,1.673-74.611,21.289
		C218.139,179.796,217.117,180.187,216.096,180.187z"/>
	<path style="fill:#3A3847;" d="M334.697,298.788c-1.021,0-2.044-0.39-2.823-1.17c-1.561-1.56-1.561-4.087,0-5.647
		c19.616-19.608,27.58-47.526,21.301-74.669c-0.702-2.94-1.506-5.795-2.527-8.646c-1.918-5.289-4.188-10.062-6.934-14.57
		c-2.691-4.441-5.779-8.583-9.195-12.319c-0.882-0.99-1.74-1.845-2.645-2.75c-4.648-4.652-9.711-8.63-15.038-11.824
		c-4.773-2.886-9.663-5.242-14.554-7.012c-2.075-0.749-3.151-3.042-2.395-5.112c0.748-2.079,3.064-3.155,5.108-2.398
		c5.382,1.946,10.756,4.531,15.958,7.683c5.873,3.521,11.45,7.905,16.566,13.018c1.015,1.014,1.966,1.97,2.926,3.042
		c3.735,4.087,7.145,8.65,10.092,13.528c3.019,4.961,5.515,10.198,7.621,16.009c1.053,2.933,1.965,6.045,2.792,9.527
		c6.902,29.873-1.856,60.568-23.431,82.142C336.741,298.398,335.72,298.788,334.697,298.788z"/>
	<path style="fill:#3A3847;" d="M17.524,510.83c-5.842,0-10.319-1.365-13.212-4.251c-1.561-1.56-1.561-4.087,0-5.647
		c1.56-1.56,4.087-1.56,5.646,0c21.8,21.793,201.427-88.479,321.916-208.961c1.56-1.56,4.087-1.56,5.646,0
		c1.561,1.561,1.561,4.088,0,5.647C238.785,396.346,71.1,510.83,17.524,510.83z"/>
	<path style="fill:#3A3847;" d="M7.135,507.749c-1.021,0-2.044-0.39-2.823-1.17c-29.397-29.405,99.461-223.71,208.961-333.209
		c1.56-1.56,4.087-1.56,5.646,0c1.56,1.56,1.56,4.087,0,5.647C98.422,299.521-11.826,479.14,9.958,500.932
		c1.56,1.561,1.56,4.088,0,5.647C9.178,507.359,8.156,507.749,7.135,507.749z"/>
	<path style="fill:#3A3847;" d="M357.067,220.394c-0.43,0-0.866-0.07-1.295-0.215c-0.733-0.253-18.283-6.403-38.469-26.593
		C297,173.4,290.847,155.852,290.598,155.114c-0.719-2.083,0.39-4.345,2.472-5.062c2.13-0.725,4.36,0.39,5.078,2.472
		c0.054,0.164,5.912,16.633,24.795,35.407c18.781,18.782,35.263,24.635,35.426,24.694c2.075,0.722,3.19,2.991,2.473,5.074
		C360.272,219.353,358.721,220.394,357.067,220.394z"/>
	<path style="fill:#3A3847;" d="M306.463,159.248l-5.616-5.678l0.063-0.059l96.763-96.767c1.56-1.56,4.087-1.56,5.647,0
		s1.56,4.087,0,5.647L306.463,159.248z"/>
	<path style="fill:#3A3847;" d="M318.888,167.762c-1.021,0-2.044-0.39-2.824-1.166c-1.56-1.56-1.56-4.087,0-5.651L475.716,1.172
		c1.56-1.56,4.087-1.56,5.646,0c1.561,1.56,1.561,4.087,0,5.647L321.711,166.592C320.931,167.372,319.909,167.762,318.888,167.762z"
		/>
	<path style="fill:#3A3847;" d="M337.466,183.065c-1.021,0-2.043-0.39-2.823-1.17c-1.56-1.56-1.56-4.087,0-5.647L503.95,6.82
		c1.56-1.561,4.087-1.561,5.646,0c1.561,1.556,1.561,4.087,0,5.646L340.29,181.895C339.51,182.675,338.488,183.065,337.466,183.065z
		"/>
	<path style="fill:#3A3847;" d="M347.122,196c-1.021,0-2.043-0.39-2.823-1.166c-1.56-1.56-1.56-4.087,0-5.647l59.52-59.644
		c1.56-1.568,4.087-1.56,5.646-0.008c1.56,1.56,1.56,4.087,0,5.647l-59.519,59.644C349.166,195.611,348.144,196,347.122,196z"/>
	<path style="fill:#3A3847;" d="M354.407,211.303c-1.021,0-2.044-0.39-2.823-1.17c-1.561-1.56-1.561-4.087,0-5.646L480.067,76.002
		c1.561-1.56,4.087-1.56,5.647,0s1.56,4.087,0,5.647L357.23,210.133C356.45,210.914,355.429,211.303,354.407,211.303z"/>
	<path style="fill:#3A3847;" d="M506.781,13.636c-0.265,0-0.53-0.023-0.788-0.078l-28.234-5.646
		c-2.168-0.433-3.572-2.535-3.135-4.699c0.437-2.168,2.644-3.572,4.695-3.132l28.234,5.647c2.168,0.433,3.572,2.535,3.136,4.699
		C510.307,12.326,508.645,13.636,506.781,13.636z"/>
	<path style="fill:#3A3847;" d="M400.487,86.095c-2.09,0-3.837-1.567-3.978-3.67l-0.008-22.856c0-2.208,1.786-3.994,3.993-3.994l0,0
		c2.207,0,3.994,1.79,3.994,3.994l-0.008,22.475c0,2.156-1.709,3.978-3.861,4.048C400.573,86.095,400.534,86.095,400.487,86.095z"/>
	<path style="fill:#3A3847;" d="M384.171,136.36c-2.207,0-3.994-1.786-3.994-3.994c0-2.203,1.787-3.993,3.994-3.993l22.471-0.004
		c2.207,0,3.993,1.786,3.993,3.993c0,2.204-1.786,3.994-3.993,3.994L384.171,136.36z"/>
	<path style="fill:#3A3847;" d="M482.892,82.82c-2.2,0-3.986-1.782-3.994-3.982l-0.063-22.65c-0.008-2.208,1.778-3.998,3.986-4.005
		h0.008c2.199,0,3.985,1.782,3.993,3.982l0.063,22.65c0.008,2.208-1.778,3.998-3.985,4.005C482.9,82.82,482.892,82.82,482.892,82.82
		z"/>
	<path style="fill:#3A3847;" d="M406.704,136.418c-1.021,0-2.044-0.39-2.824-1.166c-1.56-1.56-1.56-4.087,0-5.646l76.125-76.25
		c1.561-1.567,4.088-1.56,5.647-0.008c1.56,1.561,1.56,4.087,0,5.647l-76.125,76.249
		C408.747,136.029,407.726,136.418,406.704,136.418z"/>
	<path style="fill:#3A3847;" d="M264.103,259.704c-0.702,0-1.412-0.184-2.051-0.569c-28.719-17.229-30.178-29.397-30.178-31.663
		c0-2.207,1.786-3.993,3.994-3.993c2.145,0,3.9,1.696,3.994,3.821c0.07,0.503,1.778,10.276,26.292,24.986
		c1.896,1.135,2.512,3.588,1.373,5.479C266.778,259.014,265.452,259.704,264.103,259.704z"/>
	<path style="fill:#3A3847;" d="M120.542,417.842c-0.671,0-1.342-0.164-1.958-0.515c-22.533-12.683-23.852-23.274-23.89-25.271
		c-0.039-2.199,1.716-4.025,3.923-4.064c2.348-0.093,3.938,1.639,4.056,3.76c0.07,0.445,1.56,8.33,19.827,18.618
		c1.926,1.076,2.605,3.51,1.521,5.437C123.287,417.109,121.93,417.842,120.542,417.842z"/>
	<path style="fill:#3A3847;" d="M229.878,361.021c-0.663,0-1.334-0.164-1.95-0.507c-23.079-12.894-23.938-24.093-23.961-25.325
		c-0.039-2.208,1.716-4.025,3.924-4.064c1.747-0.063,3.938,1.631,4.056,3.76c0.07,0.437,1.528,8.408,19.881,18.656
		c1.926,1.077,2.613,3.511,1.537,5.43C232.631,360.28,231.273,361.021,229.878,361.021z"/>
</g>
<g>
</g>
<g>
</g>
<g>
</g>
<g>
</g>
<g>
</g>
<g>
</g>
<g>
</g>
<g>
</g>
<g>
</g>
<g>
</g>
<g>
</g>
<g>
</g>
<g>
</g>
<g>
</g>
<g>
</g>
</svg>
