<?xml version='1.0' encoding='utf-8'?>
<svg xmlns="http://www.w3.org/2000/svg" version="1.1" x="0px" y="0px" viewBox="0 0 432 432" style="enable-background:new 0 0 432 432;"> <style type="text/css"> .st0{fill:#A3C1A8;} .st1{fill:#9BB29C;} .st2{fill:#D8D8D8;} .st3{fill:#C4C4C4;} .st4{fill:#F3F4F2;} .st5{fill:#E5E5E5;} .st6{fill:#9A9387;} .st7{fill:#89837A;} .st8{fill:#7A6F67;} .st9{fill:#CE9C9B;} .st10{fill:#C19595;} .st11{fill:#E1E2E0;} .st12{fill:#C9ABAB;} .st13{fill:#AF8C8C;} .st14{fill:#303638;} .st15{fill:#1B2124;} .st16{fill:#514940;} .st17{fill:#FAFBF8;} .st18{fill:#B28E8E;} .st19{fill:#CFCFCE;} </style> <g id="Layer_3"> <rect x="0.2" y="-0.1" class="st0" width="432" height="432"/> <path class="st1" d="M41.4,305.2c30.8-90.7,56-46.1,118.6-40.6s189.4,70.8,178.3,97.2c-36.3,86.4-166.4,8.3-211.7,7.7 C46.5,368.4,26.3,349.5,41.4,305.2z"/> </g> <g id="Layer_2"> <g> <g> <path class="st2" d="M368,171.9c1.3-3,2.9-5.8,4.8-8.5c1.8-2.7,3.9-5.3,6.2-7.6c1.2-1.1,2.4-2.2,3.8-3c1.4-0.9,2.5-2.1,3.5-3.4 c1-1.3,1.9-2.6,2.8-4c0.5-0.7,0.9-1.4,1.4-2c0.5-0.7,0.9-1.3,1.6-1.8c-0.6,0.5-1.1,1.2-1.6,1.9c-0.5,0.7-0.9,1.3-1.3,2 c-0.9,1.4-1.8,2.7-2.8,4c-1,1.3-2.1,2.5-3.4,3.4c-1.4,0.8-2.6,1.9-3.7,3.1c-2.3,2.3-4.3,4.9-6,7.6c-1.8,2.7-3.3,5.6-4.6,8.5 L368,171.9z"/> </g> <g> <path class="st2" d="M370,173.7c0.8-0.8,1.6-1.8,2.4-2.7c0.8-0.9,1.6-1.8,2.5-2.6c1.8-1.7,3.7-3.2,5.8-4.5 c2.1-1.3,4.3-2.2,6.7-2.9c2.3-0.8,4.8-1,7.2-1.2c-2.4,0.2-4.8,0.5-7.1,1.3c-2.3,0.7-4.5,1.7-6.6,3c-2,1.3-3.9,2.8-5.6,4.5 c-0.9,0.8-1.7,1.7-2.4,2.7c-0.8,0.9-1.5,1.9-2.4,2.8L370,173.7z"/> </g> <g> <path class="st2" d="M371.8,175.9c1.6-3.1,3.2-6.2,5-9.2c1.7-3,3.6-6,5.6-8.9c2-2.9,4.2-5.6,6.7-8c2.5-2.4,5.5-4.5,9-5.1 c-3.5,0.6-6.4,2.8-8.9,5.2c-2.5,2.4-4.6,5.2-6.6,8.1c-2,2.9-3.8,5.9-5.5,8.9c-1.7,3-3.2,6.2-4.8,9.3L371.8,175.9z"/> </g> <g> <path class="st2" d="M374,178c1.4-1.5,2.9-3,4.6-4.3c1.7-1.3,3.6-2.2,5.5-2.9c2-0.7,4-1.2,6.1-1.5c2.1-0.3,4.1-0.4,6.2-0.5 c-2.1,0.1-4.2,0.3-6.2,0.6c-2,0.3-4.1,0.8-6,1.6c-1.9,0.7-3.8,1.7-5.4,3c-1.6,1.3-3,2.8-4.4,4.3L374,178z"/> </g> <g> <path class="st2" d="M376.4,179.5c1.7-1.1,3.5-2,5.4-2.8c1.8-0.8,3.7-1.5,5.6-2.1c3.8-1.2,7.8-2.1,11.7-2.5 c-4,0.5-7.9,1.5-11.6,2.8c-1.9,0.6-3.7,1.4-5.6,2.2c-1.8,0.8-3.6,1.7-5.2,2.9L376.4,179.5z"/> </g> <g> <path class="st2" d="M374.8,179.1c1.3-3.4,3.2-6.6,5.7-9.3c2.4-2.7,5.5-4.9,8.9-6.2c-3.4,1.3-6.3,3.6-8.7,6.4 c-2.4,2.7-4.2,5.9-5.4,9.3L374.8,179.1z"/> </g> <g> <path class="st2" d="M369.4,173.3c1.3-0.3,2.4-1.1,3.6-1.8c1.1-0.8,2.2-1.6,3.3-2.4c2.2-1.7,4.3-3.5,6.3-5.3c2-1.8,4-3.8,5.9-5.8 c1.8-2,3.7-4.1,5-6.6c-1.2,2.5-3.1,4.6-4.9,6.6c-1.8,2.1-3.8,4-5.8,5.9c-2,1.9-4.1,3.7-6.2,5.4c-1.1,0.9-2.2,1.7-3.3,2.5 c-0.6,0.4-1.2,0.8-1.8,1.1l-0.9,0.5c-0.3,0.1-0.7,0.2-1,0.4L369.4,173.3z"/> </g> <g> <path class="st2" d="M378.9,180.7c3.3-0.8,6.5-1.6,9.9-1.8c1.7-0.1,3.4,0,5,0.4c1.6,0.4,3.1,1.3,4.2,2.6 c-1.1-1.2-2.6-2.1-4.3-2.5c-1.6-0.4-3.3-0.4-5-0.3c-3.3,0.3-6.6,1.1-9.8,2L378.9,180.7z"/> </g> <g> <path class="st2" d="M380.3,182.7c0.4-0.4,0.8-0.6,1.1-0.8c0.4-0.2,0.8-0.4,1.2-0.6c0.8-0.3,1.6-0.6,2.5-0.9 c0.8-0.3,1.7-0.5,2.5-0.6c0.9-0.1,1.7-0.3,2.6-0.1c-0.9-0.1-1.7,0-2.6,0.2c-0.8,0.2-1.7,0.5-2.5,0.8c-0.8,0.3-1.6,0.6-2.4,1 c-0.4,0.2-0.8,0.4-1.1,0.6c-0.3,0.2-0.8,0.5-0.9,0.7L380.3,182.7z"/> </g> <g> <path class="st2" d="M382.2,186.6c2.8-0.6,5.6-1.1,8.4-1.3c1.4-0.1,2.8-0.2,4.3-0.1c1.4,0.1,2.9,0.2,4.2,0.7 c-1.3-0.5-2.8-0.6-4.2-0.6c-1.4,0-2.8,0.1-4.2,0.2c-2.8,0.3-5.6,0.9-8.3,1.5L382.2,186.6z"/> </g> </g> <path class="st3" d="M152.5,308.7l6.3,0c0,0,15.5-2.8,15.8-3.5c0.3-0.7-2.3-1.9-2.5-1.5l4.2-1.3c0,0,1.9-5.2-1.6-6.6 c-3.5-1.4-28.3,1.6-28.3,1.6l-7.1,7.6l8,9.9l4.2-4.8L152.5,308.7z"/> <path class="st4" d="M215.3,32.3c1.9-3.9,5.5-24.4,32.2-3.3c4.8,3.8,12.3,9.2,17.2,17s18.4,27.6,25.5,57v1.4l0.4-1l0.3,1h0.5 l-0.2,1.3l0.7-1v2h0.6c0,0-0.4,1.3,0,2c0,0,0.5-0.5,0.5-1s0.6,0.5,0.3,1.5l0.8,0.3v1h0.7l-0.6,1.9c0,0-0.3,1-0.1,1.5 c0.1,0.6,0.8,1.3,0.8,1.3s-0.3,0.8,0,1.1c0.3,0.4,1,0.6,1,0.6v-1.1c0,0,0.6,0.5,0.7,1.1c0.1,0.6,0.8-0.4,0.8-0.6 c0-0.2-0.3,1.2,0,1.7s1,1,1.4,0.9s0.9-0.9,0.9-0.9v0.7c0,0,4.5-0.9,7.7,3.8c0,0,6.5,2.9,7.1,2.9s1.7-0.5,1.7-0.5s4.4,0.6,5,1.5 s1.7,1.1,2.6,1.3s1.7,0,1.7,0v-0.8c0,0,0.4-0.6,0-1s1.3,0.8,0.6,1.9c0,0,1.1,0.1,1.3-0.8c0.2-0.9,0.1,0.5,0.4,0.8 c0.3,0.3,1.1-0.6,1.1-0.6v-0.8c0,0,0.5,1.1,0.6,1.5c0.1,0.4,0.6,0.3,0.9,0s1.4-1.7,1.4-1.7l-0.7,2c0,0,2-1.2,2.5-1.3 s-1.8,1.6-1.8,1.8s0.9,0.4,0.9,0.4s1.1,0.7,1.3,0c0.2-0.7,0.4-3.2,0.4-3.6s1.2,1.6,1,3.4c0,0,1.7-0.8,1.9-1.3c0,0-0.7,1.5-0.7,1.9 s1.2-0.9,1.5-1.7c0,0-0.8,3.2-0.2,3.6s0.9-0.3,1.1-1.7c0,0,0.3,3.1,0.2,3.8s1.3-0.3,1.3-0.3v0.7c0,0,1.1-0.8,1.3-0.8 s-1.1,0.9-0.9,1.4c0.1,0.5,0.5,0.5,0.5,0.5l0.7-0.9c0,0-0.1,1,0.4,2s0.8-1.3,0.8-1.3s0.2,3.6,1.3,4.5s1.5-0.8,1.5-1.1 s0.7,4.2,1.3,4.9s1.5,1.1,1.5,1.1s-0.4,0.8,0.3,2c0.7,1.1,1.6,0.3,1.6,0.3s0.2,2.2,2,4.4c1.8,2.2,16.6,19.5,17.4,20.7 s7.4,7.9,9.3,9.4s7.7,6.6,4.9,15.8c-0.9,3.1-2.1,6-2.4,6.5s-0.8,2-2.2,1c0,0-1.4,6.9-2.8,9s-8.1,8.8-14.6,10s-18.1,4.8-24.5,3.2 c0,0,3.5,8.2-8.7,17.9c-12.2,9.7-47.1,37.7-50.3,47c-3.1,9.4-8.7,32.2,3.9,36.7c2.8,1,4.3,1.9,5.5,1.4l1.6,0.5l-0.9,0.3l2.6,0.6 l0.4,0.3h-0.6l1.8,0.6l-1.8,0.4l2.1,0.5l0.5,0.5h-1.2c0,0,2.1,0.5,2.3,0.9c0.2,0.4-0.3,0.1-1.9,0l1.7,1.3c0,0-0.3,2,0.7,2.8 c1,0.7,2,1.6,2,1.6s-2.1-0.1-2.1,0.4c0,0,1.6,1.4,2.2,1.7c0,0-1.6,0.1-1.7,0.8l2.1,1.3h-0.6c0,0,1.1,1.2,1.2,1.5 c0,0.3-1.9,0.2-3.1,0.2s-2.9,0.9-3.1,1.1c-0.2,0.2-1,0-1.6,0l0.2,0.7c0,0-1-0.4-1.8-0.4c0,0,1.6,0.6,1.6,1.1c0,0-1.6-0.5-2-0.5 s0.6,1,0.6,1l-1.7-0.5c0,0-0.8-0.3-0.7,0.2c0.1,0.5,0.3,1,0.3,1s-1.3-0.4-2.3,0c-1,0.4-1.6,1-1.6,1s0,0.2,0.2,0.8 c0.2,0.6-4.3,1.6-6.2,1c-2-0.6-2.7-1.5-2.7-1.5s-0.1,1.3-3.3-0.9c-3.2-2.2-1.9-0.2-1.9-0.2s-1.1-1.9-1.6-2.3s-0.6,0.4-0.6,0.4 s-0.7-1-1.2-1.6c-0.6-0.6,0,1.9,0,1.9s-8.2-6.2-10.7-10.7c-2.5-4.5-10.9-14.6-11.1-15.8s-1.4-6.1-1.4-6.1s-3.7-3.4-4.5-1.4 c-0.8,2,1.3,8.6,1.9,10.3s1.2,3.6,1.2,3.6l-1.3-2.7c0,0-0.2,0.8,0,2.4c0.3,1.6,3.3,12,9.3,16.7s9.6,8.9,9.4,10c0,0-0.5-1.4-3.9-2.4 c0,0,1.6,3.6,1.6,4.6l-1.6-1.3c0,0,2.6,2.5,3,3.4s0.3,1.7,0.3,1.7s-2.5-1.3-3.1-1.3s-0.5,2.2,0.2,2.8c0.7,0.7-1.7-0.2-2.9,0 c-1.2,0.2-2.9-0.2-4.6,0.3c-1.6,0.4-1.6-1.5-2.6-1.5c-1,0-1.3,0.5-1.1,1s-1.4-1-2.7-1c-1.3-0.1-2.2-0.3-2.4,0.3s-4,0.5-4.9,0.1 c-0.9-0.4-2.9-2.2-3-2.9c-0.2-0.8-1.3-0.1-1.3,1.3c0,0-0.6-1.6-1-0.4c-0.5,1.2-5.6,0.7-6.2-0.1s-10.4-7.5-11.5-11.3 c0,0-2.3-1.4-3.3-6.2c-1-4.8-4.7-14.4-6.6-15.4c-2-1-6.4-5.3-6.7-7.8c-0.3-2.5,0.6-4.2-2.7-2.1c0,0,1.4-2.3-0.3-2.2l-3.1,0.9 l2.2-2.3l-2.8-0.7l1.5-2.4l-0.8-2.1c0,0-0.4-1.3-1.7-1.5c-1.3-0.3-2.6-6.5-4.9-6.7c-2.2-0.2-6.2-3.1-9.3-3.1s-12.4,2.7-13.4,5.2 c-1,2.6-1.7,6.7-1.7,6.7l-0.4-5.1c0,0-2.4,2.7-2.5,4.2c0,0-0.9-3.7-0.7-4.6c0.2-0.9-3.4,3.5-3.6,4.3c0,0,1.3-4.7,0-3.4 c-1.3,1.3-4.5,1.6-4.5,1.6l-1.1,2.7c0,0,6.1,0.1,7,1c0.9,0.9,10.4,3.9,13.6,8.1c0,0-1.7-1-3.8-1.1c0,0,10,9.4,10,18.3 c0,0-0.7,1.2-2.3,0.9c-1.6-0.3-0.9,1.3-0.9,1.3s-1-0.6-1.8-1.1c-0.7-0.5,0.1,2.4,0.1,2.4s-1.3-1.4-1.5-1.7 c-0.2-0.2-1.9,1.4-3.4,1.4c-1.4,0-8.7,0.5-9.4,0c-0.7-0.5-1.1-2.7-1.6-3c-0.5-0.3-2.5-0.7-2.9-0.6c-0.5,0.2,0.5,0.9,0.9,1.5 c0,0-10.6-0.2-15.6-3c-1.1-0.6-2.1-0.4-2.1-0.4v-1.6c0,0-1.7,1.4-2.4,1.8c0,0-0.3-3.6,0-3.9c0.3-0.3-2.7,0.7-4.3,0.2 c0,0-0.1-2.3,0.9-2.7c1-0.5-8.7-4.1-11.4-4.3c-2.7-0.2-18.7-2.9-21.8-7.9c-3.1-5-3.8-8.4-3.8-8.4l-1.1-3.5c0,0-2.3,0.8-2.7,1.7 c0,0,0.1-3.2,0.4-3.2S82,300,81,301.7c-1,1.7-0.4-3.2,0.5-3.3s-5.5,2.3-5.8,3.1c-0.3,0.7,0.5-2.7,1.1-3.1s0.2-2.7,0.2-2.7 s-0.8,0-1.3,0.7c-0.5,0.7-1.5,1.8-1.5,1.8l0.7-2.9c0,0,0.2-0.8-1.5,0.3c-1.8,1.1,1.1-2.4,1.5-2.6c0.5-0.2,1-1.5-0.6-2.2 c0,0,0.2-1.9,1.1-2.5s-1.9-5.7-1.9-5.7s3.3-1.6,3.2-2.3c-0.1-0.6-6.2-32.3-7-34.2s-3-8.2-3.9-9.1s-3.7-1.7-3.7-1.7l1.6-0.7 c0,0-3.2-0.8-3.5-0.8s1.9-1,2.4-2.1c0.5-1.1,0.4-3.6,0.4-3.6s-1.7-10.8-1.8-11.1s-1.9,0.8-1.9,1.2s-0.4-2.9,1.9-3.2l0.2-1.9 c0,0-1.7,0.6-1.5,1.5c0,0,0.4-3.7,1.3-4.4c0.9-0.7-1.8-1.5-2-0.6l3.5-2.5c0,0,4-10.8,7.6-12.6s0.2-0.4,0.2-0.4l2.2-3.9 c0,0-1.1-0.3-1.5,0.6c0,0,0.6-3.8,2.4-4.5c0,0-0.2-1,1.1-2.5c1.2-1.5,8.2-12.8,8.7-13.3c0.5-0.6,1.6-1.9-0.2-1.9 c0,0,1.1-1.2,1.5-1.7c0.4-0.5,1.1-4.4,2.7-5.9c1.7-1.5,4.2-3.9,3.6-4.6c0,0,0.3-0.9,1.1-1.6c0.7-0.7,0.3-2.3-0.6-2.4 c0,0,2.2,0,2.2-0.6s-1.6-1.9-1.6-1.9s3.9,1.1,4.9,0.3c1-0.7,10-8.3,13.3-9.5s9.9-6.2,10.2-7.4l0.5-1.9c0,0,0.1,1,0.7,1.5 s1.1-1.6,0.6-2.3c-0.4-0.6,2.3,3.2,4.2,3.2s2.5-4,2.5-4s1.4,0.3,2.7,0s12-3.6,13.4-4.1s3.5-0.2,4-0.7c0,0,0.3,1,1.5,1.5 c1.2,0.6,2.5-1.8,2.5-1.8s3.3,2,5.1,2.3c1.8,0.3,2-1.7,2-1.7s3.8,2.6,5.8,2.8c2,0.1,7.2,0.1,7.4,0.1c0.2,0,7-0.6,8.6,0.4 s17.9,7.5,19.2,7.8c1.3,0.3,10.5,2.9,13.9,5.7c3.3,2.8,6.4,2.6,6.4,2.6s0.2-1.5-1.3-2.2c-1.5-0.7,4.7,1.5,9.1,6.2 c4.4,4.7,8,3.2,8,3.2s1.4,0.5,2.6,0.7c1.1,0.1,4.5-0.3,5-0.7s2.3-8.6-1.3-12.5l-1.3-2.8c0,0,0.4,0.7,2,1.2c0,0-2.4-2.7-2.8-4.8 c0,0-1.2-2.3-2-2.5c-0.7-0.2-4.3-2.8-5.2-3.8c-0.9-0.9-12.4-9.7-22.1-23.1c-9.7-13.4-18.2-39.8-18.3-42s0.8-15.7,10.8-12.8 c5.8,1.7,13.7,4.4,14.9,5.2C219.5,53.8,211.2,40.8,215.3,32.3z"/> <path class="st5" d="M125.2,324.9c-1.3,1-0.9,2.9-0.9,2.9c1.6,0.5,4.6-0.5,4.3-0.2c-0.3,0.3,0,3.9,0,3.9c0.7-0.3,2.4-1.8,2.4-1.8 v1.6c0,0,1-0.2,2.1,0.4c5,2.8,15.6,3,15.6,3c-0.3-0.6-1.3-1.3-0.9-1.5c0.5-0.2,2.4,0.3,2.9,0.6c0.5,0.3,0.9,2.5,1.6,3 c0.7,0.5,8,0,9.4,0c1.4,0,3.2-1.7,3.4-1.4c0,0-0.9-3.1-1.6-3.2c-0.7-0.1-3.6-1-4.9-0.6c-1.4,0.3-5.4-1.8-7.5-2.3s-3.1,0.8-5.2,1.4 s-7.7-3-8.5-3.7c-0.7-0.7-1.5-2.4-3-2.8c-1.4-0.4-6.9-1.5-6.9-1.5l-3.6,0L125.2,324.9z"/> <path class="st5" d="M376.8,212.9c2.3-1.1-8.1,8.8-14.6,10s-18.1,4.8-24.5,3.2c0,0-2.9-1.3-6.1-1.4s-23.5-2-32.1,1.1l24.6-11.6 C324,214.3,340.6,230,376.8,212.9z"/> <path class="st6" d="M181.9,298.5c-2.2-0.2-6.2-3.1-9.3-3.1s-12.4,2.7-13.4,5.2c-1,2.6-1.7,6.7-1.7,6.7l-0.4-5.1 c0,0-2.4,2.7-2.5,4.2c0,0-0.9-3.7-0.7-4.6c0.2-0.9-3.4,3.5-3.6,4.3c0,0,1.3-4.7,0-3.4c-1.3,1.3-4.5,1.6-4.5,1.6l-1.1,2.7 c0,0,6.1,0.1,7,1c0.1,0.1-4.4,1.7-3.9,4.2c-3,0.4-8.6-2.1-11.3-2.4c-0.6,0.5,1.7,1.7,2.2,2.4c1.5,1.9,3.3,3.7,2.2,5.2 c-1.2,1.6,2,4.8,0.9,5.8c-1.5,1.4-4.4-0.9-4.7-1c-2.2-0.1-2.5,3-4.3,2.3c-6.2-2.5-7.9,0.5-7.7,0.4c1-0.5-8.7-4.1-11.4-4.3 c-2.7-0.2-18.7-2.9-21.8-7.9c-3.1-5-3.8-8.4-3.8-8.4l-1.1-3.5c0,0-2.3,0.8-2.7,1.7c0,0,0.1-3.2,0.4-3.2S82,300,81,301.7 c-1,1.7-0.4-3.2,0.5-3.3s-5.5,2.3-5.8,3.1c-0.3,0.7,0.5-2.7,1.1-3.1s0.2-2.7,0.2-2.7s-0.8,0-1.3,0.7c-0.5,0.7-1.5,1.8-1.5,1.8 l0.7-2.9c0,0,0.2-0.8-1.5,0.3c-1.8,1.1,1.1-2.4,1.5-2.6c0.5-0.2,1-1.5-0.6-2.2c0,0,0.2-1.9,1.1-2.5s-1.9-5.7-1.9-5.7 s3.3-1.6,3.2-2.3c-0.1-0.6-6.2-32.3-7-34.2s-3-8.2-3.9-9.1s-3.7-1.7-3.7-1.7l1.6-0.7c0,0-3.2-0.8-3.5-0.8s1.9-1,2.4-2.1 c0.5-1.1,0.4-3.6,0.4-3.6s-1.7-10.8-1.8-11.1s-1.9,0.8-1.9,1.2s-0.4-2.9,1.9-3.2l0.2-1.9c0,0-1.7,0.6-1.5,1.5c0,0,0.4-3.7,1.3-4.4 c0.9-0.7-1.8-1.5-2-0.6l3.5-2.5c0,0,4-10.8,7.6-12.6s0.2-0.4,0.2-0.4l2.2-3.9c0,0-1.1-0.3-1.5,0.6c0,0,0.6-3.8,2.4-4.5 c0,0-0.2-1,1.1-2.5c1.2-1.5,8.2-12.8,8.7-13.3c0.5-0.6,1.6-1.9-0.2-1.9c0,0,1.1-1.2,1.5-1.7c0.4-0.5,1.1-4.4,2.7-5.9 c1.7-1.5,4.2-3.9,3.6-4.6c0,0,0.3-0.9,1.1-1.6c0.7-0.7,0.3-2.3-0.6-2.4c0,0,2.2,0,2.2-0.6s-1.6-1.9-1.6-1.9s3.9,1.1,4.9,0.3 c1-0.7,10-8.3,13.3-9.5s9.9-6.2,10.2-7.4l0.5-1.9c0,0,0.1,1,0.7,1.5s1.1-1.6,0.6-2.3c-0.4-0.6,2.3,3.2,4.2,3.2s2.5-4,2.5-4 s1.4,0.3,2.7,0s12-3.6,13.4-4.1s3.5-0.2,4-0.7c0,0,0.3,1,1.5,1.5c1.2,0.6,2.5-1.8,2.5-1.8s3.3,2,5.1,2.3c1.8,0.3,2-1.7,2-1.7 s3.8,2.6,5.8,2.8c2,0.1,7.2,0.1,7.4,0.1c0.2,0,7-0.6,8.6,0.4s17.9,7.5,19.2,7.8c0,0,8.6,6,9.9,10.3l0.3,1.2c0,0-4.1-3.4-5.9-3.9 c0,0,1.8,2,2.3,2.9c0,0-2.9-1.7-4-1.8c-1.1-0.1-0.9,1.1-0.9,1.1l1.1,1.4c0,0-2.1-1.4-2.8-1.3s-1.1,0.4-1.1,0.4s-1.8-1.4-2.7-0.9 c-0.9,0.5-1.8,0.7-1,1.6l0.8,1l-1.9-0.8c0,0-1.1-0.1-0.9,0.3c0.2,0.4,0.5,1.4,0.5,1.4s-0.7-0.5-1.4-0.5s-0.3,0.7-0.3,0.7l-0.4,0.7 l-1.4-0.8l-0.6,0.3c0,0-1.2-0.6-1.6-0.6c-0.3,0-0.5,0.8-0.3,1.5c0.2,0.7-2.1-1.3-2.8-1.4c-0.7-0.1,0.9-0.9,0.3-2.1s0.7-2.7,0.6-3.1 c-0.1-0.4-1.5-3.6-1.7-4c-0.3-0.4-3.4-2.4-4.4-2.1c-1,0.3-1.8,0.8-1.5,1.8c0.3,1,0.3,2.4,0.5,3c0.3,0.6,1.4,3.1,1.4,3.1l1,0.9 c0,0-2.1,0.1-2.7-0.2c-0.6-0.3-0.3,0.7,0.6,1.5l0.8,1c0,0-2.4-0.8-2.9-0.8c-0.5,0-1.9-0.5-2.5-0.6s-0.4,1.3,0.8,1.9l1,1.4 c0,0-2.3-0.5-2.7-0.3c-0.4,0.2,1.4,1.4,1.8,1.6l-0.2,0.3l0.2,0.7v1.2l0.8,0.4l0.2,0.9c0,0-0.7-0.2-1.4,0.8s-0.6,1.8-0.2,2.1 c0.4,0.3-7.6-1.4-9-1c-1.4,0.4,1.6,0.9,1.6,0.9s-4.6-0.1-4.7,0.6c-0.1,0.7,1.2,1.5,1.6,1.9s1.4,1.5,2,1.9c0.7,0.4,2.1,1.2,2.1,1.2 l-0.8,0.8l0.8,0.7l0.7,0.7v0.7c0,0,0.1,1.2,0.5,1.5c0.4,0.2,2.1,1,2.1,1h-1.3l0.4,0.6l-2.5,0.1c0,0,1.1,1,2.1,1.4l0.5,0.8 c0,0-1.3,0-2,0.4c-0.7,0.4-1.8,2.2-2.2,3.2c-0.4,1-0.1,3.9,0.1,4.4c0.2,0.5-1.5,2.6-0.7,3.6c0.8,1.1,3.4,4,3.7,4.7 c0.3,0.8-6,4.8-6,6.4c0,1.6,1.1,30.7,3.7,34.7c0,0,1.7,4.6,3.4,5.6c0,0-13.4,4-13.7,18.1c0,0,2.7-3.2,6-2.2c0,0-2.5,3.2-3.2,4.2 s3.5-3,6.2-2.2c2.7,0.7-2.2,4.7-2.2,4.7l-2.7,3.7l6-2.2c0,0-3,4.5-4.2,5.2l1.8,1l-0.7,1.5l2.5-0.3l-1,4l4.8,0.9 c0,0-0.8,5.1-0.8,5.5s2.5-0.6,2.5-0.6l1.1,7.2c0,0,1.5,2.5,2.2,2.5c0.7,0,2.6,1.1,2.6,1.1l1.2,1.2l-1.9,5.2l3-5l-0.1,2.3l-0.1,3 L181.9,298.5z"/> <path class="st7" d="M76.6,280.3c0.1,0.6-3.2,2.3-3.2,2.3s2.8,5.1,1.9,5.7s-1.1,2.5-1.1,2.5c1.6,0.7,1.1,2,0.6,2.2 c-0.5,0.2-3.3,3.7-1.5,2.6c1.8-1.1,1.5-0.3,1.5-0.3l-0.7,2.9c0,0,1.1-1.1,1.5-1.8c0.5-0.7,1.3-0.7,1.3-0.7s0.4,2.4-0.2,2.7 s-1.4,3.8-1.1,3.1c0.3-0.7,6.7-3.2,5.8-3.1s-1.5,5-0.5,3.3c1-1.7,3.9-2.4,3.6-2.3s-0.4,3.2-0.4,3.2c0.4-0.9,2.7-1.7,2.7-1.7 l1.1,3.5c0,0,0.6,3.4,3.8,8.4c3.1,5,19.2,7.7,21.8,7.9c2.7,0.2,12.4,3.9,11.4,4.3c0,0,1.2-2.4,6.8-0.7c0.9,0.3,1.5,0.9,2.6-0.3 c0,0-9.1-11.4-17.6-13.6c-8.5-2.3-20.3-2.2-22.9-8.7c-2.6-6.5-0.6-7.2-0.6-7.2l-3.9-4.6l-2.1-3.4v-5.7l-2.2-3.2 c0,0-7.8-10.5-12.5-27l-4.9-11.6l-1.7-1.3c0,0,3.2,6.7,4.1,10.9C71.1,252.8,76.6,280.3,76.6,280.3z"/> <path class="st6" d="M234.1,126.5c-3.2-2.6-12.4-9.7-22.1-23.1c-9.7-13.4-18.2-39.8-18.3-42s-1.2-12.2,8.8-9.2 c0.6,0.2,4.3,3.2,7.3,5.2c0.9,0.6,1.8-1.2,3-1.2c2.8,0,5.4,2.8,6.3,3.2c2.6,1.3-2.9-5.4-6.2-8.1c3.2,1.1,5.8,2.1,6.5,2.6 c0,0-8.3-13-4.2-21.5c1.9-3.9,5.5-24.4,32.2-3.3c4.8,3.8,12.3,9.2,17.2,17s18.4,27.6,25.5,57v1.4l0.4-1l0.3,1h0.5l-0.2,1.3l0.7-1v2 h0.6c0,0-0.4,1.3,0,2c0,0,0.5-0.5,0.5-1s0.6,0.5,0.3,1.5l0.8,0.3v1h0.7l-0.6,1.9c0,0-0.3,1-0.1,1.5c0.1,0.6,0.8,1.3,0.8,1.3 s-0.3,0.8,0,1.1c0.3,0.4,1,0.6,1,0.6v-1.1c0,0,0.6,0.5,0.7,1.1c0.1,0.6,0.8-0.4,0.8-0.6c0-0.2-0.3,1.2,0,1.7s1,1,1.4,0.9 s0.9-0.9,0.9-0.9v0.7c0,0,4.5-0.9,7.7,3.8c0,0,6.5,2.9,7.1,2.9l0.2,0.7c0,0-1.7-0.5-3.4-0.2s-3.4-1.2-3.6-1.5 c-0.1-0.2-2.3-1.9-3.1-1.5c-0.8,0.5-1.1,1.1-1,1.7c0.1,0.6,4.9,7,4.9,8.4c0,1.4,11,3.9,12.6,5.5s15.8,8.2,19.5,17.9 c3.7,9.7,10.3,17.8,11.8,18.5l0.3,0.5c0,0-1.7-1.4-2.3-1.1c0,0,0.3,1.1,0.8,1.1c0.6,0,1.8,1.1,1.8,1.1s-1,0-1.4,0 c-0.3,0,0,0.4,0.2,0.4c0,0-0.7-0.2-1,0.3c0,0,0.3,0.6,0.5,0.7c0,0-3,0.5-3,1.2c-0.1,0.7,0.8,0.6,0.8,0.6l0.1,0.6l-0.4,0.4h0.6 l-0.6,0.4l0.4,0.3c0,0-1.4,0.3-1.8,0.8c-0.4,0.4-1,0.7-0.7,1.3l0,0.4c0,0-18.9,23.6-22.3,39.7c0,0,0.8-6.4,0.8-7s-2.3,1.2-3.4,7 c0,0-0.3-3.2-0.2-4.1c0.1-0.9-3.2,5.3-3.2,6.7c0,1.4,0.2-3.9,0.5-4.6s-2,2.8-2.2,4.2c-0.2,1.5-0.3-3.4,0.3-4.3s-3.1,5.3-3.1,7 c0,0-1.1-1.5-0.8-3c0.3-1.4-2.3,2-2.7,2.6s-2.9-2.2-2.9-2.2s-6.1,0.2-7.8,0.2c-1.7,0-32-8.8-46.6-27c0,0-4.8-4.8-6.2-4.7 c-1.5,0.2-3.3-0.3-3.5-0.2c-0.2,0.1,2.2-1,2.7-0.7c0,0-2.7-1.2-3.8-0.6l-1.6,0.6c0,0,1.5-3.2,2.2-3.4c0,0-0.8-0.5-1.6-0.2 c0,0,1.8-1.6,2.5-1.5c0.7,0.1-0.1-2.2-1.6-2.3c0,0,0.4-1,0.9-1.6s0.2-2-0.1-2.1c0,0,0.8-0.8,1.1-2c0.3-1.1,0.7-3.8,0-4.4 c-0.7-0.5-1.6-1.8-1.6-1.8s4.1-2.7,3.7-4.3c-0.4-1.5,0.8-6.8-1.4-7.9l-0.9-0.9l0.8-0.4l-0.8-1.5l1.3-0.1c0,0-0.7-1.1-1.5-1.1 c0,0,1.4-0.7,2.4-0.1c1,0.5,2-0.8,2-0.8s2.7-0.4,3.5,0.2c0,0-1.3-1.8-2.7-2c0,0,0.5-0.8,1.3-0.8l0.8,0.1c0,0-1.1-1.3-2.1-1.6 c0,0,1.2-0.5,1.4-0.9c0.2-0.4,0.7-2.4,0.4-2.9c-0.3-0.6,0.1-2.5-1.3-3.7s-3.6-6.3-3.7-7.8c-0.1-1.4-2.1-5.1-1.5-6.5 c0,0,1.2,0.4,1.2,0.8c0,0-1-2.3-2.5-3.9C242.6,128.2,237.7,124.4,234.1,126.5z"/> <path class="st8" d="M213.4,51.5c10.1,1.6,34,18.7,36.6,21.3c0,0-6.3-4.2-16.4-4.2c-10.1,0-20.2-8.7-22.7-10.5c-2.5-1.8,0,0,0,0 S226,59.6,213.4,51.5z"/> <path class="st9" d="M202.6,60.6c1.4,4.9,11.5,39.3,31.9,46.6c6.5,2.3,16,7.6,18.4,19.4c1.2,5.5,6.4,10.5,6.9,10.6 c0.4,0.1,1.1-0.4,1.1-0.4s-3.9-3.7-5.2-14l1-0.8l-0.7-1.1c0,0-1-0.5-1.3-0.3c0,0,0.6-0.9,2.4-0.5l0.7-0.1c0,0-2.1-1.2-2.9-1.1 c0,0,1.7-0.4,2.1-0.2c0,0-1-1-1.6-0.9c0,0,1.8-0.5,2.6,0c0,0,0.5-1.1-1.3-1.5c0,0,1,0,0.5-0.8c1.2,0.3,1.7,1.1,3.3,1.6l0.7,0.1 v-0.6l0.6,0.1c0,0,0.5-0.5-0.7-0.9l-0.3-0.6l0.4-0.4l-0.5-1.2c0,0-1-0.8-1.9-0.8c-0.9,0-3.4-1.2-4.9-1.8c0,0-0.8-0.5-1.3-0.4 s0.2-0.5,1-0.1c0,0,0.1-0.6-1.3-0.7l-0.4-0.7l0.9-0.2l0.3-0.1c0,0,0.4-0.6-0.8-0.9c0,0,0.8-0.2,1.4,0c0,0,0.1-0.8-0.9-1.2 c0,0,0.4-0.6,0.7-0.6c0,0-1-0.7-1.3-1.1c0,0,0.6-0.4,1-0.2c0,0-0.2-0.6-0.7-0.7c0,0,0.6-0.3,0.3-0.8s-1.7-1-1.9-1.7 c-0.2-0.7,0.1-1.6,0.1-1.6s0.4-0.9-0.6-1.4s-1.1-1.9-1.1-1.9l-0.4-0.7c0,0-1-0.5-1.4-0.6c-0.4-0.1-1-1.3-1-1.3v-1 c0,0-1.1-2.8-0.9-3.4c0.2-0.6-0.8-10.1-2.4-12.3c-1.6-2.2-10.8-11.9-23.8-16.3C206.5,56.7,200.4,53.3,202.6,60.6z"/> <path class="st10" d="M246.8,94.6c0,0-4.9-3.2-7.8-3.7c-3-0.6-3.4-2.9-4.5-4.3c-1.2-1.4-11.3-10-13.8-10.7c-2.5-0.7-1.1-2.3,1.9-1 c3,1.3,13.8,8.7,14.4,9.7c0.6,0.9,3.7,1.7,4.1,1.9s4.3,2.3,4.6,3.1c0,0,0.5,2.7,0.8,3.6L246.8,94.6z"/> <path class="st11" d="M316.8,148.9c-2.1-0.4-2.5-5.4-2.7-5.9s-5.4-0.7-6.1,0.8c-0.7,1.5-6.3,6-6.9,6.4s-1.1,8.6-1.8,8.6 s-3.4-1.1-3.4-1.1s1.8,4.1,3,4.5c1.1,0.5-1.5,4.1-3,4.2c-1.5,0.2,5.9,2.1,6.7,3.5c0.8,1.5,3.8,4.2,21,7.5c1.6,0.3,2.9,3.2,2.9,3.2 s5,0.9,6.7,0c1.7-0.9,3.7-3.7,5-3.7c1.3,0,2.8-0.2,2.8-0.2s-2.8-8.3-2.2-10.4c0.5-2.1-0.6-9-1.5-9.3s-3.1,1.1-4.3,0.8 s-3.1,0.8-3.1,0.8S325.5,150.7,316.8,148.9z"/> <g> <path class="st12" d="M315.2,172.6c-1.2,0-2.2-0.1-3.1-0.3c-4.4-1.1-5.8-7.8-6.3-10.2c-0.1-0.3-0.1-0.5-0.2-0.7l0.3-1.2l1.1-0.8 c2.3-2.7,4.3-3.7,7.2-3.7c1.7,0,3.8,0.4,6.6,1.2c7.1,2,7.1,10.8,6.8,12.4c-0.2,0.9,0.4,1.6,0.7,2l-0.7,0.3c0,0-0.3,0.1-0.6,0.1 c-0.3,0-0.7-0.1-1-0.2c-0.1-0.1-0.3-0.1-0.4-0.1c-0.5,0-1.5,0.2-2.7,0.5C320.7,172,317.9,172.6,315.2,172.6 C315.2,172.6,315.2,172.6,315.2,172.6z"/> <path class="st13" d="M314.1,155.8c1.7,0,3.8,0.4,6.6,1.2c6.9,2,6.9,10.6,6.6,12.1c-0.2,0.8,0.2,1.5,0.5,1.9l-0.4,0.1 c0,0-0.2,0.1-0.5,0.1c-0.3,0-0.6-0.1-0.9-0.2c-0.1-0.1-0.3-0.1-0.6-0.1c-0.6,0-1.5,0.2-2.8,0.5c-2.1,0.4-4.9,1-7.5,1 c-1.2,0-2.2-0.1-3.1-0.3c-4.3-1.1-5.6-7.6-6.1-10.1c-0.1-0.3-0.1-0.5-0.1-0.7l0.2-1.1l1-0.7l0,0l0,0 C309.4,156.8,311.3,155.8,314.1,155.8 M314.1,155.3c-3.1,0-5.1,1.2-7.3,3.8l-1.1,0.9l-0.3,1.4c0.4,1.2,1.4,9.9,6.7,11.2 c1,0.3,2.1,0.4,3.2,0.4c4.3,0,8.9-1.5,10.3-1.5c0.2,0,0.3,0,0.3,0.1c0.4,0.2,0.8,0.3,1.1,0.3c0.4,0,0.7-0.1,0.7-0.1l1.2-0.4 c0,0-1.2-0.8-1-2c0.2-1.2,0.5-10.5-7-12.6C318.1,155.7,315.9,155.3,314.1,155.3L314.1,155.3z"/> </g> <g> <path class="st14" d="M317.1,171.4c-0.9,0-1.7-0.1-2.6-0.2c-3.6-0.6-5.7-4-6.4-5.4c-1.1-2.1-1.4-3.9-1.1-4.5c2-3,3.8-4.6,8.1-4.6 c1.2,0,2.7,0.1,4.4,0.4c4.8,0.7,6.2,5.1,6.6,7c0.5,2.7,0.1,4.7-0.4,5C324.5,169.8,321.4,171.4,317.1,171.4L317.1,171.4z"/> <path class="st15" d="M315.1,156.9c1.2,0,2.6,0.1,4.4,0.4c4.8,0.6,6.1,5.1,6.5,6.9c0.5,2.5,0.1,4.6-0.4,4.9 c-1.2,0.7-4.3,2.2-8.5,2.2c-0.9,0-1.7-0.1-2.6-0.2c-3.5-0.6-5.6-3.9-6.3-5.3c-1-2-1.4-3.8-1.1-4.4 C309.1,158.4,310.9,156.9,315.1,156.9 M315.1,156.6c-4.2,0-6.1,1.4-8.2,4.7c-0.8,1.6,2.2,9.2,7.6,10.1c0.9,0.1,1.8,0.2,2.6,0.2 c4.2,0,7.4-1.6,8.6-2.3c1.5-0.9,1.3-11.3-6.2-12.3C317.8,156.7,316.4,156.6,315.1,156.6L315.1,156.6z"/> </g> <path class="st16" d="M308,161.8c-0.2,0.6,0.4,1.6,0.4,1.6l-0.3,0.5c0,0,0.7,1.1,0.9,1.5c0.2,0.4,0.9,2.5,1.7,2.7 c0.8,0.2,2.3,1.4,2.3,1.4l0.6-0.3l0.4,0.2l0.1-0.1l0.5,0.2l0.5,0.6c0,0,3.9,0,5.1-0.6c1.2-0.6,1.7-0.4,1.7-0.4s1.1-1.2,1.1-1.4 s1.8-3.2,1.8-3.6c0-0.4-0.3-3-0.8-3.4c-0.5-0.4-2.4-1.8-3.2-2.1c-0.8-0.3-2.4-0.9-2.4-0.9s-4.1-0.5-6.2,0.4S308.3,160.9,308,161.8z "/> <circle class="st15" cx="316.9" cy="163.6" r="5.3"/> <circle class="st17" cx="320.8" cy="159.7" r="1.1"/> <circle class="st17" cx="321.9" cy="161.5" r="0.5"/> <path class="st18" d="M381.4,203.6c-0.5,0.6-0.9,0.8-1.8,0.3c0-0.2-2.2-1.3-2.2-1.3c0.3,0.4,1.3,5.1,1.3,5.1s0.7,0.6,0,0 c-0.7-0.6-4.1-6.9-4.4-7.6c-0.3-0.6-0.1-1.2,0-1.4s0.7-0.3,1.1-0.1C378,199.5,381.3,203.5,381.4,203.6L381.4,203.6z"/> <g> <g> <path class="st2" d="M351.9,201.7c-1,1.9-2,3.8-2.8,5.7c-0.8,2-1.5,4-2,6c-1,4.1-1.1,8.4-0.6,12.7c0.5,4.2,1.6,8.4,3.3,12.3 l0.6,1.5c0.2,0.5,0.5,1,0.7,1.4l1.4,2.9c1,1.9,2.1,3.7,3.2,5.6c-1.1-1.8-2.2-3.6-3.2-5.5l-1.4-2.9c-0.2-0.5-0.5-0.9-0.7-1.4 l-0.6-1.5c-1.7-3.9-2.8-8.1-3.4-12.3c-0.6-4.2-0.4-8.6,0.5-12.8c0.4-2.1,1.1-4.1,1.9-6.1c0.8-2,1.8-3.9,2.8-5.8L351.9,201.7z"/> </g> <g> <path class="st2" d="M345.5,211c-1,1-1.7,2.4-2.5,3.7c-0.7,1.3-1.5,2.6-2.2,4c-1.4,2.7-2.7,5.4-4,8.1c-2.5,5.5-4.8,11-7,16.6 c-2.1,5.6-4,11.3-5.5,17.2c-0.7,2.9-1.4,5.9-1.8,8.8c-0.4,3-0.7,6-0.5,9c-0.2-3,0-6,0.4-9c0.4-3,1-5.9,1.8-8.9 c1.4-5.8,3.3-11.6,5.4-17.2c2.1-5.6,4.4-11.2,6.9-16.7c1.2-2.7,2.5-5.5,3.9-8.1c0.7-1.3,1.4-2.7,2.1-4c0.8-1.3,1.5-2.6,2.5-3.8 L345.5,211z"/> </g> <g> <path class="st2" d="M349.9,210.9c-0.9,2.4-1.9,4.8-2.6,7.2c-0.8,2.4-1.3,4.9-1.7,7.5c-0.7,5.1-0.7,10.2-0.4,15.4l0.3,3.8 l0.4,3.8c0.2,2.6,0.7,5.1,0.9,7.7c0.1,2.6-0.3,5.1-0.7,7.7c-0.5,2.5-1,5-1.7,7.5c0.7-2.5,1.2-5,1.6-7.5c0.4-2.5,0.7-5.1,0.6-7.7 c-0.2-2.6-0.7-5.1-0.9-7.7l-0.4-3.8l-0.3-3.8c-0.3-5.1-0.4-10.3,0.3-15.4c0.3-2.6,0.9-5.1,1.6-7.6c0.8-2.5,1.7-4.9,2.6-7.3 L349.9,210.9z"/> </g> <g> <path class="st2" d="M352,218.5c-3.7,8.3-6.6,17.1-7.8,26.1c-0.6,4.5-0.8,9.1-0.5,13.6c0.3,4.5,1.2,9.1,2.8,13.4 c-1.6-4.3-2.5-8.8-2.9-13.4c-0.4-4.6-0.2-9.1,0.4-13.7c1.2-9.1,3.9-17.9,7.6-26.3L352,218.5z"/> </g> <g> <path class="st2" d="M356.9,213.8c-1.1,2.9-1.9,6-2.7,9c-0.8,3.1-1.4,6.1-2,9.2c-0.6,3.1-1,6.2-1.3,9.3c-0.3,3.1-0.4,6.3-0.1,9.4 c-0.4-3.1-0.2-6.3,0-9.4c0.2-3.1,0.7-6.3,1.2-9.4c0.5-3.1,1.2-6.2,1.9-9.3c0.7-3.1,1.5-6.1,2.6-9.1L356.9,213.8z"/> </g> <g> <path class="st2" d="M355.8,220c-1.7,4.4-3.6,8.6-5.2,13.1c-0.8,2.2-1.4,4.5-1.8,6.8c-0.4,2.3-0.4,4.7-0.1,7 c-0.4-2.3-0.4-4.7,0-7c0.3-2.3,0.9-4.6,1.6-6.8c1.4-4.5,3.3-8.8,4.9-13.2L355.8,220z"/> </g> <g> <path class="st2" d="M357.3,220c-1.2,5-1.4,10.2-0.6,15.3c0.4,2.5,1,5,1.8,7.5c0.8,2.4,1.9,4.8,3.1,7.1c-1.2-2.3-2.3-4.6-3.2-7 c-0.8-2.4-1.5-4.9-1.9-7.5c-0.8-5.1-0.7-10.4,0.4-15.4L357.3,220z"/> </g> <g> <path class="st2" d="M356.3,218.3c0.6,2.8,1,5.5,1.5,8.3c0.2,1.4,0.5,2.8,0.8,4.1c0.3,1.4,0.7,2.7,1.2,4c1,2.6,2.3,5.1,3.8,7.5 c1.4,2.4,3,4.7,4.6,7c-1.6-2.3-3.3-4.6-4.7-7c-1.5-2.4-2.9-4.9-3.9-7.5c-0.5-1.3-0.9-2.7-1.3-4c-0.3-1.4-0.6-2.8-0.9-4.1 c-0.5-2.8-0.9-5.5-1.6-8.3L356.3,218.3z"/> </g> <g> <path class="st2" d="M360.1,221c0.3,3.3,0.3,6.6,0.5,9.9c0.1,1.6,0.4,3.3,0.8,4.8c0.5,1.6,1.2,3.1,2.2,4.4 c-1-1.3-1.8-2.8-2.3-4.3c-0.5-1.6-0.8-3.2-1-4.9c-0.3-3.3-0.4-6.6-0.8-9.9L360.1,221z"/> </g> <g> <path class="st2" d="M361.8,216.4c0.3,2.7,0.9,5.4,1.8,7.9c0.9,2.6,1.9,5.1,3.2,7.5c1.3,2.4,2.7,4.7,4.4,6.9 c0.8,1.1,1.7,2.1,2.6,3.2c0.9,1,1.9,2,2.8,3c-0.9-1-1.9-1.9-2.8-3c-0.9-1-1.8-2-2.6-3.2c-1.7-2.1-3.2-4.5-4.5-6.9 c-1.3-2.4-2.4-4.9-3.4-7.5c-0.9-2.6-1.6-5.3-1.9-8L361.8,216.4z"/> </g> <g> <path class="st2" d="M364.9,218.3c0.5,2.1,1,4.1,1.7,6.1c0.7,2,1.5,4,2.5,5.8c1,1.9,2.2,3.7,3.4,5.4c1.2,1.7,2.6,3.3,4,5 c-1.4-1.6-2.8-3.2-4.1-4.9c-1.3-1.7-2.5-3.5-3.5-5.3c-1.1-1.9-1.9-3.8-2.6-5.8c-0.7-2-1.2-4.1-1.8-6.1L364.9,218.3z"/> </g> <g> <path class="st2" d="M367.6,216.4c0.6,2.1,1.1,4.1,1.9,6.1c0.4,1,0.8,2,1.4,2.9c0.6,0.9,1.2,1.8,2.1,2.4 c-0.9-0.6-1.6-1.4-2.2-2.3c-0.6-0.9-1.1-1.9-1.5-2.8c-0.9-2-1.5-4-2.1-6L367.6,216.4z"/> </g> <g> <path class="st2" d="M369.2,213.5c1.1,1.5,2.2,3,3.3,4.5c1,1.5,2,3.1,2.6,4.9c-0.6-1.7-1.7-3.3-2.8-4.7c-1.1-1.5-2.3-2.9-3.5-4.3 L369.2,213.5z"/> </g> <g> <path class="st2" d="M355.3,222.1c-0.2,2.5-0.4,4.9-0.6,7.4l-0.4,7.4l-0.4,7.4c-0.1,2.5-0.3,5-0.3,7.4c0-2.5,0.1-5,0.2-7.5 l0.3-7.4l0.3-7.4c0.1-2.5,0.2-5,0.4-7.5L355.3,222.1z"/> </g> <g> <path class="st2" d="M347.8,224.4c-1,1.6-1.7,3.4-2.5,5.1l-2.2,5.2l-2.2,5.2c-0.4,0.9-0.8,1.7-1.2,2.6c-0.2,0.4-0.4,0.9-0.6,1.3 c-0.1,0.2-0.2,0.4-0.4,0.6c-0.1,0.2-0.3,0.4-0.5,0.5c0.2-0.1,0.3-0.3,0.5-0.5c0.1-0.2,0.2-0.4,0.3-0.6c0.2-0.4,0.4-0.9,0.6-1.3 c0.4-0.9,0.8-1.7,1.1-2.6l2.1-5.3l2.1-5.3c0.7-1.8,1.5-3.5,2.4-5.2L347.8,224.4z"/> </g> </g> <path class="st5" d="M186.8,305.2c1.3,0.4,1.7,1.5,1.7,1.5l0.8,2.1l-1.5,2.4l2.8,0.7l-2.2,2.3l3.1-0.9c1.7-0.1,0.3,2.2,0.3,2.2 c3.3-2.1,2.4-0.4,2.7,2.1c0.3,2.5,4.7,6.8,6.7,7.8c2,1,5.6,10.7,6.6,15.4c1,4.8,3.3,6.2,3.3,6.2c1.1,3.7,10.9,10.4,11.5,11.3 s5.7,1.3,6.2,0.1c0.5-1.2,1,0.4,1,0.4c-0.1-1.3,1.1-2,1.3-1.3c0.2,0.8,2.2,2.6,3,2.9c0.9,0.4,4.7,0.4,4.9-0.1s1.1-0.4,2.4-0.3 c1.3,0.1,2.9,1.6,2.7,1s0.2-1,1.1-1c1,0,1,2,2.6,1.5c1.6-0.4,3.3-0.1,4.6-0.3c1.2-0.2,3.6,0.7,2.9,0l-0.8-0.7c0,0-2.6-0.8-3.2-0.8 c-0.6,0.1-2.7,0.2-2.8,0.2s-1.5,0.3-2.1-0.4c-0.7-0.7-2.5-1.8-2.8-1.4c-0.3,0.4-1.7,0.1-2-0.2c-0.4-0.3-3.6-2.8-5.8-3.4 c-2.2-0.6-4.3-1.7-5.1-1.4s-1,1.2-1,1.2s-0.3,0.1-1.1-0.5c-0.8-0.6-9.9-5.5-11.3-8.7s-1.9-11.9-1.9-12.8s-3.5-13.1-6.3-14 s-9.3-2.4-11-4.3s-4.2-1.4-4.2-1.4l-1.5-1.3l-2-1.5l-0.2-2.3l-0.8-1.7c0,0-1.6-1.7-2.3-1.9c-0.7-0.2-1.3-0.9-1.3-0.9 S186.1,305,186.8,305.2z"/> <path class="st5" d="M242.8,315.1c0,0,1.3,4.9,1.4,6.1s8.6,11.3,11.1,15.8c2.5,4.5,10.7,10.7,10.7,10.7s-0.5-2.4,0-1.9 c0.6,0.6,1.2,1.6,1.2,1.6s0-0.8,0.6-0.4s1.6,2.3,1.6,2.3s-1.3-2,1.9,0.2c3.2,2.2,3.3,0.9,3.3,0.9s0.8,1,2.7,1.5 c2,0.6,6.5-0.4,6.2-1c-0.2-0.6-0.2-0.8-0.2-0.8s0.6-0.7,1.6-1c1-0.4,2.3,0,2.3,0s-0.2-0.5-0.3-1c-0.1-0.5,0.7-0.2,0.7-0.2l1.7,0.5 c0,0-0.9-1-0.6-1s2,0.5,2,0.5c0-0.5-1.6-1.1-1.6-1.1c0.8,0,1.8,0.4,1.8,0.4l-0.2-0.7c0.6,0,1.4,0.2,1.6,0c0.2-0.2,1.9-1.1,3.1-1.1 s3.1,0.1,3.1-0.2c0,0-1.2,0.1-2.3-0.4c-1.1-0.5-3.5,0.7-3.9,0.7c-0.4,0.1-1.9,0-1.9,0l-2.1,0l-1.3,0.4l-1.2-0.2 c0,0-2.9-0.4-3.7,0.1c-0.8,0.5-5.1,0.7-6.2,0.4s-3.4-2.3-5.2-2.5c-1.8-0.2-11.9-5.2-12.6-7.2c-0.8-1.9-4.6-7.9-6-8.8 s-5.9-4.9-6.5-6.1C245.1,320.3,244.3,319.9,242.8,315.1z"/> <path class="st19" d="M266,347.6c-1.9-3.7-6.6-7.2-6.8-8.8c-0.2-1.6,0-6.8,0.6-8.4c0.6-1.6,3.6-6.2,4.2-7.5 c0.6-1.2,1.3-6.2,1.2-7.1c-0.1-0.9-1.7-5.7-2.2-6.6s-4.3-4.3-4.3-4.3s1.9,2.8,2.3,4.5c0,0-1-2.3-3.2-3.3c0,0,1.1,1.7,1.2,5.4 c0,0-0.8-2.7-2.7-4.3l-0.8,2.8v2l-1.5-3.4c0,0-1.1-0.1-1.9,0.5c-0.9,0.7-1,1.2-1,1.2s-1.5,1.9-1.2,3.9c0,0-1.7-1.1-2-1.6 c-0.3-0.5-1.2-0.2-1.2-0.2s-0.8,0.1-0.9,0.2c-0.1,0.1-0.4,1.8-0.4,1.8l-0.8,0.5l-1.6,0.1c0,0,0.4,1.7,0.7,3.2 c0.9,3.1,0.2,2.7,1.7,4.6c0.8,1.1,6.2,8.3,7,9.4c0.6,0.8,2.8,4,3.5,5.3C257.8,341.4,266,347.6,266,347.6z"/> </g> </svg>